# Blender 4.5.2 LTS
# www.blender.org
mtllib Bush.mtl
o Cylinder
v 0.000000 0.171808 0.171808
v 0.000000 -0.171808 0.171808
v -0.033518 0.171808 0.168506
v -0.033518 -0.171808 0.168506
v -0.065748 0.171808 0.158730
v -0.065748 -0.171808 0.158730
v -0.095451 0.171808 0.142853
v -0.095451 -0.171808 0.142853
v -0.121486 0.171808 0.121486
v -0.121486 -0.171808 0.121486
v -0.142853 0.171808 0.095451
v -0.142853 -0.171808 0.095451
v -0.158730 0.171808 0.065748
v -0.158730 -0.171808 0.065748
v -0.168506 0.171808 0.033518
v -0.168506 -0.171808 0.033518
v -0.171808 0.171808 0.000000
v -0.171808 -0.171808 0.000000
v -0.168506 0.171808 -0.033518
v -0.168506 -0.171808 -0.033518
v -0.158730 0.171808 -0.065748
v -0.158730 -0.171808 -0.065748
v -0.142853 0.171808 -0.095451
v -0.142853 -0.171808 -0.095451
v -0.121486 0.171808 -0.121486
v -0.121486 -0.171808 -0.121486
v -0.095451 0.171808 -0.142853
v -0.095451 -0.171808 -0.142853
v -0.065748 0.171808 -0.158730
v -0.065748 -0.171808 -0.158730
v -0.033518 0.171808 -0.168506
v -0.033518 -0.171808 -0.168506
v 0.000000 0.171808 -0.171808
v 0.000000 -0.171808 -0.171808
v 0.033518 0.171808 -0.168506
v 0.033518 -0.171808 -0.168506
v 0.065748 0.171808 -0.158730
v 0.065748 -0.171808 -0.158730
v 0.095451 0.171808 -0.142853
v 0.095451 -0.171808 -0.142853
v 0.121486 0.171808 -0.121486
v 0.121486 -0.171808 -0.121486
v 0.142853 0.171808 -0.095451
v 0.142853 -0.171808 -0.095451
v 0.158730 0.171808 -0.065748
v 0.158730 -0.171808 -0.065748
v 0.168506 0.171808 -0.033518
v 0.168506 -0.171808 -0.033518
v 0.171808 0.171808 0.000000
v 0.171808 -0.171808 0.000000
v 0.168506 0.171808 0.033518
v 0.168506 -0.171808 0.033518
v 0.158730 0.171808 0.065748
v 0.158730 -0.171808 0.065748
v 0.142853 0.171808 0.095451
v 0.142853 -0.171808 0.095451
v 0.121486 0.171808 0.121486
v 0.121486 -0.171808 0.121486
v 0.095451 0.171808 0.142853
v 0.095451 -0.171808 0.142853
v 0.065748 0.171808 0.158730
v 0.065748 -0.171808 0.158730
v 0.033518 0.171808 0.168506
v 0.033518 -0.171808 0.168506
v 0.000000 0.171808 0.171808
v 0.000000 -0.171808 0.171808
v -0.033518 0.171808 0.168506
v -0.033518 -0.171808 0.168506
v -0.065748 0.171808 0.158730
v -0.065748 -0.171808 0.158730
v -0.095451 0.171808 0.142853
v -0.095451 -0.171808 0.142853
v -0.121486 0.171808 0.121486
v -0.121486 -0.171808 0.121486
v -0.142853 0.171808 0.095451
v -0.142853 -0.171808 0.095451
v -0.158730 0.171808 0.065748
v -0.158730 -0.171808 0.065748
v -0.168506 0.171808 0.033518
v -0.168506 -0.171808 0.033518
v -0.171808 0.171808 0.000000
v -0.171808 -0.171808 0.000000
v -0.168506 0.171808 -0.033518
v -0.168506 -0.171808 -0.033518
v -0.158730 0.171808 -0.065748
v -0.158730 -0.171808 -0.065748
v -0.142853 0.171808 -0.095451
v -0.142853 -0.171808 -0.095451
v -0.121486 0.171808 -0.121486
v -0.121486 -0.171808 -0.121486
v -0.095451 0.171808 -0.142853
v -0.095451 -0.171808 -0.142853
v -0.065748 0.171808 -0.158730
v -0.065748 -0.171808 -0.158730
v -0.033518 0.171808 -0.168506
v -0.033518 -0.171808 -0.168506
v 0.000000 0.171808 -0.171808
v 0.000000 -0.171808 -0.171808
v 0.033518 0.171808 -0.168506
v 0.033518 -0.171808 -0.168506
v 0.065748 0.171808 -0.158730
v 0.065748 -0.171808 -0.158730
v 0.095451 0.171808 -0.142853
v 0.095451 -0.171808 -0.142853
v 0.121486 0.171808 -0.121486
v 0.121486 -0.171808 -0.121486
v 0.142853 0.171808 -0.095451
v 0.142853 -0.171808 -0.095451
v 0.158730 0.171808 -0.065748
v 0.158730 -0.171808 -0.065748
v 0.168506 0.171808 -0.033518
v 0.168506 -0.171808 -0.033518
v 0.171808 0.171808 0.000000
v 0.171808 -0.171808 0.000000
v 0.168506 0.171808 0.033518
v 0.168506 -0.171808 0.033518
v 0.158730 0.171808 0.065748
v 0.158730 -0.171808 0.065748
v 0.142853 0.171808 0.095451
v 0.142853 -0.171808 0.095451
v 0.121486 0.171808 0.121486
v 0.121486 -0.171808 0.121486
v 0.095451 0.171808 0.142853
v 0.095451 -0.171808 0.142853
v 0.065748 0.171808 0.158730
v 0.065748 -0.171808 0.158730
v 0.033518 0.171808 0.168506
v 0.033518 -0.171808 0.168506
v 0.000000 0.171808 0.171808
v -0.033518 0.171808 0.168506
v -0.065748 0.171808 0.158730
v -0.095451 0.171808 0.142853
v -0.121486 0.171808 0.121486
v -0.142853 0.171808 0.095451
v -0.158730 0.171808 0.065748
v -0.168506 0.171808 0.033518
v -0.171808 0.171808 0.000000
v -0.168506 0.171808 -0.033518
v -0.158730 0.171808 -0.065748
v -0.142853 0.171808 -0.095451
v -0.121486 0.171808 -0.121486
v -0.095451 0.171808 -0.142853
v -0.065748 0.171808 -0.158730
v -0.033518 0.171808 -0.168506
v 0.000000 0.171808 -0.171808
v 0.033518 0.171808 -0.168506
v 0.065748 0.171808 -0.158730
v 0.095451 0.171808 -0.142853
v 0.121486 0.171808 -0.121486
v 0.142853 0.171808 -0.095451
v 0.158730 0.171808 -0.065748
v 0.168506 0.171808 -0.033518
v 0.171808 0.171808 0.000000
v 0.168506 0.171808 0.033518
v 0.158730 0.171808 0.065748
v 0.142853 0.171808 0.095451
v 0.121486 0.171808 0.121486
v 0.095451 0.171808 0.142853
v 0.065748 0.171808 0.158730
v 0.033518 0.171808 0.168506
v 0.000000 0.748916 0.109941
v -0.021448 0.748916 0.107829
v -0.042073 0.748916 0.101573
v -0.061080 0.748916 0.091413
v -0.077740 0.748916 0.077740
v -0.091413 0.748916 0.061080
v -0.101573 0.748916 0.042073
v -0.107829 0.748916 0.021448
v -0.109941 0.748916 0.000000
v -0.107829 0.748916 -0.021448
v -0.101573 0.748916 -0.042073
v -0.091413 0.748916 -0.061080
v -0.077740 0.748916 -0.077740
v -0.061080 0.748916 -0.091413
v -0.042073 0.748916 -0.101573
v -0.021448 0.748916 -0.107829
v 0.000000 0.748916 -0.109941
v 0.021449 0.748916 -0.107829
v 0.042073 0.748916 -0.101573
v 0.061080 0.748916 -0.091413
v 0.077740 0.748916 -0.077740
v 0.091413 0.748916 -0.061080
v 0.101573 0.748916 -0.042073
v 0.107829 0.748916 -0.021448
v 0.109941 0.748916 0.000000
v 0.107829 0.748916 0.021448
v 0.101573 0.748916 0.042073
v 0.091413 0.748916 0.061080
v 0.077740 0.748916 0.077740
v 0.061080 0.748916 0.091413
v 0.042073 0.748916 0.101573
v 0.021449 0.748916 0.107829
v -0.000000 1.181402 0.070045
v -0.013665 1.181402 0.068700
v -0.026805 1.181402 0.064714
v -0.038915 1.181402 0.058241
v -0.049530 1.181402 0.049530
v -0.058241 1.181402 0.038915
v -0.064714 1.181402 0.026805
v -0.068700 1.181402 0.013665
v -0.070046 1.181402 -0.000000
v -0.068700 1.181402 -0.013665
v -0.064714 1.181402 -0.026805
v -0.058241 1.181402 -0.038915
v -0.049530 1.181402 -0.049530
v -0.038915 1.181402 -0.058241
v -0.026805 1.181402 -0.064714
v -0.013665 1.181402 -0.068700
v -0.000000 1.181402 -0.070046
v 0.013665 1.181402 -0.068700
v 0.026805 1.181402 -0.064714
v 0.038915 1.181402 -0.058241
v 0.049529 1.181402 -0.049530
v 0.058240 1.181402 -0.038915
v 0.064713 1.181402 -0.026805
v 0.068699 1.181402 -0.013665
v 0.070045 1.181402 -0.000000
v 0.068699 1.181402 0.013665
v 0.064713 1.181402 0.026805
v 0.058240 1.181402 0.038915
v 0.049529 1.181402 0.049530
v 0.038915 1.181402 0.058241
v 0.026805 1.181402 0.064714
v 0.013665 1.181402 0.068700
v -0.000000 1.808764 0.070045
v -0.013665 1.808764 0.068700
v -0.026805 1.808764 0.064714
v -0.038915 1.808764 0.058241
v -0.049530 1.808764 0.049530
v -0.058241 1.808764 0.038915
v -0.064714 1.808764 0.026805
v -0.068700 1.808764 0.013665
v -0.070046 1.808764 -0.000000
v -0.068700 1.808764 -0.013665
v -0.064714 1.808764 -0.026805
v -0.058241 1.808764 -0.038915
v -0.049530 1.808764 -0.049530
v -0.038915 1.808764 -0.058241
v -0.026805 1.808764 -0.064714
v -0.013665 1.808764 -0.068700
v -0.000000 1.808764 -0.070046
v 0.013665 1.808764 -0.068700
v 0.026805 1.808764 -0.064714
v 0.038915 1.808764 -0.058241
v 0.049530 1.808764 -0.049530
v 0.058241 1.808764 -0.038915
v 0.064714 1.808764 -0.026805
v 0.068700 1.808764 -0.013665
v 0.070045 1.808764 -0.000000
v 0.068700 1.808764 0.013665
v 0.064714 1.808764 0.026805
v 0.058241 1.808764 0.038915
v 0.049530 1.808764 0.049530
v 0.038915 1.808764 0.058241
v 0.026805 1.808764 0.064714
v 0.013665 1.808764 0.068700
vn 0.0980 -0.0000 -0.9952
vn 0.2903 -0.0000 -0.9569
vn 0.4714 -0.0000 -0.8819
vn 0.6344 -0.0000 -0.7730
vn 0.7730 -0.0000 -0.6344
vn 0.8819 -0.0000 -0.4714
vn 0.9569 -0.0000 -0.2903
vn 0.9952 -0.0000 -0.0980
vn 0.9952 -0.0000 0.0980
vn 0.9569 -0.0000 0.2903
vn 0.8819 -0.0000 0.4714
vn 0.7730 -0.0000 0.6344
vn 0.6344 -0.0000 0.7730
vn 0.4714 -0.0000 0.8819
vn 0.2903 -0.0000 0.9569
vn 0.0980 -0.0000 0.9952
vn -0.0980 -0.0000 0.9952
vn -0.2903 -0.0000 0.9569
vn -0.4714 -0.0000 0.8819
vn -0.6344 -0.0000 0.7730
vn -0.7730 -0.0000 0.6344
vn -0.8819 -0.0000 0.4714
vn -0.9569 -0.0000 0.2903
vn -0.9952 -0.0000 0.0980
vn -0.9952 -0.0000 -0.0980
vn -0.9569 -0.0000 -0.2903
vn -0.8819 -0.0000 -0.4714
vn -0.7730 -0.0000 -0.6344
vn -0.6344 -0.0000 -0.7730
vn -0.4714 -0.0000 -0.8819
vn -0.0000 1.0000 -0.0000
vn -0.2903 -0.0000 -0.9569
vn -0.0980 -0.0000 -0.9952
vn -0.0000 -1.0000 -0.0000
vn -0.9896 0.1061 -0.0975
vn -0.7698 0.0914 -0.6317
vn 0.9515 0.1061 -0.2886
vn -0.9515 0.1061 -0.2886
vn 0.9896 0.1061 -0.0975
vn -0.8769 0.1061 -0.4687
vn 0.9896 0.1061 0.0975
vn -0.7686 0.1061 -0.6308
vn 0.9515 0.1061 0.2886
vn -0.6308 0.1061 -0.7686
vn 0.8769 0.1061 0.4687
vn -0.4687 0.1061 -0.8769
vn -0.0975 0.1061 0.9896
vn 0.7686 0.1061 0.6308
vn -0.2886 0.1061 -0.9515
vn -0.2886 0.1061 0.9515
vn 0.6308 0.1061 0.7686
vn -0.0975 0.1061 -0.9896
vn -0.4687 0.1061 0.8769
vn 0.4687 0.1061 0.8769
vn 0.0975 0.1061 -0.9896
vn -0.6308 0.1061 0.7686
vn 0.2886 0.1061 0.9515
vn 0.2886 0.1061 -0.9515
vn -0.7686 0.1061 0.6308
vn 0.0975 0.1061 0.9896
vn 0.4687 0.1061 -0.8769
vn -0.8769 0.1061 0.4687
vn 0.6308 0.1061 -0.7686
vn -0.9515 0.1061 0.2886
vn 0.7686 0.1061 -0.6308
vn -0.9896 0.1061 0.0975
vn 0.8769 0.1061 -0.4687
vn 0.9529 0.0914 0.2891
vn -0.6317 0.0914 -0.7698
vn 0.8782 0.0914 0.4694
vn -0.4694 0.0914 -0.8782
vn -0.0976 0.0914 0.9910
vn 0.7698 0.0914 0.6317
vn -0.2891 0.0914 -0.9529
vn -0.2891 0.0914 0.9529
vn 0.6317 0.0914 0.7698
vn -0.0976 0.0914 -0.9910
vn -0.4694 0.0914 0.8782
vn 0.4694 0.0914 0.8782
vn 0.0976 0.0914 -0.9910
vn -0.6317 0.0914 0.7698
vn 0.2891 0.0914 0.9529
vn 0.2891 0.0914 -0.9529
vn -0.7698 0.0914 0.6317
vn 0.0976 0.0914 0.9910
vn 0.4694 0.0914 -0.8782
vn -0.8782 0.0914 0.4694
vn 0.6317 0.0914 -0.7698
vn -0.9529 0.0914 0.2891
vn 0.7698 0.0914 -0.6317
vn -0.9910 0.0914 0.0976
vn 0.8782 0.0914 -0.4694
vn -0.9910 0.0914 -0.0976
vn 0.9529 0.0914 -0.2891
vn -0.9529 0.0914 -0.2891
vn 0.9910 0.0914 -0.0976
vn -0.8782 0.0914 -0.4694
vn 0.9910 0.0914 0.0976
vt 1.000000 0.500000
vt 0.968750 0.500000
vt 0.968750 1.000000
vt 1.000000 1.000000
vt 0.937500 0.500000
vt 0.937500 1.000000
vt 0.906250 0.500000
vt 0.906250 1.000000
vt 0.875000 0.500000
vt 0.875000 1.000000
vt 0.843750 0.500000
vt 0.843750 1.000000
vt 0.812500 0.500000
vt 0.812500 1.000000
vt 0.781250 0.500000
vt 0.781250 1.000000
vt 0.750000 0.500000
vt 0.750000 1.000000
vt 0.718750 0.500000
vt 0.718750 1.000000
vt 0.687500 0.500000
vt 0.687500 1.000000
vt 0.656250 0.500000
vt 0.656250 1.000000
vt 0.625000 0.500000
vt 0.625000 1.000000
vt 0.593750 0.500000
vt 0.593750 1.000000
vt 0.562500 0.500000
vt 0.562500 1.000000
vt 0.531250 0.500000
vt 0.531250 1.000000
vt 0.500000 0.500000
vt 0.500000 1.000000
vt 0.468750 0.500000
vt 0.468750 1.000000
vt 0.437500 0.500000
vt 0.437500 1.000000
vt 0.406250 0.500000
vt 0.406250 1.000000
vt 0.375000 0.500000
vt 0.375000 1.000000
vt 0.343750 0.500000
vt 0.343750 1.000000
vt 0.312500 0.500000
vt 0.312500 1.000000
vt 0.281250 0.500000
vt 0.281250 1.000000
vt 0.250000 0.500000
vt 0.250000 1.000000
vt 0.218750 0.500000
vt 0.218750 1.000000
vt 0.187500 0.500000
vt 0.187500 1.000000
vt 0.156250 0.500000
vt 0.156250 1.000000
vt 0.125000 0.500000
vt 0.125000 1.000000
vt 0.093750 0.500000
vt 0.093750 1.000000
vt 0.062500 0.500000
vt 0.062500 1.000000
vt 0.296822 0.485388
vt 0.341844 0.471731
vt 0.383337 0.449553
vt 0.419706 0.419706
vt 0.449553 0.383337
vt 0.471731 0.341844
vt 0.485388 0.296822
vt 0.490000 0.250000
vt 0.485388 0.203178
vt 0.471731 0.158156
vt 0.449553 0.116663
vt 0.419706 0.080294
vt 0.383337 0.050447
vt 0.341844 0.028269
vt 0.296822 0.014612
vt 0.250000 0.010000
vt 0.203178 0.014612
vt 0.158156 0.028269
vt 0.116663 0.050447
vt 0.080294 0.080294
vt 0.050447 0.116663
vt 0.028269 0.158156
vt 0.014612 0.203178
vt 0.010000 0.250000
vt 0.014612 0.296822
vt 0.028269 0.341844
vt 0.050447 0.383337
vt 0.080294 0.419706
vt 0.116663 0.449553
vt 0.158156 0.471731
vt 0.203178 0.485388
vt 0.250000 0.490000
vt 0.031250 0.500000
vt 0.031250 1.000000
vt 0.000000 0.500000
vt 0.000000 1.000000
vt 0.750000 0.490000
vt 0.703178 0.485388
vt 0.658156 0.471731
vt 0.616663 0.449553
vt 0.580294 0.419706
vt 0.550447 0.383337
vt 0.528269 0.341844
vt 0.514612 0.296822
vt 0.510000 0.250000
vt 0.514612 0.203178
vt 0.528269 0.158156
vt 0.550447 0.116663
vt 0.580294 0.080294
vt 0.616663 0.050447
vt 0.658156 0.028269
vt 0.703178 0.014612
vt 0.750000 0.010000
vt 0.796822 0.014612
vt 0.841844 0.028269
vt 0.883337 0.050447
vt 0.919706 0.080294
vt 0.949553 0.116663
vt 0.971731 0.158156
vt 0.985388 0.203178
vt 0.990000 0.250000
vt 0.985388 0.296822
vt 0.971731 0.341844
vt 0.949553 0.383337
vt 0.919706 0.419706
vt 0.883337 0.449553
vt 0.841844 0.471731
vt 0.796822 0.485388
s 0
usemtl Material.002
f 1/1/1 2/4/1 4/3/1 3/2/1
f 3/2/2 4/3/2 6/6/2 5/5/2
f 5/5/3 6/6/3 8/8/3 7/7/3
f 7/7/4 8/8/4 10/10/4 9/9/4
f 9/9/5 10/10/5 12/12/5 11/11/5
f 11/11/6 12/12/6 14/14/6 13/13/6
f 13/13/7 14/14/7 16/16/7 15/15/7
f 15/15/8 16/16/8 18/18/8 17/17/8
f 17/17/9 18/18/9 20/20/9 19/19/9
f 19/19/10 20/20/10 22/22/10 21/21/10
f 21/21/11 22/22/11 24/24/11 23/23/11
f 23/23/12 24/24/12 26/26/12 25/25/12
f 25/25/13 26/26/13 28/28/13 27/27/13
f 27/27/14 28/28/14 30/30/14 29/29/14
f 29/29/15 30/30/15 32/32/15 31/31/15
f 31/31/16 32/32/16 34/34/16 33/33/16
f 33/33/17 34/34/17 36/36/17 35/35/17
f 35/35/18 36/36/18 38/38/18 37/37/18
f 37/37/19 38/38/19 40/40/19 39/39/19
f 39/39/20 40/40/20 42/42/20 41/41/20
f 41/41/21 42/42/21 44/44/21 43/43/21
f 43/43/22 44/44/22 46/46/22 45/45/22
f 45/45/23 46/46/23 48/48/23 47/47/23
f 47/47/24 48/48/24 50/50/24 49/49/24
f 49/49/25 50/50/25 52/52/25 51/51/25
f 51/51/26 52/52/26 54/54/26 53/53/26
f 53/53/27 54/54/27 56/56/27 55/55/27
f 55/55/28 56/56/28 58/58/28 57/57/28
f 57/57/29 58/58/29 60/60/29 59/59/29
f 59/59/30 60/60/30 62/62/30 61/61/30
f 4/63/31 2/94/31 64/93/31 62/92/31 60/91/31 58/90/31 56/89/31 54/88/31 52/87/31 50/86/31 48/85/31 46/84/31 44/83/31 42/82/31 40/81/31 38/80/31 36/79/31 34/78/31 32/77/31 30/76/31 28/75/31 26/74/31 24/73/31 22/72/31 20/71/31 18/70/31 16/69/31 14/68/31 12/67/31 10/66/31 8/65/31 6/64/31
f 61/61/32 62/62/32 64/96/32 63/95/32
f 63/95/33 64/96/33 2/98/33 1/97/33
f 1/99/34 3/130/34 5/129/34 7/128/34 9/127/34 11/126/34 13/125/34 15/124/34 17/123/34 19/122/34 21/121/34 23/120/34 25/119/34 27/118/34 29/117/34 31/116/34 33/115/34 35/114/34 37/113/34 39/112/34 41/111/34 43/110/34 45/109/34 47/108/34 49/107/34 51/106/34 53/105/34 55/104/34 57/103/34 59/102/34 61/101/34 63/100/34
f 65/1/17 67/2/17 68/3/17 66/4/17
f 67/2/18 69/5/18 70/6/18 68/3/18
f 69/5/19 71/7/19 72/8/19 70/6/19
f 71/7/20 73/9/20 74/10/20 72/8/20
f 73/9/21 75/11/21 76/12/21 74/10/21
f 75/11/22 77/13/22 78/14/22 76/12/22
f 77/13/23 79/15/23 80/16/23 78/14/23
f 79/15/24 81/17/24 82/18/24 80/16/24
f 81/17/25 83/19/25 84/20/25 82/18/25
f 83/19/26 85/21/26 86/22/26 84/20/26
f 85/21/27 87/23/27 88/24/27 86/22/27
f 87/23/28 89/25/28 90/26/28 88/24/28
f 89/25/29 91/27/29 92/28/29 90/26/29
f 91/27/30 93/29/30 94/30/30 92/28/30
f 93/29/32 95/31/32 96/32/32 94/30/32
f 95/31/33 97/33/33 98/34/33 96/32/33
f 97/33/1 99/35/1 100/36/1 98/34/1
f 99/35/2 101/37/2 102/38/2 100/36/2
f 101/37/3 103/39/3 104/40/3 102/38/3
f 103/39/4 105/41/4 106/42/4 104/40/4
f 105/41/5 107/43/5 108/44/5 106/42/5
f 107/43/6 109/45/6 110/46/6 108/44/6
f 109/45/7 111/47/7 112/48/7 110/46/7
f 111/47/8 113/49/8 114/50/8 112/48/8
f 113/49/9 115/51/9 116/52/9 114/50/9
f 115/51/10 117/53/10 118/54/10 116/52/10
f 117/53/11 119/55/11 120/56/11 118/54/11
f 119/55/12 121/57/12 122/58/12 120/56/12
f 121/57/13 123/59/13 124/60/13 122/58/13
f 123/59/14 125/61/14 126/62/14 124/60/14
f 68/63/34 70/64/34 72/65/34 74/66/34 76/67/34 78/68/34 80/69/34 82/70/34 84/71/34 86/72/34 88/73/34 90/74/34 92/75/34 94/76/34 96/77/34 98/78/34 100/79/34 102/80/34 104/81/34 106/82/34 108/83/34 110/84/34 112/85/34 114/86/34 116/87/34 118/88/34 120/89/34 122/90/34 124/91/34 126/92/34 128/93/34 66/94/34
f 125/61/15 127/95/15 128/96/15 126/62/15
f 127/95/16 65/97/16 66/98/16 128/96/16
f 79/15/34 136/15/34 137/17/34 81/17/34
f 137/17/35 169/17/35 170/19/35 138/19/35
f 97/33/34 145/33/34 146/35/34 99/35/34
f 115/51/34 154/51/34 155/53/34 117/53/34
f 71/7/34 132/7/34 133/9/34 73/9/34
f 89/25/34 141/25/34 142/27/34 91/27/34
f 107/43/34 150/43/34 151/45/34 109/45/34
f 125/61/34 159/61/34 160/95/34 127/95/34
f 81/17/34 137/17/34 138/19/34 83/19/34
f 99/35/34 146/35/34 147/37/34 101/37/34
f 117/53/34 155/53/34 156/55/34 119/55/34
f 73/9/34 133/9/34 134/11/34 75/11/34
f 91/27/34 142/27/34 143/29/34 93/29/34
f 109/45/34 151/45/34 152/47/34 111/47/34
f 65/1/34 129/1/34 130/2/34 67/2/34
f 127/95/34 160/95/34 129/97/34 65/97/34
f 83/19/34 138/19/34 139/21/34 85/21/34
f 101/37/34 147/37/34 148/39/34 103/39/34
f 119/55/34 156/55/34 157/57/34 121/57/34
f 75/11/34 134/11/34 135/13/34 77/13/34
f 93/29/34 143/29/34 144/31/34 95/31/34
f 111/47/34 152/47/34 153/49/34 113/49/34
f 67/2/34 130/2/34 131/5/34 69/5/34
f 85/21/34 139/21/34 140/23/34 87/23/34
f 103/39/34 148/39/34 149/41/34 105/41/34
f 121/57/34 157/57/34 158/59/34 123/59/34
f 77/13/34 135/13/34 136/15/34 79/15/34
f 95/31/34 144/31/34 145/33/34 97/33/34
f 113/49/34 153/49/34 154/51/34 115/51/34
f 69/5/34 131/5/34 132/7/34 71/7/34
f 87/23/34 140/23/34 141/25/34 89/25/34
f 105/41/34 149/41/34 150/43/34 107/43/34
f 123/59/34 158/59/34 159/61/34 125/61/34
f 172/23/36 204/23/36 205/25/36 173/25/36
f 151/45/37 183/45/37 184/47/37 152/47/37
f 138/19/38 170/19/38 171/21/38 139/21/38
f 152/47/39 184/47/39 185/49/39 153/49/39
f 139/21/40 171/21/40 172/23/40 140/23/40
f 153/49/41 185/49/41 186/51/41 154/51/41
f 140/23/42 172/23/42 173/25/42 141/25/42
f 154/51/43 186/51/43 187/53/43 155/53/43
f 141/25/44 173/25/44 174/27/44 142/27/44
f 155/53/45 187/53/45 188/55/45 156/55/45
f 142/27/46 174/27/46 175/29/46 143/29/46
f 129/1/47 161/1/47 162/2/47 130/2/47
f 156/55/48 188/55/48 189/57/48 157/57/48
f 143/29/49 175/29/49 176/31/49 144/31/49
f 130/2/50 162/2/50 163/5/50 131/5/50
f 157/57/51 189/57/51 190/59/51 158/59/51
f 144/31/52 176/31/52 177/33/52 145/33/52
f 131/5/53 163/5/53 164/7/53 132/7/53
f 158/59/54 190/59/54 191/61/54 159/61/54
f 145/33/55 177/33/55 178/35/55 146/35/55
f 132/7/56 164/7/56 165/9/56 133/9/56
f 159/61/57 191/61/57 192/95/57 160/95/57
f 146/35/58 178/35/58 179/37/58 147/37/58
f 133/9/59 165/9/59 166/11/59 134/11/59
f 160/95/60 192/95/60 161/97/60 129/97/60
f 147/37/61 179/37/61 180/39/61 148/39/61
f 134/11/62 166/11/62 167/13/62 135/13/62
f 148/39/63 180/39/63 181/41/63 149/41/63
f 135/13/64 167/13/64 168/15/64 136/15/64
f 149/41/65 181/41/65 182/43/65 150/43/65
f 136/15/66 168/15/66 169/17/66 137/17/66
f 150/43/67 182/43/67 183/45/67 151/45/67
f 207/29/32 239/29/32 240/31/32 208/31/32
f 186/51/68 218/51/68 219/53/68 187/53/68
f 173/25/69 205/25/69 206/27/69 174/27/69
f 187/53/70 219/53/70 220/55/70 188/55/70
f 174/27/71 206/27/71 207/29/71 175/29/71
f 161/1/72 193/1/72 194/2/72 162/2/72
f 188/55/73 220/55/73 221/57/73 189/57/73
f 175/29/74 207/29/74 208/31/74 176/31/74
f 162/2/75 194/2/75 195/5/75 163/5/75
f 189/57/76 221/57/76 222/59/76 190/59/76
f 176/31/77 208/31/77 209/33/77 177/33/77
f 163/5/78 195/5/78 196/7/78 164/7/78
f 190/59/79 222/59/79 223/61/79 191/61/79
f 177/33/80 209/33/80 210/35/80 178/35/80
f 164/7/81 196/7/81 197/9/81 165/9/81
f 191/61/82 223/61/82 224/95/82 192/95/82
f 178/35/83 210/35/83 211/37/83 179/37/83
f 165/9/84 197/9/84 198/11/84 166/11/84
f 192/95/85 224/95/85 193/97/85 161/97/85
f 179/37/86 211/37/86 212/39/86 180/39/86
f 166/11/87 198/11/87 199/13/87 167/13/87
f 180/39/88 212/39/88 213/41/88 181/41/88
f 167/13/89 199/13/89 200/15/89 168/15/89
f 181/41/90 213/41/90 214/43/90 182/43/90
f 168/15/91 200/15/91 201/17/91 169/17/91
f 182/43/92 214/43/92 215/45/92 183/45/92
f 169/17/93 201/17/93 202/19/93 170/19/93
f 183/45/94 215/45/94 216/47/94 184/47/94
f 170/19/95 202/19/95 203/21/95 171/21/95
f 184/47/96 216/47/96 217/49/96 185/49/96
f 171/21/97 203/21/97 204/23/97 172/23/97
f 185/49/98 217/49/98 218/51/98 186/51/98
f 225/99/31 256/100/31 255/101/31 254/102/31 253/103/31 252/104/31 251/105/31 250/106/31 249/107/31 248/108/31 247/109/31 246/110/31 245/111/31 244/112/31 243/113/31 242/114/31 241/115/31 240/116/31 239/117/31 238/118/31 237/119/31 236/120/31 235/121/31 234/122/31 233/123/31 232/124/31 231/125/31 230/126/31 229/127/31 228/128/31 227/129/31 226/130/31
f 194/2/18 226/2/18 227/5/18 195/5/18
f 221/57/13 253/57/13 254/59/13 222/59/13
f 208/31/33 240/31/33 241/33/33 209/33/33
f 195/5/19 227/5/19 228/7/19 196/7/19
f 222/59/14 254/59/14 255/61/14 223/61/14
f 209/33/1 241/33/1 242/35/1 210/35/1
f 196/7/20 228/7/20 229/9/20 197/9/20
f 223/61/15 255/61/15 256/95/15 224/95/15
f 210/35/2 242/35/2 243/37/2 211/37/2
f 197/9/21 229/9/21 230/11/21 198/11/21
f 224/95/16 256/95/16 225/97/16 193/97/16
f 211/37/3 243/37/3 244/39/3 212/39/3
f 198/11/22 230/11/22 231/13/22 199/13/22
f 212/39/4 244/39/4 245/41/4 213/41/4
f 199/13/23 231/13/23 232/15/23 200/15/23
f 213/41/5 245/41/5 246/43/5 214/43/5
f 200/15/24 232/15/24 233/17/24 201/17/24
f 214/43/6 246/43/6 247/45/6 215/45/6
f 201/17/25 233/17/25 234/19/25 202/19/25
f 215/45/7 247/45/7 248/47/7 216/47/7
f 202/19/26 234/19/26 235/21/26 203/21/26
f 216/47/8 248/47/8 249/49/8 217/49/8
f 203/21/27 235/21/27 236/23/27 204/23/27
f 217/49/9 249/49/9 250/51/9 218/51/9
f 204/23/28 236/23/28 237/25/28 205/25/28
f 218/51/10 250/51/10 251/53/10 219/53/10
f 205/25/29 237/25/29 238/27/29 206/27/29
f 219/53/11 251/53/11 252/55/11 220/55/11
f 206/27/30 238/27/30 239/29/30 207/29/30
f 193/1/17 225/1/17 226/2/17 194/2/17
f 220/55/12 252/55/12 253/57/12 221/57/12
o Icosphere
v 0.000000 -0.023205 0.000000
v 0.786985 0.577992 0.571771
v -0.300596 0.577991 0.925154
v -0.972765 0.577996 0.000000
v -0.300596 0.577991 -0.925154
v 0.786985 0.577992 -0.571771
v 0.300596 1.550771 0.925154
v -0.786985 1.550771 0.571771
v -0.786985 1.550771 -0.571771
v 0.300596 1.550771 -0.925154
v 0.972765 1.550767 0.000000
v 0.000000 2.151967 0.000000
v -0.176684 0.139222 0.543788
v 0.462575 0.139222 0.336076
v 0.285892 0.492597 0.879870
v 0.925153 0.492598 0.000000
v 0.462575 0.139222 -0.336076
v -0.571776 0.139225 0.000000
v -0.748465 0.492598 0.543790
v -0.176684 0.139222 -0.543788
v -0.748465 0.492598 -0.543790
v 0.285892 0.492597 -0.879870
v 1.034357 1.064381 0.336078
v 1.034357 1.064381 -0.336078
v 0.000000 1.064381 1.087586
v 0.639267 1.064381 0.879875
v -1.034357 1.064381 0.336078
v -0.639267 1.064381 0.879875
v -0.639267 1.064381 -0.879875
v -1.034357 1.064381 -0.336078
v 0.639267 1.064381 -0.879875
v 0.000000 1.064381 -1.087586
v 0.748465 1.636165 0.543790
v -0.285892 1.636166 0.879870
v -0.925153 1.636164 0.000000
v -0.285892 1.636166 -0.879870
v 0.748465 1.636165 -0.543790
v 0.176684 1.989541 0.543788
v 0.571776 1.989538 0.000000
v -0.462575 1.989541 0.336076
v -0.462575 1.989541 -0.336076
v 0.176684 1.989541 -0.543788
vn 0.1024 -0.9435 0.3151
vn 0.7002 -0.6617 0.2680
vn -0.2680 -0.9435 0.1947
vn -0.2680 -0.9435 -0.1947
vn 0.1024 -0.9435 -0.3151
vn 0.9050 -0.3304 0.2680
vn 0.0247 -0.3304 0.9435
vn -0.8897 -0.3304 0.3151
vn -0.5746 -0.3304 -0.7488
vn 0.5346 -0.3304 -0.7779
vn 0.8026 -0.1256 0.5831
vn -0.3066 -0.1256 0.9435
vn -0.9921 -0.1256 -0.0000
vn -0.3066 -0.1256 -0.9435
vn 0.8026 -0.1256 -0.5831
vn 0.4089 0.6617 0.6284
vn -0.4713 0.6617 0.5831
vn -0.7002 0.6617 -0.2680
vn 0.0385 0.6617 -0.7488
vn 0.7240 0.6617 -0.1947
vn 0.2680 0.9435 -0.1947
vn 0.4911 0.7947 -0.3568
vn 0.4089 0.6617 -0.6284
vn -0.1024 0.9435 -0.3151
vn -0.1876 0.7947 -0.5773
vn -0.4713 0.6617 -0.5831
vn -0.3313 0.9435 -0.0000
vn -0.6071 0.7947 -0.0000
vn -0.7002 0.6617 0.2680
vn -0.1024 0.9435 0.3151
vn -0.1876 0.7947 0.5773
vn 0.0385 0.6617 0.7488
vn 0.2680 0.9435 0.1947
vn 0.4911 0.7947 0.3568
vn 0.7240 0.6617 0.1947
vn 0.8897 0.3304 -0.3151
vn 0.7947 0.1876 -0.5773
vn 0.5746 0.3304 -0.7488
vn -0.0247 0.3304 -0.9435
vn -0.3035 0.1876 -0.9342
vn -0.5346 0.3304 -0.7779
vn -0.9050 0.3304 -0.2680
vn -0.9822 0.1876 -0.0000
vn -0.9050 0.3304 0.2680
vn -0.5346 0.3304 0.7779
vn -0.3035 0.1876 0.9342
vn -0.0247 0.3304 0.9435
vn 0.5746 0.3304 0.7488
vn 0.7947 0.1876 0.5773
vn 0.8897 0.3304 0.3151
vn 0.3066 0.1256 -0.9435
vn 0.3035 -0.1876 -0.9342
vn 0.0247 -0.3304 -0.9435
vn -0.8026 0.1256 -0.5831
vn -0.7947 -0.1876 -0.5773
vn -0.8897 -0.3304 -0.3151
vn -0.8026 0.1256 0.5831
vn -0.7947 -0.1876 0.5773
vn -0.5746 -0.3304 0.7488
vn 0.3066 0.1256 0.9435
vn 0.3035 -0.1876 0.9342
vn 0.5346 -0.3304 0.7779
vn 0.9921 0.1256 -0.0000
vn 0.9822 -0.1876 -0.0000
vn 0.9050 -0.3304 -0.2680
vn 0.4713 -0.6617 -0.5831
vn 0.1876 -0.7947 -0.5773
vn -0.0385 -0.6617 -0.7488
vn -0.4089 -0.6617 -0.6284
vn -0.4911 -0.7947 -0.3568
vn -0.7240 -0.6617 -0.1947
vn -0.7240 -0.6617 0.1947
vn -0.4911 -0.7947 0.3568
vn -0.4089 -0.6617 0.6284
vn 0.7002 -0.6617 -0.2680
vn 0.6071 -0.7947 -0.0000
vn 0.3313 -0.9435 -0.0000
vn -0.0385 -0.6617 0.7488
vn 0.1876 -0.7947 0.5773
vn 0.4713 -0.6617 0.5831
vt 0.181819 0.000000
vt 0.227273 0.078731
vt 0.136365 0.078731
vt 0.272728 0.157461
vt 0.318182 0.078731
vt 0.363637 0.157461
vt 0.909091 0.000000
vt 0.954545 0.078731
vt 0.863636 0.078731
vt 0.727273 0.000000
vt 0.772727 0.078731
vt 0.681818 0.078731
vt 0.545455 0.000000
vt 0.590909 0.078731
vt 0.500000 0.078731
vt 0.318182 0.236191
vt 0.090910 0.157461
vt 0.181819 0.157461
vt 0.136365 0.236191
vt 0.818182 0.157461
vt 0.909091 0.157461
vt 0.863636 0.236191
vt 0.636364 0.157461
vt 0.727273 0.157461
vt 0.681818 0.236191
vt 0.454546 0.157461
vt 0.545455 0.157461
vt 0.500000 0.236191
vt 0.227273 0.236191
vt 0.045455 0.236191
vt 0.772727 0.236191
vt 0.590909 0.236191
vt 0.409092 0.236191
vt 0.181819 0.314921
vt 0.272728 0.314921
vt 0.227273 0.393651
vt 0.000000 0.314921
vt 0.090910 0.314921
vt 0.045455 0.393651
vt 0.727273 0.314921
vt 0.818182 0.314921
vt 0.772727 0.393651
vt 0.545455 0.314921
vt 0.636364 0.314921
vt 0.590909 0.393651
vt 0.363637 0.314921
vt 0.454546 0.314921
vt 0.409092 0.393651
vt 0.500000 0.393651
vt 0.454546 0.472382
vt 0.681818 0.393651
vt 0.636364 0.472382
vt 0.863636 0.393651
vt 0.818182 0.472382
vt 0.909091 0.314921
vt 0.136365 0.393651
vt 0.090910 0.472382
vt 0.318182 0.393651
vt 0.272728 0.472382
vt 0.954545 0.236191
vt 1.000000 0.157461
vt 0.409092 0.078731
vt 0.363637 0.000000
s 0
usemtl Material.001
f 257/131/99 270/132/99 269/133/99
f 258/134/100 270/135/100 272/136/100
f 257/137/101 269/138/101 274/139/101
f 257/140/102 274/141/102 276/142/102
f 257/143/103 276/144/103 273/145/103
f 258/134/104 272/136/104 279/146/104
f 259/147/105 271/148/105 281/149/105
f 260/150/106 275/151/106 283/152/106
f 261/153/107 277/154/107 285/155/107
f 262/156/108 278/157/108 287/158/108
f 258/134/109 279/146/109 282/159/109
f 259/147/110 281/149/110 284/160/110
f 260/150/111 283/152/111 286/161/111
f 261/153/112 285/155/112 288/162/112
f 262/156/113 287/158/113 280/163/113
f 263/164/114 289/165/114 294/166/114
f 264/167/115 290/168/115 296/169/115
f 265/170/116 291/171/116 297/172/116
f 266/173/117 292/174/117 298/175/117
f 267/176/118 293/177/118 295/178/118
f 295/178/119 298/179/119 268/180/119
f 295/178/120 293/177/120 298/179/120
f 293/177/121 266/173/121 298/179/121
f 298/175/122 297/181/122 268/182/122
f 298/175/123 292/174/123 297/181/123
f 292/174/124 265/170/124 297/181/124
f 297/172/125 296/183/125 268/184/125
f 297/172/126 291/171/126 296/183/126
f 291/171/127 264/185/127 296/183/127
f 296/169/128 294/186/128 268/187/128
f 296/169/129 290/168/129 294/186/129
f 290/168/130 263/164/130 294/186/130
f 294/166/131 295/188/131 268/189/131
f 294/166/132 289/165/132 295/188/132
f 289/165/133 267/176/133 295/188/133
f 280/163/134 293/177/134 267/176/134
f 280/163/135 287/158/135 293/177/135
f 287/158/136 266/173/136 293/177/136
f 288/162/137 292/174/137 266/173/137
f 288/162/138 285/155/138 292/174/138
f 285/155/139 265/170/139 292/174/139
f 286/161/140 291/171/140 265/170/140
f 286/161/141 283/152/141 291/171/141
f 283/152/142 264/185/142 291/171/142
f 284/160/143 290/168/143 264/167/143
f 284/160/144 281/149/144 290/168/144
f 281/149/145 263/164/145 290/168/145
f 282/159/146 289/165/146 263/164/146
f 282/159/147 279/146/147 289/165/147
f 279/146/148 267/176/148 289/165/148
f 287/158/149 288/162/149 266/173/149
f 287/158/150 278/157/150 288/162/150
f 278/157/151 261/153/151 288/162/151
f 285/155/152 286/161/152 265/170/152
f 285/155/153 277/154/153 286/161/153
f 277/154/154 260/150/154 286/161/154
f 283/152/155 284/190/155 264/185/155
f 283/152/156 275/151/156 284/190/156
f 275/151/157 259/191/157 284/190/157
f 281/149/158 282/159/158 263/164/158
f 281/149/159 271/148/159 282/159/159
f 271/148/160 258/134/160 282/159/160
f 279/146/161 280/163/161 267/176/161
f 279/146/162 272/136/162 280/163/162
f 272/136/163 262/156/163 280/163/163
f 273/145/164 278/157/164 262/156/164
f 273/145/165 276/144/165 278/157/165
f 276/144/166 261/153/166 278/157/166
f 276/142/167 277/154/167 261/153/167
f 276/142/168 274/141/168 277/154/168
f 274/141/169 260/150/169 277/154/169
f 274/139/170 275/151/170 260/150/170
f 274/139/171 269/138/171 275/151/171
f 269/138/172 259/191/172 275/151/172
f 272/136/173 273/192/173 262/156/173
f 272/136/174 270/135/174 273/192/174
f 270/135/175 257/193/175 273/192/175
f 269/133/176 271/148/176 259/147/176
f 269/133/177 270/132/177 271/148/177
f 270/132/178 258/134/178 271/148/178
