# Blender 4.5.2 LTS
# www.blender.org
mtllib Rock.mtl
o Plane
v -1.000000 0.000000 1.000000
v 1.000000 0.000000 1.000000
v -1.000000 0.000000 -1.000000
v 1.000000 0.000000 -1.000000
v -0.219384 0.389387 -0.219384
v -0.219384 0.389387 0.219384
v 0.219384 0.389387 0.219384
v 0.219384 0.389387 -0.219384
v -0.219384 0.389387 -0.219384
v -0.219384 0.389387 0.219384
v 0.219384 0.389387 0.219384
v 0.219384 0.389387 -0.219384
vn -0.0000 -1.0000 -0.0000
vn -0.0000 1.0000 -0.0000
vn -0.0000 0.8948 0.4464
vn 0.4464 0.8948 -0.0000
vn -0.4464 0.8948 -0.0000
vn -0.0000 0.8948 -0.4464
vt 0.000000 0.000000
vt 0.000000 1.000000
vt 1.000000 1.000000
vt 1.000000 0.000000
s 0
usemtl Material.003
f 1/1/1 3/2/1 4/3/1 2/4/1
f 7/4/2 8/3/2 12/3/2 11/4/2
f 1/1/3 2/4/3 7/4/3 6/1/3
f 2/4/4 4/3/4 8/3/4 7/4/4
f 3/2/5 1/1/5 6/1/5 5/2/5
f 4/3/6 3/2/6 5/2/6 8/3/6
f 10/1/2 11/4/2 12/3/2 9/2/2
f 5/2/2 6/1/2 10/1/2 9/2/2
f 8/3/2 5/2/2 9/2/2 12/3/2
f 6/1/2 7/4/2 11/4/2 10/1/2
