# Blender 4.5.2 LTS
# www.blender.org
mtllib Bleedtower.mtl
o Cylinder
v 0.000000 -1.000000 -1.000000
v 0.000000 1.000000 -1.000000
v 0.195090 -1.000000 -0.980785
v 0.195090 1.000000 -0.980785
v 0.382683 -1.000000 -0.923880
v 0.382683 1.000000 -0.923880
v 0.555570 -1.000000 -0.831470
v 0.555570 1.000000 -0.831470
v 0.707107 -1.000000 -0.707107
v 0.707107 1.000000 -0.707107
v 0.831470 -1.000000 -0.555570
v 0.831470 1.000000 -0.555570
v 0.923880 -1.000000 -0.382683
v 0.923880 1.000000 -0.382683
v 0.980785 -1.000000 -0.195090
v 0.980785 1.000000 -0.195090
v 1.000000 -1.000000 0.000000
v 1.000000 1.000000 0.000000
v 0.980785 -1.000000 0.195090
v 0.980785 1.000000 0.195090
v 0.923880 -1.000000 0.382683
v 0.923880 1.000000 0.382683
v 0.831470 -1.000000 0.555570
v 0.831470 1.000000 0.555570
v 0.707107 -1.000000 0.707107
v 0.707107 1.000000 0.707107
v 0.555570 -1.000000 0.831470
v 0.555570 1.000000 0.831470
v 0.382683 -1.000000 0.923880
v 0.382683 1.000000 0.923880
v 0.195090 -1.000000 0.980785
v 0.195090 1.000000 0.980785
v 0.000000 -1.000000 1.000000
v 0.000000 1.000000 1.000000
v -0.195090 -1.000000 0.980785
v -0.195090 1.000000 0.980785
v -0.382683 -1.000000 0.923880
v -0.382683 1.000000 0.923880
v -0.555570 -1.000000 0.831470
v -0.555570 1.000000 0.831470
v -0.707107 -1.000000 0.707107
v -0.707107 1.000000 0.707107
v -0.831470 -1.000000 0.555570
v -0.831470 1.000000 0.555570
v -0.923880 -1.000000 0.382683
v -0.923880 1.000000 0.382683
v -0.980785 -1.000000 0.195090
v -0.980785 1.000000 0.195090
v -1.000000 -1.000000 0.000000
v -1.000000 1.000000 0.000000
v -0.980785 -1.000000 -0.195090
v -0.980785 1.000000 -0.195090
v -0.923880 -1.000000 -0.382683
v -0.923880 1.000000 -0.382683
v -0.831470 -1.000000 -0.555570
v -0.831470 1.000000 -0.555570
v -0.707107 -1.000000 -0.707107
v -0.707107 1.000000 -0.707107
v -0.555570 -1.000000 -0.831470
v -0.555570 1.000000 -0.831470
v -0.382683 -1.000000 -0.923880
v -0.382683 1.000000 -0.923880
v -0.195090 -1.000000 -0.980785
v -0.195090 1.000000 -0.980785
v 0.175089 2.307166 -0.880234
v 0.000000 2.307166 -0.897479
v 0.343450 2.307166 -0.829162
v 0.498613 2.307166 -0.746226
v 0.634613 2.307166 -0.634613
v 0.746226 2.307166 -0.498613
v 0.829162 2.307166 -0.343450
v 0.880234 2.307166 -0.175089
v 0.897479 2.307166 -0.000000
v 0.880234 2.307166 0.175089
v 0.829162 2.307166 0.343450
v 0.746226 2.307166 0.498613
v 0.634613 2.307166 0.634613
v 0.498613 2.307166 0.746226
v 0.343450 2.307166 0.829162
v 0.175089 2.307166 0.880234
v 0.000000 2.307166 0.897479
v -0.175089 2.307166 0.880234
v -0.343450 2.307166 0.829162
v -0.498613 2.307166 0.746226
v -0.634613 2.307166 0.634613
v -0.746226 2.307166 0.498613
v -0.829162 2.307166 0.343450
v -0.880234 2.307166 0.175089
v -0.897479 2.307166 -0.000000
v -0.880234 2.307166 -0.175089
v -0.829162 2.307166 -0.343450
v -0.746226 2.307166 -0.498613
v -0.634613 2.307166 -0.634613
v -0.498613 2.307166 -0.746226
v -0.343450 2.307166 -0.829162
v -0.175089 2.307166 -0.880234
v 0.138856 2.976167 -0.698077
v 0.000000 2.976167 -0.711753
v 0.272376 2.976167 -0.657574
v 0.395429 2.976167 -0.591801
v 0.503285 2.976167 -0.503285
v 0.591801 2.976167 -0.395429
v 0.657574 2.976167 -0.272376
v 0.698077 2.976167 -0.138856
v 0.711753 2.976167 -0.000000
v 0.698077 2.976167 0.138856
v 0.657574 2.976167 0.272376
v 0.591801 2.976167 0.395429
v 0.503285 2.976167 0.503285
v 0.395429 2.976167 0.591801
v 0.272376 2.976167 0.657574
v 0.138856 2.976167 0.698077
v 0.000000 2.976167 0.711753
v -0.138856 2.976167 0.698077
v -0.272376 2.976167 0.657574
v -0.395429 2.976167 0.591801
v -0.503285 2.976167 0.503285
v -0.591801 2.976167 0.395429
v -0.657574 2.976167 0.272376
v -0.698077 2.976167 0.138856
v -0.711753 2.976167 -0.000000
v -0.698077 2.976167 -0.138856
v -0.657574 2.976167 -0.272376
v -0.591801 2.976167 -0.395429
v -0.503285 2.976167 -0.503285
v -0.395429 2.976167 -0.591801
v -0.272376 2.976167 -0.657574
v -0.138856 2.976167 -0.698077
v 0.138856 3.678071 -0.698077
v 0.000000 3.678071 -0.711753
v 0.272376 3.678071 -0.657574
v 0.395429 3.678071 -0.591801
v 0.503285 3.678071 -0.503285
v 0.591801 3.678071 -0.395429
v 0.657574 3.678071 -0.272376
v 0.698077 3.678071 -0.138856
v 0.711753 3.678071 -0.000000
v 0.698077 3.678071 0.138856
v 0.657574 3.678071 0.272376
v 0.591801 3.678071 0.395429
v 0.503285 3.678071 0.503285
v 0.395429 3.678071 0.591801
v 0.272376 3.678071 0.657574
v 0.138856 3.678071 0.698077
v 0.000000 3.678071 0.711753
v -0.138856 3.678071 0.698077
v -0.272376 3.678071 0.657574
v -0.395429 3.678071 0.591801
v -0.503285 3.678071 0.503285
v -0.591801 3.678071 0.395429
v -0.657574 3.678071 0.272376
v -0.698077 3.678071 0.138856
v -0.711753 3.678071 -0.000000
v -0.698077 3.678071 -0.138856
v -0.657574 3.678071 -0.272376
v -0.591801 3.678071 -0.395429
v -0.503285 3.678071 -0.503285
v -0.395429 3.678071 -0.591801
v -0.272376 3.678071 -0.657574
v -0.138856 3.678071 -0.698077
v 0.094491 4.423735 -0.475039
v 0.000000 4.423735 -0.484345
v 0.185351 4.423735 -0.447477
v 0.269088 4.423735 -0.402718
v 0.342484 4.423735 -0.342484
v 0.402718 4.423735 -0.269088
v 0.447477 4.423735 -0.185351
v 0.475039 4.423735 -0.094491
v 0.484345 4.423735 0.000000
v 0.475039 4.423735 0.094491
v 0.447477 4.423735 0.185351
v 0.402718 4.423735 0.269088
v 0.342484 4.423735 0.342484
v 0.269088 4.423735 0.402718
v 0.185351 4.423735 0.447477
v 0.094491 4.423735 0.475039
v 0.000000 4.423735 0.484345
v -0.094491 4.423735 0.475039
v -0.185351 4.423735 0.447477
v -0.269088 4.423735 0.402718
v -0.342484 4.423735 0.342484
v -0.402718 4.423735 0.269088
v -0.447476 4.423735 0.185351
v -0.475038 4.423735 0.094491
v -0.484345 4.423735 0.000000
v -0.475038 4.423735 -0.094491
v -0.447476 4.423735 -0.185351
v -0.402718 4.423735 -0.269088
v -0.342484 4.423735 -0.342484
v -0.269088 4.423735 -0.402718
v -0.185351 4.423735 -0.447477
v -0.094491 4.423735 -0.475039
v 0.094491 4.511721 -0.475039
v 0.000000 4.511721 -0.484345
v 0.185351 4.511721 -0.447477
v 0.269088 4.511721 -0.402718
v 0.342484 4.511721 -0.342484
v 0.402718 4.511721 -0.269088
v 0.447477 4.511721 -0.185351
v 0.475039 4.511721 -0.094491
v 0.484345 4.511721 0.000000
v 0.475039 4.511721 0.094491
v 0.447477 4.511721 0.185351
v 0.402718 4.511721 0.269088
v 0.342484 4.511721 0.342484
v 0.269088 4.511721 0.402718
v 0.185351 4.511721 0.447477
v 0.094491 4.511721 0.475039
v 0.000000 4.511721 0.484345
v -0.094491 4.511721 0.475039
v -0.185351 4.511721 0.447477
v -0.269088 4.511721 0.402718
v -0.342484 4.511721 0.342484
v -0.402718 4.511721 0.269088
v -0.447476 4.511721 0.185351
v -0.475038 4.511721 0.094491
v -0.484345 4.511721 0.000000
v -0.475038 4.511721 -0.094491
v -0.447476 4.511721 -0.185351
v -0.402718 4.511721 -0.269088
v -0.342484 4.511721 -0.342484
v -0.269088 4.511721 -0.402718
v -0.185351 4.511721 -0.447477
v -0.094491 4.511721 -0.475039
v 0.064239 4.511720 -0.322950
v 0.000000 4.511720 -0.329277
v 0.126009 4.511720 -0.304212
v 0.182937 4.511720 -0.273784
v 0.232834 4.511720 -0.232834
v 0.273784 4.511720 -0.182937
v 0.304212 4.511720 -0.126009
v 0.322950 4.511720 -0.064239
v 0.329277 4.511720 0.000000
v 0.322950 4.511720 0.064239
v 0.304212 4.511720 0.126009
v 0.273784 4.511720 0.182937
v 0.232834 4.511720 0.232834
v 0.182937 4.511720 0.273784
v 0.126009 4.511720 0.304212
v 0.064239 4.511720 0.322950
v 0.000000 4.511720 0.329277
v -0.064239 4.511720 0.322950
v -0.126009 4.511720 0.304212
v -0.182936 4.511720 0.273784
v -0.232834 4.511720 0.232834
v -0.273784 4.511720 0.182937
v -0.304212 4.511720 0.126009
v -0.322950 4.511720 0.064239
v -0.329277 4.511720 0.000000
v -0.322950 4.511720 -0.064239
v -0.304212 4.511720 -0.126009
v -0.273784 4.511720 -0.182937
v -0.232834 4.511720 -0.232834
v -0.182936 4.511720 -0.273784
v -0.126009 4.511720 -0.304212
v -0.064239 4.511720 -0.322950
v 0.064239 2.940346 -0.322950
v 0.000001 2.940346 -0.329277
v 0.126009 2.940346 -0.304212
v 0.182937 2.940346 -0.273784
v 0.232835 2.940346 -0.232834
v 0.273784 2.940346 -0.182937
v 0.304213 2.940346 -0.126009
v 0.322951 2.940346 -0.064239
v 0.329278 2.940346 0.000000
v 0.322951 2.940346 0.064239
v 0.304213 2.940346 0.126009
v 0.273784 2.940346 0.182937
v 0.232835 2.940346 0.232834
v 0.182937 2.940346 0.273784
v 0.126009 2.940346 0.304212
v 0.064239 2.940346 0.322950
v 0.000001 2.940346 0.329277
v -0.064238 2.940346 0.322950
v -0.126008 2.940346 0.304212
v -0.182936 2.940346 0.273784
v -0.232833 2.940346 0.232834
v -0.273783 2.940346 0.182937
v -0.304212 2.940346 0.126009
v -0.322950 2.940346 0.064239
v -0.329276 2.940346 0.000000
v -0.322950 2.940346 -0.064239
v -0.304212 2.940346 -0.126009
v -0.273783 2.940346 -0.182937
v -0.232833 2.940346 -0.232834
v -0.182936 2.940346 -0.273784
v -0.126008 2.940346 -0.304212
v -0.064238 2.940346 -0.322950
vn 0.0980 -0.0000 -0.9952
vn 0.2903 -0.0000 -0.9569
vn 0.4714 -0.0000 -0.8819
vn 0.6344 -0.0000 -0.7730
vn 0.7730 -0.0000 -0.6344
vn 0.8819 -0.0000 -0.4714
vn 0.9569 -0.0000 -0.2903
vn 0.9952 -0.0000 -0.0980
vn 0.9952 -0.0000 0.0980
vn 0.9569 -0.0000 0.2903
vn 0.8819 -0.0000 0.4714
vn 0.7730 -0.0000 0.6344
vn 0.6344 -0.0000 0.7730
vn 0.4714 -0.0000 0.8819
vn 0.2903 -0.0000 0.9569
vn 0.0980 -0.0000 0.9952
vn -0.0980 -0.0000 0.9952
vn -0.2903 -0.0000 0.9569
vn -0.4714 -0.0000 0.8819
vn -0.6344 -0.0000 0.7730
vn -0.7730 -0.0000 0.6344
vn -0.8819 -0.0000 0.4714
vn -0.9569 -0.0000 0.2903
vn -0.9952 -0.0000 0.0980
vn -0.9952 -0.0000 -0.0980
vn -0.9569 -0.0000 -0.2903
vn -0.8819 -0.0000 -0.4714
vn -0.7730 -0.0000 -0.6344
vn -0.6344 -0.0000 -0.7730
vn -0.4714 -0.0000 -0.8819
vn -0.6325 0.0778 -0.7707
vn -0.2903 -0.0000 -0.9569
vn -0.0980 -0.0000 -0.9952
vn -0.0000 -1.0000 -0.0000
vn -0.2798 0.2663 0.9224
vn 0.9540 0.0778 -0.2894
vn 0.0977 0.0778 0.9922
vn -0.9922 0.0778 -0.0977
vn 0.4700 0.0778 -0.8792
vn 0.7707 0.0778 0.6325
vn -0.7707 0.0778 0.6325
vn -0.4700 0.0778 -0.8792
vn 0.9922 0.0778 -0.0977
vn -0.0977 0.0778 0.9922
vn -0.9540 0.0778 -0.2894
vn 0.6325 0.0778 -0.7707
vn 0.6325 0.0778 0.7707
vn -0.8792 0.0778 0.4700
vn -0.2894 0.0778 -0.9540
vn 0.9922 0.0778 0.0977
vn -0.2894 0.0778 0.9540
vn -0.8792 0.0778 -0.4700
vn 0.7707 0.0778 -0.6325
vn 0.4700 0.0778 0.8792
vn -0.9540 0.0778 0.2894
vn 0.0977 0.0778 -0.9922
vn -0.0977 0.0778 -0.9922
vn 0.9540 0.0778 0.2894
vn -0.4700 0.0778 0.8792
vn -0.7707 0.0778 -0.6325
vn 0.8792 0.0778 -0.4700
vn 0.2894 0.0778 0.9540
vn -0.9922 0.0778 0.0977
vn 0.2894 0.0778 -0.9540
vn 0.8792 0.0778 0.4700
vn -0.6325 0.0778 0.7707
vn 0.7451 0.2663 -0.6115
vn -0.0945 0.2663 -0.9592
vn -0.4544 0.2663 0.8501
vn 0.8501 0.2663 -0.4544
vn -0.6115 0.2663 0.7451
vn 0.9224 0.2663 -0.2798
vn -0.7451 0.2663 0.6115
vn 0.9592 0.2663 -0.0945
vn -0.8501 0.2663 0.4544
vn 0.9592 0.2663 0.0945
vn -0.9224 0.2663 0.2798
vn 0.9224 0.2663 0.2798
vn -0.9592 0.2663 0.0945
vn 0.8501 0.2663 0.4544
vn -0.9592 0.2663 -0.0945
vn 0.7451 0.2663 0.6115
vn -0.9224 0.2663 -0.2798
vn 0.6115 0.2663 0.7451
vn -0.8501 0.2663 -0.4544
vn 0.4544 0.2663 0.8501
vn 0.0945 0.2663 -0.9592
vn -0.7451 0.2663 -0.6115
vn 0.2798 0.2663 0.9224
vn 0.2798 0.2663 -0.9224
vn -0.6115 0.2663 -0.7451
vn 0.0945 0.2663 0.9592
vn 0.4544 0.2663 -0.8501
vn -0.4544 0.2663 -0.8501
vn -0.0945 0.2663 0.9592
vn 0.6115 0.2663 -0.7451
vn -0.2798 0.2663 -0.9224
vn -0.9523 0.2904 0.0938
vn 0.8439 0.2904 0.4511
vn -0.9523 0.2904 -0.0938
vn 0.7397 0.2904 0.6070
vn -0.9157 0.2904 -0.2778
vn 0.6070 0.2904 0.7397
vn -0.8439 0.2904 -0.4511
vn 0.4511 0.2904 0.8439
vn 0.0938 0.2904 -0.9523
vn -0.7397 0.2904 -0.6070
vn 0.2778 0.2904 0.9157
vn 0.2778 0.2904 -0.9157
vn -0.6071 0.2904 -0.7397
vn 0.0938 0.2904 0.9523
vn 0.4511 0.2904 -0.8439
vn -0.4511 0.2904 -0.8439
vn -0.0938 0.2904 0.9523
vn 0.6071 0.2904 -0.7397
vn -0.2778 0.2904 -0.9157
vn -0.2778 0.2904 0.9157
vn 0.7397 0.2904 -0.6070
vn -0.0938 0.2904 -0.9523
vn -0.4511 0.2904 0.8439
vn 0.8439 0.2904 -0.4511
vn -0.6071 0.2904 0.7397
vn 0.9157 0.2904 -0.2778
vn -0.7397 0.2904 0.6070
vn 0.9523 0.2904 -0.0938
vn -0.8439 0.2904 0.4511
vn 0.9523 0.2904 0.0938
vn -0.9157 0.2904 0.2778
vn 0.9157 0.2904 0.2778
vn -0.0000 1.0000 -0.0000
vt 1.000000 0.500000
vt 1.000000 1.000000
vt 0.968750 1.000000
vt 0.968750 0.500000
vt 0.937500 1.000000
vt 0.937500 0.500000
vt 0.906250 1.000000
vt 0.906250 0.500000
vt 0.875000 1.000000
vt 0.875000 0.500000
vt 0.843750 1.000000
vt 0.843750 0.500000
vt 0.812500 1.000000
vt 0.812500 0.500000
vt 0.781250 1.000000
vt 0.781250 0.500000
vt 0.750000 1.000000
vt 0.750000 0.500000
vt 0.718750 1.000000
vt 0.718750 0.500000
vt 0.687500 1.000000
vt 0.687500 0.500000
vt 0.656250 1.000000
vt 0.656250 0.500000
vt 0.625000 1.000000
vt 0.625000 0.500000
vt 0.593750 1.000000
vt 0.593750 0.500000
vt 0.562500 1.000000
vt 0.562500 0.500000
vt 0.531250 1.000000
vt 0.531250 0.500000
vt 0.500000 1.000000
vt 0.500000 0.500000
vt 0.468750 1.000000
vt 0.468750 0.500000
vt 0.437500 1.000000
vt 0.437500 0.500000
vt 0.406250 1.000000
vt 0.406250 0.500000
vt 0.375000 1.000000
vt 0.375000 0.500000
vt 0.343750 1.000000
vt 0.343750 0.500000
vt 0.312500 1.000000
vt 0.312500 0.500000
vt 0.281250 1.000000
vt 0.281250 0.500000
vt 0.250000 1.000000
vt 0.250000 0.500000
vt 0.218750 1.000000
vt 0.218750 0.500000
vt 0.187500 1.000000
vt 0.187500 0.500000
vt 0.156250 1.000000
vt 0.156250 0.500000
vt 0.125000 1.000000
vt 0.125000 0.500000
vt 0.093750 1.000000
vt 0.093750 0.500000
vt 0.062500 1.000000
vt 0.062500 0.500000
vt 0.031250 1.000000
vt 0.031250 0.500000
vt 0.000000 1.000000
vt 0.000000 0.500000
vt 0.750000 0.490000
vt 0.796822 0.485388
vt 0.841844 0.471731
vt 0.883337 0.449553
vt 0.919706 0.419706
vt 0.949553 0.383337
vt 0.971731 0.341844
vt 0.985388 0.296822
vt 0.990000 0.250000
vt 0.985388 0.203178
vt 0.971731 0.158156
vt 0.949553 0.116663
vt 0.919706 0.080294
vt 0.883337 0.050447
vt 0.841844 0.028269
vt 0.796822 0.014612
vt 0.750000 0.010000
vt 0.703178 0.014612
vt 0.658156 0.028269
vt 0.616663 0.050447
vt 0.580294 0.080294
vt 0.550447 0.116663
vt 0.528269 0.158156
vt 0.514612 0.203178
vt 0.510000 0.250000
vt 0.514612 0.296822
vt 0.528269 0.341844
vt 0.550447 0.383337
vt 0.580294 0.419706
vt 0.616663 0.449553
vt 0.658156 0.471731
vt 0.703178 0.485388
vt 0.296822 0.485388
vt 0.250000 0.490000
vt 0.203178 0.485388
vt 0.158156 0.471731
vt 0.116663 0.449553
vt 0.080294 0.419706
vt 0.050447 0.383337
vt 0.028269 0.341844
vt 0.014612 0.296822
vt 0.010000 0.250000
vt 0.014612 0.203178
vt 0.028269 0.158156
vt 0.050447 0.116663
vt 0.080294 0.080294
vt 0.116663 0.050447
vt 0.158156 0.028269
vt 0.203178 0.014612
vt 0.250000 0.010000
vt 0.296822 0.014612
vt 0.341844 0.028269
vt 0.383337 0.050447
vt 0.419706 0.080294
vt 0.449553 0.116663
vt 0.471731 0.158156
vt 0.485388 0.203178
vt 0.490000 0.250000
vt 0.485388 0.296822
vt 0.471731 0.341844
vt 0.449553 0.383337
vt 0.419706 0.419706
vt 0.383337 0.449553
vt 0.341844 0.471731
s 0
usemtl Material.001
f 1/1/1 2/2/1 4/3/1 3/4/1
f 3/4/2 4/3/2 6/5/2 5/6/2
f 5/6/3 6/5/3 8/7/3 7/8/3
f 7/8/4 8/7/4 10/9/4 9/10/4
f 9/10/5 10/9/5 12/11/5 11/12/5
f 11/12/6 12/11/6 14/13/6 13/14/6
f 13/14/7 14/13/7 16/15/7 15/16/7
f 15/16/8 16/15/8 18/17/8 17/18/8
f 17/18/9 18/17/9 20/19/9 19/20/9
f 19/20/10 20/19/10 22/21/10 21/22/10
f 21/22/11 22/21/11 24/23/11 23/24/11
f 23/24/12 24/23/12 26/25/12 25/26/12
f 25/26/13 26/25/13 28/27/13 27/28/13
f 27/28/14 28/27/14 30/29/14 29/30/14
f 29/30/15 30/29/15 32/31/15 31/32/15
f 31/32/16 32/31/16 34/33/16 33/34/16
f 33/34/17 34/33/17 36/35/17 35/36/17
f 35/36/18 36/35/18 38/37/18 37/38/18
f 37/38/19 38/37/19 40/39/19 39/40/19
f 39/40/20 40/39/20 42/41/20 41/42/20
f 41/42/21 42/41/21 44/43/21 43/44/21
f 43/44/22 44/43/22 46/45/22 45/46/22
f 45/46/23 46/45/23 48/47/23 47/48/23
f 47/48/24 48/47/24 50/49/24 49/50/24
f 49/50/25 50/49/25 52/51/25 51/52/25
f 51/52/26 52/51/26 54/53/26 53/54/26
f 53/54/27 54/53/27 56/55/27 55/56/27
f 55/56/28 56/55/28 58/57/28 57/58/28
f 57/58/29 58/57/29 60/59/29 59/60/29
f 59/60/30 60/59/30 62/61/30 61/62/30
f 60/59/31 58/57/31 93/57/31 94/59/31
f 61/62/32 62/61/32 64/63/32 63/64/32
f 63/64/33 64/63/33 2/65/33 1/66/33
f 1/67/34 3/68/34 5/69/34 7/70/34 9/71/34 11/72/34 13/73/34 15/74/34 17/75/34 19/76/34 21/77/34 23/78/34 25/79/34 27/80/34 29/81/34 31/82/34 33/83/34 35/84/34 37/85/34 39/86/34 41/87/34 43/88/34 45/89/34 47/90/34 49/91/34 51/92/34 53/93/34 55/94/34 57/95/34 59/96/34 61/97/34 63/98/34
f 83/37/35 82/35/35 114/35/35 115/37/35
f 16/15/36 14/13/36 71/13/36 72/15/36
f 34/33/37 32/31/37 80/31/37 81/33/37
f 52/51/38 50/49/38 89/49/38 90/51/38
f 8/7/39 6/5/39 67/5/39 68/7/39
f 26/25/40 24/23/40 76/23/40 77/25/40
f 44/43/41 42/41/41 85/41/41 86/43/41
f 62/61/42 60/59/42 94/59/42 95/61/42
f 18/17/43 16/15/43 72/15/43 73/17/43
f 36/35/44 34/33/44 81/33/44 82/35/44
f 54/53/45 52/51/45 90/51/45 91/53/45
f 10/9/46 8/7/46 68/7/46 69/9/46
f 28/27/47 26/25/47 77/25/47 78/27/47
f 46/45/48 44/43/48 86/43/48 87/45/48
f 64/63/49 62/61/49 95/61/49 96/63/49
f 20/19/50 18/17/50 73/17/50 74/19/50
f 38/37/51 36/35/51 82/35/51 83/37/51
f 56/55/52 54/53/52 91/53/52 92/55/52
f 12/11/53 10/9/53 69/9/53 70/11/53
f 30/29/54 28/27/54 78/27/54 79/29/54
f 48/47/55 46/45/55 87/45/55 88/47/55
f 4/3/56 2/2/56 66/2/56 65/3/56
f 2/65/57 64/63/57 96/63/57 66/65/57
f 22/21/58 20/19/58 74/19/58 75/21/58
f 40/39/59 38/37/59 83/37/59 84/39/59
f 58/57/60 56/55/60 92/55/60 93/57/60
f 14/13/61 12/11/61 70/11/61 71/13/61
f 32/31/62 30/29/62 79/29/62 80/31/62
f 50/49/63 48/47/63 88/47/63 89/49/63
f 6/5/64 4/3/64 65/3/64 67/5/64
f 24/23/65 22/21/65 75/21/65 76/23/65
f 42/41/66 40/39/66 84/39/66 85/41/66
f 118/43/21 117/41/21 149/41/21 150/43/21
f 70/11/67 69/9/67 101/9/67 102/11/67
f 66/65/68 96/63/68 128/63/68 98/65/68
f 84/39/69 83/37/69 115/37/69 116/39/69
f 71/13/70 70/11/70 102/11/70 103/13/70
f 85/41/71 84/39/71 116/39/71 117/41/71
f 72/15/72 71/13/72 103/13/72 104/15/72
f 86/43/73 85/41/73 117/41/73 118/43/73
f 73/17/74 72/15/74 104/15/74 105/17/74
f 87/45/75 86/43/75 118/43/75 119/45/75
f 74/19/76 73/17/76 105/17/76 106/19/76
f 88/47/77 87/45/77 119/45/77 120/47/77
f 75/21/78 74/19/78 106/19/78 107/21/78
f 89/49/79 88/47/79 120/47/79 121/49/79
f 76/23/80 75/21/80 107/21/80 108/23/80
f 90/51/81 89/49/81 121/49/81 122/51/81
f 77/25/82 76/23/82 108/23/82 109/25/82
f 91/53/83 90/51/83 122/51/83 123/53/83
f 78/27/84 77/25/84 109/25/84 110/27/84
f 92/55/85 91/53/85 123/53/85 124/55/85
f 79/29/86 78/27/86 110/27/86 111/29/86
f 65/3/87 66/2/87 98/2/87 97/3/87
f 93/57/88 92/55/88 124/55/88 125/57/88
f 80/31/89 79/29/89 111/29/89 112/31/89
f 67/5/90 65/3/90 97/3/90 99/5/90
f 94/59/91 93/57/91 125/57/91 126/59/91
f 81/33/92 80/31/92 112/31/92 113/33/92
f 68/7/93 67/5/93 99/5/93 100/7/93
f 95/61/94 94/59/94 126/59/94 127/61/94
f 82/35/95 81/33/95 113/33/95 114/35/95
f 69/9/96 68/7/96 100/7/96 101/9/96
f 96/63/97 95/61/97 127/61/97 128/63/97
f 153/49/98 152/47/98 184/47/98 185/49/98
f 105/17/8 104/15/8 136/15/8 137/17/8
f 119/45/22 118/43/22 150/43/22 151/45/22
f 106/19/9 105/17/9 137/17/9 138/19/9
f 120/47/23 119/45/23 151/45/23 152/47/23
f 107/21/10 106/19/10 138/19/10 139/21/10
f 121/49/24 120/47/24 152/47/24 153/49/24
f 108/23/11 107/21/11 139/21/11 140/23/11
f 122/51/25 121/49/25 153/49/25 154/51/25
f 109/25/12 108/23/12 140/23/12 141/25/12
f 123/53/26 122/51/26 154/51/26 155/53/26
f 110/27/13 109/25/13 141/25/13 142/27/13
f 124/55/27 123/53/27 155/53/27 156/55/27
f 111/29/14 110/27/14 142/27/14 143/29/14
f 97/3/1 98/2/1 130/2/1 129/3/1
f 125/57/28 124/55/28 156/55/28 157/57/28
f 112/31/15 111/29/15 143/29/15 144/31/15
f 99/5/2 97/3/2 129/3/2 131/5/2
f 126/59/29 125/57/29 157/57/29 158/59/29
f 113/33/16 112/31/16 144/31/16 145/33/16
f 100/7/3 99/5/3 131/5/3 132/7/3
f 127/61/30 126/59/30 158/59/30 159/61/30
f 114/35/17 113/33/17 145/33/17 146/35/17
f 101/9/4 100/7/4 132/7/4 133/9/4
f 128/63/32 127/61/32 159/61/32 160/63/32
f 115/37/18 114/35/18 146/35/18 147/37/18
f 102/11/5 101/9/5 133/9/5 134/11/5
f 98/65/33 128/63/33 160/63/33 130/65/33
f 116/39/19 115/37/19 147/37/19 148/39/19
f 103/13/6 102/11/6 134/11/6 135/13/6
f 117/41/20 116/39/20 148/39/20 149/41/20
f 104/15/7 103/13/7 135/13/7 136/15/7
f 188/55/27 187/53/27 219/53/27 220/55/27
f 140/23/99 139/21/99 171/21/99 172/23/99
f 154/51/100 153/49/100 185/49/100 186/51/100
f 141/25/101 140/23/101 172/23/101 173/25/101
f 155/53/102 154/51/102 186/51/102 187/53/102
f 142/27/103 141/25/103 173/25/103 174/27/103
f 156/55/104 155/53/104 187/53/104 188/55/104
f 143/29/105 142/27/105 174/27/105 175/29/105
f 129/3/106 130/2/106 162/2/106 161/3/106
f 157/57/107 156/55/107 188/55/107 189/57/107
f 144/31/108 143/29/108 175/29/108 176/31/108
f 131/5/109 129/3/109 161/3/109 163/5/109
f 158/59/110 157/57/110 189/57/110 190/59/110
f 145/33/111 144/31/111 176/31/111 177/33/111
f 132/7/112 131/5/112 163/5/112 164/7/112
f 159/61/113 158/59/113 190/59/113 191/61/113
f 146/35/114 145/33/114 177/33/114 178/35/114
f 133/9/115 132/7/115 164/7/115 165/9/115
f 160/63/116 159/61/116 191/61/116 192/63/116
f 147/37/117 146/35/117 178/35/117 179/37/117
f 134/11/118 133/9/118 165/9/118 166/11/118
f 130/65/119 160/63/119 192/63/119 162/65/119
f 148/39/120 147/37/120 179/37/120 180/39/120
f 135/13/121 134/11/121 166/11/121 167/13/121
f 149/41/122 148/39/122 180/39/122 181/41/122
f 136/15/123 135/13/123 167/13/123 168/15/123
f 150/43/124 149/41/124 181/41/124 182/43/124
f 137/17/125 136/15/125 168/15/125 169/17/125
f 151/45/126 150/43/126 182/43/126 183/45/126
f 138/19/127 137/17/127 169/17/127 170/19/127
f 152/47/128 151/45/128 183/45/128 184/47/128
f 139/21/129 138/19/129 170/19/129 171/21/129
f 196/7/130 195/5/130 227/5/130 228/7/130
f 175/29/14 174/27/14 206/27/14 207/29/14
f 161/3/1 162/2/1 194/2/1 193/3/1
f 189/57/28 188/55/28 220/55/28 221/57/28
f 176/31/15 175/29/15 207/29/15 208/31/15
f 163/5/2 161/3/2 193/3/2 195/5/2
f 190/59/29 189/57/29 221/57/29 222/59/29
f 177/33/16 176/31/16 208/31/16 209/33/16
f 164/7/3 163/5/3 195/5/3 196/7/3
f 191/61/30 190/59/30 222/59/30 223/61/30
f 178/35/17 177/33/17 209/33/17 210/35/17
f 165/9/4 164/7/4 196/7/4 197/9/4
f 192/63/32 191/61/32 223/61/32 224/63/32
f 179/37/18 178/35/18 210/35/18 211/37/18
f 166/11/5 165/9/5 197/9/5 198/11/5
f 162/65/33 192/63/33 224/63/33 194/65/33
f 180/39/19 179/37/19 211/37/19 212/39/19
f 167/13/6 166/11/6 198/11/6 199/13/6
f 181/41/20 180/39/20 212/39/20 213/41/20
f 168/15/7 167/13/7 199/13/7 200/15/7
f 182/43/21 181/41/21 213/41/21 214/43/21
f 169/17/8 168/15/8 200/15/8 201/17/8
f 183/45/22 182/43/22 214/43/22 215/45/22
f 170/19/9 169/17/9 201/17/9 202/19/9
f 184/47/23 183/45/23 215/45/23 216/47/23
f 171/21/10 170/19/10 202/19/10 203/21/10
f 185/49/24 184/47/24 216/47/24 217/49/24
f 172/23/11 171/21/11 203/21/11 204/23/11
f 186/51/25 185/49/25 217/49/25 218/51/25
f 173/25/12 172/23/12 204/23/12 205/25/12
f 187/53/26 186/51/26 218/51/26 219/53/26
f 174/27/13 173/25/13 205/25/13 206/27/13
f 231/13/22 230/11/22 262/11/22 263/13/22
f 223/61/130 222/59/130 254/59/130 255/61/130
f 210/35/130 209/33/130 241/33/130 242/35/130
f 197/9/130 196/7/130 228/7/130 229/9/130
f 224/63/130 223/61/130 255/61/130 256/63/130
f 211/37/130 210/35/130 242/35/130 243/37/130
f 198/11/130 197/9/130 229/9/130 230/11/130
f 194/65/130 224/63/130 256/63/130 226/65/130
f 212/39/130 211/37/130 243/37/130 244/39/130
f 199/13/130 198/11/130 230/11/130 231/13/130
f 213/41/130 212/39/130 244/39/130 245/41/130
f 200/15/130 199/13/130 231/13/130 232/15/130
f 214/43/130 213/41/130 245/41/130 246/43/130
f 201/17/130 200/15/130 232/15/130 233/17/130
f 215/45/130 214/43/130 246/43/130 247/45/130
f 202/19/130 201/17/130 233/17/130 234/19/130
f 216/47/130 215/45/130 247/45/130 248/47/130
f 203/21/130 202/19/130 234/19/130 235/21/130
f 217/49/130 216/47/130 248/47/130 249/49/130
f 204/23/130 203/21/130 235/21/130 236/23/130
f 218/51/130 217/49/130 249/49/130 250/51/130
f 205/25/130 204/23/130 236/23/130 237/25/130
f 219/53/130 218/51/130 250/51/130 251/53/130
f 206/27/130 205/25/130 237/25/130 238/27/130
f 220/55/130 219/53/130 251/53/130 252/55/130
f 207/29/130 206/27/130 238/27/130 239/29/130
f 193/3/130 194/2/130 226/2/130 225/3/130
f 221/57/130 220/55/130 252/55/130 253/57/130
f 208/31/130 207/29/130 239/29/130 240/31/130
f 195/5/130 193/3/130 225/3/130 227/5/130
f 222/59/130 221/57/130 253/57/130 254/59/130
f 209/33/130 208/31/130 240/31/130 241/33/130
f 257/99/130 258/100/130 288/101/130 287/102/130 286/103/130 285/104/130 284/105/130 283/106/130 282/107/130 281/108/130 280/109/130 279/110/130 278/111/130 277/112/130 276/113/130 275/114/130 274/115/130 273/116/130 272/117/130 271/118/130 270/119/130 269/120/130 268/121/130 267/122/130 266/123/130 265/124/130 264/125/130 263/126/130 262/127/130 261/128/130 260/129/130 259/130/130
f 245/41/4 244/39/4 276/39/4 277/41/4
f 232/15/23 231/13/23 263/13/23 264/15/23
f 246/43/5 245/41/5 277/41/5 278/43/5
f 233/17/24 232/15/24 264/15/24 265/17/24
f 247/45/6 246/43/6 278/43/6 279/45/6
f 234/19/25 233/17/25 265/17/25 266/19/25
f 248/47/7 247/45/7 279/45/7 280/47/7
f 235/21/26 234/19/26 266/19/26 267/21/26
f 249/49/8 248/47/8 280/47/8 281/49/8
f 236/23/27 235/21/27 267/21/27 268/23/27
f 250/51/9 249/49/9 281/49/9 282/51/9
f 237/25/28 236/23/28 268/23/28 269/25/28
f 251/53/10 250/51/10 282/51/10 283/53/10
f 238/27/29 237/25/29 269/25/29 270/27/29
f 252/55/11 251/53/11 283/53/11 284/55/11
f 239/29/30 238/27/30 270/27/30 271/29/30
f 225/3/17 226/2/17 258/2/17 257/3/17
f 253/57/12 252/55/12 284/55/12 285/57/12
f 240/31/32 239/29/32 271/29/32 272/31/32
f 227/5/18 225/3/18 257/3/18 259/5/18
f 254/59/13 253/57/13 285/57/13 286/59/13
f 241/33/33 240/31/33 272/31/33 273/33/33
f 228/7/19 227/5/19 259/5/19 260/7/19
f 255/61/14 254/59/14 286/59/14 287/61/14
f 242/35/1 241/33/1 273/33/1 274/35/1
f 229/9/20 228/7/20 260/7/20 261/9/20
f 256/63/15 255/61/15 287/61/15 288/63/15
f 243/37/2 242/35/2 274/35/2 275/37/2
f 230/11/21 229/9/21 261/9/21 262/11/21
f 226/65/16 256/63/16 288/63/16 258/65/16
f 244/39/3 243/37/3 275/37/3 276/39/3
o Icosphere
v -0.048190 1.890433 -0.189663
v 0.402605 2.747615 0.232845
v -0.220375 2.747615 0.493975
v -0.605402 2.747621 -0.189663
v -0.220375 2.747615 -0.873301
v 0.402605 2.747615 -0.612171
v 0.123995 4.134598 0.493975
v -0.498985 4.134598 0.232845
v -0.498985 4.134598 -0.612171
v 0.123995 4.134598 -0.873301
v 0.509022 4.134592 -0.189663
v -0.048190 4.991780 -0.189663
v -0.149397 2.122020 0.212166
v 0.216779 2.122020 0.058679
v 0.115573 2.625859 0.460512
v 0.481749 2.625862 -0.189663
v 0.216779 2.122020 -0.438005
v -0.375710 2.122024 -0.189663
v -0.476920 2.625862 0.212168
v -0.149397 2.122020 -0.591493
v -0.476920 2.625862 -0.591494
v 0.115573 2.625859 -0.839839
v 0.544303 3.441107 0.058680
v 0.544303 3.441107 -0.438006
v -0.048190 3.441107 0.614003
v 0.317990 3.441107 0.460516
v -0.640683 3.441107 0.058680
v -0.414370 3.441107 0.460516
v -0.414370 3.441107 -0.839843
v -0.640683 3.441107 -0.438006
v 0.317990 3.441107 -0.839843
v -0.048190 3.441107 -0.993329
v 0.380540 4.256351 0.212168
v -0.211953 4.256354 0.460512
v -0.578129 4.256351 -0.189663
v -0.211953 4.256354 -0.839839
v 0.380540 4.256351 -0.591494
v 0.053017 4.760193 0.212166
v 0.279331 4.760189 -0.189663
v -0.313159 4.760193 0.058679
v -0.313159 4.760193 -0.438005
v 0.053017 4.760193 -0.591493
vn 0.2214 -0.8197 0.5282
vn 0.9009 -0.3420 0.2673
vn -0.5491 -0.7765 0.3092
vn -0.5491 -0.7765 -0.3092
vn 0.2214 -0.8197 -0.5282
vn 0.9648 -0.1415 0.2215
vn 0.0333 -0.1785 0.9834
vn -0.9545 -0.1424 0.2620
vn -0.6944 -0.1604 -0.7015
vn 0.6546 -0.1625 -0.7383
vn 0.8700 -0.0547 0.4900
vn -0.3858 -0.0635 0.9204
vn -0.9987 -0.0508 -0.0000
vn -0.3858 -0.0635 -0.9204
vn 0.8700 -0.0547 -0.4900
vn 0.5932 0.3856 0.7067
vn -0.6684 0.3770 0.6411
vn -0.9009 0.3420 -0.2673
vn 0.0602 0.4156 -0.9075
vn 0.9212 0.3382 -0.1921
vn 0.5491 0.7765 -0.3092
vn 0.7581 0.4928 -0.4270
vn 0.5932 0.3856 -0.7067
vn -0.2214 0.8197 -0.5282
vn -0.3230 0.5496 -0.7705
vn -0.6684 0.3770 -0.6411
vn -0.6581 0.7529 -0.0000
vn -0.8851 0.4655 -0.0000
vn -0.9009 0.3420 0.2673
vn -0.2214 0.8197 0.5282
vn -0.3230 0.5496 0.7705
vn 0.0602 0.4156 0.9075
vn 0.5491 0.7765 0.3092
vn 0.7581 0.4928 0.4270
vn 0.9212 0.3382 0.1921
vn 0.9545 0.1424 -0.2620
vn 0.8684 0.0824 -0.4891
vn 0.6944 0.1604 -0.7015
vn -0.0333 0.1785 -0.9834
vn -0.3848 0.0955 -0.9180
vn -0.6546 0.1625 -0.7383
vn -0.9648 0.1415 -0.2215
vn -0.9971 0.0765 -0.0000
vn -0.9648 0.1415 0.2215
vn -0.6546 0.1625 0.7383
vn -0.3848 0.0955 0.9180
vn -0.0333 0.1785 0.9834
vn 0.6944 0.1604 0.7015
vn 0.8684 0.0824 0.4891
vn 0.9545 0.1424 0.2620
vn 0.3858 0.0635 -0.9204
vn 0.3848 -0.0955 -0.9180
vn 0.0333 -0.1785 -0.9834
vn -0.8700 0.0547 -0.4900
vn -0.8684 -0.0824 -0.4891
vn -0.9545 -0.1424 -0.2620
vn -0.8700 0.0547 0.4900
vn -0.8684 -0.0824 0.4891
vn -0.6944 -0.1604 0.7015
vn 0.3858 0.0635 0.9204
vn 0.3848 -0.0955 0.9180
vn 0.6546 -0.1625 0.7383
vn 0.9987 0.0508 -0.0000
vn 0.9971 -0.0765 -0.0000
vn 0.9648 -0.1415 -0.2215
vn 0.6684 -0.3770 -0.6411
vn 0.3230 -0.5496 -0.7705
vn -0.0602 -0.4156 -0.9075
vn -0.5932 -0.3856 -0.7067
vn -0.7581 -0.4928 -0.4270
vn -0.9212 -0.3382 -0.1921
vn -0.9212 -0.3382 0.1921
vn -0.7581 -0.4928 0.4270
vn -0.5932 -0.3856 0.7067
vn 0.9009 -0.3420 -0.2673
vn 0.8851 -0.4655 -0.0000
vn 0.6581 -0.7529 -0.0000
vn -0.0602 -0.4156 0.9075
vn 0.3230 -0.5496 0.7705
vn 0.6684 -0.3770 0.6411
vt 0.181819 0.000000
vt 0.227273 0.078731
vt 0.136365 0.078731
vt 0.272728 0.157461
vt 0.318182 0.078731
vt 0.363637 0.157461
vt 0.909091 0.000000
vt 0.954545 0.078731
vt 0.863636 0.078731
vt 0.727273 0.000000
vt 0.772727 0.078731
vt 0.681818 0.078731
vt 0.545455 0.000000
vt 0.590909 0.078731
vt 0.500000 0.078731
vt 0.318182 0.236191
vt 0.090910 0.157461
vt 0.181819 0.157461
vt 0.136365 0.236191
vt 0.818182 0.157461
vt 0.909091 0.157461
vt 0.863636 0.236191
vt 0.636364 0.157461
vt 0.727273 0.157461
vt 0.681818 0.236191
vt 0.454546 0.157461
vt 0.545455 0.157461
vt 0.500000 0.236191
vt 0.227273 0.236191
vt 0.045455 0.236191
vt 0.772727 0.236191
vt 0.590909 0.236191
vt 0.409092 0.236191
vt 0.181819 0.314921
vt 0.272728 0.314921
vt 0.227273 0.393651
vt 0.000000 0.314921
vt 0.090910 0.314921
vt 0.045455 0.393651
vt 0.727273 0.314921
vt 0.818182 0.314921
vt 0.772727 0.393651
vt 0.545455 0.314921
vt 0.636364 0.314921
vt 0.590909 0.393651
vt 0.363637 0.314921
vt 0.454546 0.314921
vt 0.409092 0.393651
vt 0.500000 0.393651
vt 0.454546 0.472382
vt 0.681818 0.393651
vt 0.636364 0.472382
vt 0.863636 0.393651
vt 0.818182 0.472382
vt 0.909091 0.314921
vt 0.136365 0.393651
vt 0.090910 0.472382
vt 0.318182 0.393651
vt 0.272728 0.472382
vt 0.954545 0.236191
vt 1.000000 0.157461
vt 0.409092 0.078731
vt 0.363637 0.000000
s 0
usemtl Material.002
f 289/131/131 302/132/131 301/133/131
f 290/134/132 302/135/132 304/136/132
f 289/137/133 301/138/133 306/139/133
f 289/140/134 306/141/134 308/142/134
f 289/143/135 308/144/135 305/145/135
f 290/134/136 304/136/136 311/146/136
f 291/147/137 303/148/137 313/149/137
f 292/150/138 307/151/138 315/152/138
f 293/153/139 309/154/139 317/155/139
f 294/156/140 310/157/140 319/158/140
f 290/134/141 311/146/141 314/159/141
f 291/147/142 313/149/142 316/160/142
f 292/150/143 315/152/143 318/161/143
f 293/153/144 317/155/144 320/162/144
f 294/156/145 319/158/145 312/163/145
f 295/164/146 321/165/146 326/166/146
f 296/167/147 322/168/147 328/169/147
f 297/170/148 323/171/148 329/172/148
f 298/173/149 324/174/149 330/175/149
f 299/176/150 325/177/150 327/178/150
f 327/178/151 330/179/151 300/180/151
f 327/178/152 325/177/152 330/179/152
f 325/177/153 298/173/153 330/179/153
f 330/175/154 329/181/154 300/182/154
f 330/175/155 324/174/155 329/181/155
f 324/174/156 297/170/156 329/181/156
f 329/172/157 328/183/157 300/184/157
f 329/172/158 323/171/158 328/183/158
f 323/171/159 296/185/159 328/183/159
f 328/169/160 326/186/160 300/187/160
f 328/169/161 322/168/161 326/186/161
f 322/168/162 295/164/162 326/186/162
f 326/166/163 327/188/163 300/189/163
f 326/166/164 321/165/164 327/188/164
f 321/165/165 299/176/165 327/188/165
f 312/163/166 325/177/166 299/176/166
f 312/163/167 319/158/167 325/177/167
f 319/158/168 298/173/168 325/177/168
f 320/162/169 324/174/169 298/173/169
f 320/162/170 317/155/170 324/174/170
f 317/155/171 297/170/171 324/174/171
f 318/161/172 323/171/172 297/170/172
f 318/161/173 315/152/173 323/171/173
f 315/152/174 296/185/174 323/171/174
f 316/160/175 322/168/175 296/167/175
f 316/160/176 313/149/176 322/168/176
f 313/149/177 295/164/177 322/168/177
f 314/159/178 321/165/178 295/164/178
f 314/159/179 311/146/179 321/165/179
f 311/146/180 299/176/180 321/165/180
f 319/158/181 320/162/181 298/173/181
f 319/158/182 310/157/182 320/162/182
f 310/157/183 293/153/183 320/162/183
f 317/155/184 318/161/184 297/170/184
f 317/155/185 309/154/185 318/161/185
f 309/154/186 292/150/186 318/161/186
f 315/152/187 316/190/187 296/185/187
f 315/152/188 307/151/188 316/190/188
f 307/151/189 291/191/189 316/190/189
f 313/149/190 314/159/190 295/164/190
f 313/149/191 303/148/191 314/159/191
f 303/148/192 290/134/192 314/159/192
f 311/146/193 312/163/193 299/176/193
f 311/146/194 304/136/194 312/163/194
f 304/136/195 294/156/195 312/163/195
f 305/145/196 310/157/196 294/156/196
f 305/145/197 308/144/197 310/157/197
f 308/144/198 293/153/198 310/157/198
f 308/142/199 309/154/199 293/153/199
f 308/142/200 306/141/200 309/154/200
f 306/141/201 292/150/201 309/154/201
f 306/139/202 307/151/202 292/150/202
f 306/139/203 301/138/203 307/151/203
f 301/138/204 291/191/204 307/151/204
f 304/136/205 305/192/205 294/156/205
f 304/136/206 302/135/206 305/192/206
f 302/135/207 289/193/207 305/192/207
f 301/133/208 303/148/208 291/147/208
f 301/133/209 302/132/209 303/148/209
f 302/132/210 290/134/210 303/148/210
o Cylinder.001
v -0.083679 2.566394 0.617511
v -0.345809 2.926557 1.464084
v -0.003255 2.538519 0.655424
v -0.283448 2.904943 1.493482
v 0.067500 2.496132 0.698776
v -0.228584 2.872075 1.527098
v 0.125868 2.440862 0.745901
v -0.183325 2.829218 1.563639
v 0.169605 2.374833 0.794989
v -0.149411 2.778019 1.601702
v 0.197030 2.300583 0.844153
v -0.128145 2.720444 1.639824
v 0.207091 2.220964 0.891503
v -0.120344 2.658708 1.676540
v 0.199399 2.139037 0.935220
v -0.126308 2.595181 1.710439
v 0.174252 2.057950 0.973624
v -0.145808 2.532305 1.740217
v 0.132614 1.980819 1.005239
v -0.178094 2.472497 1.764732
v 0.076086 1.910609 1.028850
v -0.221926 2.418055 1.783040
v 0.006841 1.850017 1.043550
v -0.275619 2.371072 1.794438
v -0.072460 1.801371 1.048773
v -0.337110 2.333352 1.798489
v -0.158770 1.766542 1.044320
v -0.404036 2.306345 1.795036
v -0.248773 1.746868 1.030361
v -0.473825 2.291090 1.784212
v -0.339008 1.743105 1.007432
v -0.543794 2.288171 1.766433
v -0.426010 1.755397 0.976416
v -0.611256 2.297703 1.742382
v -0.506433 1.783272 0.938503
v -0.673617 2.319318 1.712984
v -0.577188 1.825659 0.895151
v -0.728481 2.352185 1.679368
v -0.635556 1.880929 0.848025
v -0.773740 2.395042 1.642827
v -0.679293 1.946958 0.798937
v -0.807654 2.446241 1.604764
v -0.706719 2.021209 0.749774
v -0.828920 2.503815 1.566642
v -0.716779 2.100827 0.702423
v -0.836721 2.565552 1.529926
v -0.709088 2.182754 0.658706
v -0.830757 2.629079 1.496028
v -0.683940 2.263841 0.620302
v -0.811257 2.691955 1.466249
v -0.642302 2.340972 0.588688
v -0.778971 2.751763 1.441734
v -0.585775 2.411182 0.565076
v -0.735139 2.806204 1.423426
v -0.516530 2.471775 0.550377
v -0.681446 2.853188 1.412028
v -0.437228 2.520420 0.545153
v -0.619955 2.890908 1.407977
v -0.350918 2.555249 0.549606
v -0.553029 2.917915 1.411431
v -0.260916 2.574923 0.563566
v -0.483240 2.933170 1.422255
v -0.170680 2.578686 0.586494
v -0.413271 2.936089 1.440034
v 0.021932 2.353352 0.236845
v 0.102355 2.325477 0.274758
v 0.173111 2.283090 0.318110
v 0.231478 2.227820 0.365235
v 0.275215 2.161791 0.414323
v 0.302641 2.087540 0.463487
v 0.312701 2.007922 0.510837
v 0.305010 1.925995 0.554554
v 0.279862 1.844908 0.592958
v 0.238224 1.767777 0.624573
v 0.181697 1.697567 0.648184
v 0.112452 1.636974 0.662884
v 0.033150 1.588329 0.668107
v -0.053160 1.553500 0.663654
v -0.143162 1.533826 0.649695
v -0.233398 1.530063 0.626766
v -0.320399 1.542355 0.595750
v -0.400823 1.570230 0.557837
v -0.471578 1.612617 0.514484
v -0.529946 1.667887 0.467359
v -0.573683 1.733916 0.418271
v -0.601108 1.808166 0.369107
v -0.611169 1.887785 0.321757
v -0.603477 1.969712 0.278040
v -0.578330 2.050799 0.239636
v -0.536692 2.127930 0.208021
v -0.480164 2.198140 0.184410
v -0.410919 2.258732 0.169711
v -0.331618 2.307378 0.164487
v -0.245308 2.342207 0.168940
v -0.155305 2.361881 0.182899
v -0.065069 2.365644 0.205828
v -0.412634 3.165543 1.959125
v -0.474995 3.187157 1.929727
v -0.357770 3.132675 1.992741
v -0.312512 3.089818 2.029283
v -0.278597 3.038619 2.067346
v -0.257331 2.981045 2.105468
v -0.249530 2.919308 2.142183
v -0.255494 2.855781 2.176082
v -0.274994 2.792905 2.205861
v -0.307280 2.733098 2.230375
v -0.351112 2.678656 2.248683
v -0.404806 2.631672 2.260082
v -0.466296 2.593952 2.264132
v -0.533222 2.566945 2.260679
v -0.603011 2.551690 2.249855
v -0.672980 2.548772 2.232076
v -0.740442 2.558303 2.208025
v -0.802803 2.579918 2.178627
v -0.857667 2.612785 2.145012
v -0.902926 2.655642 2.108470
v -0.936840 2.706841 2.070407
v -0.958106 2.764416 2.032285
v -0.965907 2.826153 1.995569
v -0.959943 2.889679 1.961671
v -0.940443 2.952555 1.931892
v -0.908157 3.012363 1.907378
v -0.864325 3.066805 1.889069
v -0.810632 3.113788 1.877671
v -0.749141 3.151508 1.873621
v -0.682215 3.178515 1.877074
v -0.612427 3.193771 1.887898
v -0.542457 3.196689 1.905677
v -0.463478 3.089228 1.987729
v -0.509587 3.105209 1.965993
v -0.422913 3.064927 2.012584
v -0.389450 3.033240 2.039602
v -0.364375 2.995384 2.067745
v -0.348651 2.952815 2.095931
v -0.342884 2.907168 2.123078
v -0.347293 2.860198 2.148141
v -0.361711 2.813710 2.170159
v -0.385583 2.769489 2.188284
v -0.417991 2.729236 2.201821
v -0.457690 2.694498 2.210248
v -0.503155 2.666609 2.213243
v -0.552638 2.646641 2.210690
v -0.604238 2.635361 2.202687
v -0.655972 2.633204 2.189542
v -0.705851 2.640251 2.171760
v -0.751959 2.656232 2.150023
v -0.792524 2.680533 2.125169
v -0.825987 2.712221 2.098151
v -0.851062 2.750076 2.070008
v -0.866786 2.792645 2.041822
v -0.872554 2.838292 2.014675
v -0.868144 2.885262 1.989611
v -0.853727 2.931750 1.967594
v -0.829855 2.975971 1.949468
v -0.797447 3.016224 1.935932
v -0.757748 3.050962 1.927504
v -0.712283 3.078851 1.924510
v -0.662800 3.098819 1.927063
v -0.611200 3.110099 1.935066
v -0.559466 3.112257 1.948211
v -0.175000 2.507297 0.947929
v -0.221109 2.523278 0.926193
v -0.134435 2.482996 0.972783
v -0.100972 2.451308 0.999801
v -0.075897 2.413453 1.027944
v -0.060173 2.370884 1.056130
v -0.054406 2.325237 1.083277
v -0.058815 2.278267 1.108341
v -0.073233 2.231779 1.130358
v -0.097105 2.187558 1.148484
v -0.129513 2.147305 1.162020
v -0.169212 2.112567 1.170448
v -0.214677 2.084678 1.173443
v -0.264160 2.064710 1.170890
v -0.315760 2.053430 1.162887
v -0.367494 2.051273 1.149741
v -0.417373 2.058320 1.131959
v -0.463481 2.074301 1.110223
v -0.504046 2.098602 1.085368
v -0.537509 2.130290 1.058350
v -0.562585 2.168145 1.030208
v -0.578308 2.210714 1.002021
v -0.584076 2.256361 0.974875
v -0.579666 2.303331 0.949811
v -0.565249 2.349819 0.927793
v -0.541377 2.394040 0.909668
v -0.508969 2.434293 0.896131
v -0.469270 2.469031 0.887704
v -0.423805 2.496920 0.884709
v -0.374322 2.516888 0.887262
v -0.322722 2.528168 0.895265
v -0.270988 2.530325 0.908410
vn 0.4180 0.8754 -0.2430
vn 0.5768 0.8016 -0.1576
vn 0.7124 0.6990 -0.0626
vn 0.8197 0.5715 0.0385
vn 0.8944 0.4242 0.1417
vn 0.9338 0.2626 0.2431
vn 0.9363 0.0929 0.3387
vn 0.9018 -0.0784 0.4250
vn 0.8316 -0.2446 0.4986
vn 0.7285 -0.3994 0.5566
vn 0.5964 -0.5368 0.5968
vn 0.4403 -0.6515 0.6177
vn 0.2664 -0.7392 0.6186
vn 0.0812 -0.7965 0.5992
vn -0.1082 -0.8211 0.5605
vn -0.2944 -0.8121 0.5038
vn -0.4702 -0.7699 0.4314
vn -0.6290 -0.6961 0.3460
vn -0.7647 -0.5935 0.2510
vn -0.8719 -0.4661 0.1499
vn -0.9467 -0.3188 0.0467
vn -0.9861 -0.1571 -0.0547
vn -0.9886 0.0126 -0.1503
vn -0.9541 0.1838 -0.2366
vn -0.8839 0.3500 -0.3102
vn -0.7808 0.5048 -0.3682
vn -0.6487 0.6422 -0.4084
vn -0.4926 0.7570 -0.4294
vn -0.3186 0.8446 -0.4302
vn -0.1334 0.9019 -0.4108
vn 0.6067 0.7535 -0.2534
vn 0.0559 0.9265 -0.3721
vn 0.2421 0.9176 -0.3154
vn -0.8511 -0.5221 0.0561
vn 0.2353 -0.4747 -0.8481
vn -0.2943 0.7969 -0.5276
vn 0.9684 0.0404 0.2461
vn -0.2699 -0.8702 0.4122
vn -0.8631 0.2992 -0.4069
vn 0.7431 0.6503 -0.1578
vn 0.4694 -0.7086 0.5268
vn -0.9263 -0.3738 -0.0478
vn -0.1080 0.8545 -0.5082
vn 0.9337 -0.1319 0.3329
vn -0.4469 -0.8278 0.3393
vn -0.7593 0.4549 -0.4653
vn 0.8511 0.5221 -0.0561
vn 0.2943 -0.7969 0.5276
vn -0.9659 -0.2111 -0.1498
vn 0.0825 0.8792 -0.4692
vn 0.8631 -0.2992 0.4069
vn -0.6067 -0.7535 0.2534
vn -0.6264 0.5932 -0.5058
vn 0.9263 0.3738 0.0478
vn 0.1080 -0.8545 0.5082
vn -0.9684 -0.0404 -0.2461
vn 0.4469 0.8278 -0.3393
vn 0.2699 0.8702 -0.4122
vn 0.7593 -0.4549 0.4653
vn -0.7431 -0.6503 0.1578
vn -0.4694 0.7086 -0.5268
vn 0.9659 0.2111 0.1498
vn -0.0825 -0.8792 0.4692
vn -0.9337 0.1319 -0.3329
vn 0.6264 -0.5932 0.5058
vn -0.2353 0.4747 0.8481
vt 1.000000 0.500000
vt 1.000000 1.000000
vt 0.968750 1.000000
vt 0.968750 0.500000
vt 0.937500 1.000000
vt 0.937500 0.500000
vt 0.906250 1.000000
vt 0.906250 0.500000
vt 0.875000 1.000000
vt 0.875000 0.500000
vt 0.843750 1.000000
vt 0.843750 0.500000
vt 0.812500 1.000000
vt 0.812500 0.500000
vt 0.781250 1.000000
vt 0.781250 0.500000
vt 0.750000 1.000000
vt 0.750000 0.500000
vt 0.718750 1.000000
vt 0.718750 0.500000
vt 0.687500 1.000000
vt 0.687500 0.500000
vt 0.656250 1.000000
vt 0.656250 0.500000
vt 0.625000 1.000000
vt 0.625000 0.500000
vt 0.593750 1.000000
vt 0.593750 0.500000
vt 0.562500 1.000000
vt 0.562500 0.500000
vt 0.531250 1.000000
vt 0.531250 0.500000
vt 0.500000 1.000000
vt 0.500000 0.500000
vt 0.468750 1.000000
vt 0.468750 0.500000
vt 0.437500 1.000000
vt 0.437500 0.500000
vt 0.406250 1.000000
vt 0.406250 0.500000
vt 0.375000 1.000000
vt 0.375000 0.500000
vt 0.343750 1.000000
vt 0.343750 0.500000
vt 0.312500 1.000000
vt 0.312500 0.500000
vt 0.281250 1.000000
vt 0.281250 0.500000
vt 0.250000 1.000000
vt 0.250000 0.500000
vt 0.218750 1.000000
vt 0.218750 0.500000
vt 0.187500 1.000000
vt 0.187500 0.500000
vt 0.156250 1.000000
vt 0.156250 0.500000
vt 0.125000 1.000000
vt 0.125000 0.500000
vt 0.093750 1.000000
vt 0.093750 0.500000
vt 0.062500 1.000000
vt 0.062500 0.500000
vt 0.031250 1.000000
vt 0.031250 0.500000
vt 0.000000 1.000000
vt 0.000000 0.500000
vt 0.750000 0.490000
vt 0.796822 0.485388
vt 0.841844 0.471731
vt 0.883337 0.449553
vt 0.919706 0.419706
vt 0.949553 0.383337
vt 0.971731 0.341844
vt 0.985388 0.296822
vt 0.990000 0.250000
vt 0.985388 0.203178
vt 0.971731 0.158156
vt 0.949553 0.116663
vt 0.919706 0.080294
vt 0.883337 0.050447
vt 0.841844 0.028269
vt 0.796822 0.014612
vt 0.750000 0.010000
vt 0.703178 0.014612
vt 0.658156 0.028269
vt 0.616663 0.050447
vt 0.580294 0.080294
vt 0.550447 0.116663
vt 0.528269 0.158156
vt 0.514612 0.203178
vt 0.510000 0.250000
vt 0.514612 0.296822
vt 0.528269 0.341844
vt 0.550447 0.383337
vt 0.580294 0.419706
vt 0.616663 0.449553
vt 0.658156 0.471731
vt 0.703178 0.485388
vt 0.296822 0.485388
vt 0.250000 0.490000
vt 0.203178 0.485388
vt 0.158156 0.471731
vt 0.116663 0.449553
vt 0.080294 0.419706
vt 0.050447 0.383337
vt 0.028269 0.341844
vt 0.014612 0.296822
vt 0.010000 0.250000
vt 0.014612 0.203178
vt 0.028269 0.158156
vt 0.050447 0.116663
vt 0.080294 0.080294
vt 0.116663 0.050447
vt 0.158156 0.028269
vt 0.203178 0.014612
vt 0.250000 0.010000
vt 0.296822 0.014612
vt 0.341844 0.028269
vt 0.383337 0.050447
vt 0.419706 0.080294
vt 0.449553 0.116663
vt 0.471731 0.158156
vt 0.485388 0.203178
vt 0.490000 0.250000
vt 0.485388 0.296822
vt 0.471731 0.341844
vt 0.449553 0.383337
vt 0.419706 0.419706
vt 0.383337 0.449553
vt 0.341844 0.471731
s 0
usemtl Material.003
f 331/194/211 332/195/211 334/196/211 333/197/211
f 333/197/212 334/196/212 336/198/212 335/199/212
f 335/199/213 336/198/213 338/200/213 337/201/213
f 337/201/214 338/200/214 340/202/214 339/203/214
f 339/203/215 340/202/215 342/204/215 341/205/215
f 341/205/216 342/204/216 344/206/216 343/207/216
f 343/207/217 344/206/217 346/208/217 345/209/217
f 345/209/218 346/208/218 348/210/218 347/211/218
f 347/211/219 348/210/219 350/212/219 349/213/219
f 349/213/220 350/212/220 352/214/220 351/215/220
f 351/215/221 352/214/221 354/216/221 353/217/221
f 353/217/222 354/216/222 356/218/222 355/219/222
f 355/219/223 356/218/223 358/220/223 357/221/223
f 357/221/224 358/220/224 360/222/224 359/223/224
f 359/223/225 360/222/225 362/224/225 361/225/225
f 361/225/226 362/224/226 364/226/226 363/227/226
f 363/227/227 364/226/227 366/228/227 365/229/227
f 365/229/228 366/228/228 368/230/228 367/231/228
f 367/231/229 368/230/229 370/232/229 369/233/229
f 369/233/230 370/232/230 372/234/230 371/235/230
f 371/235/231 372/234/231 374/236/231 373/237/231
f 373/237/232 374/236/232 376/238/232 375/239/232
f 375/239/233 376/238/233 378/240/233 377/241/233
f 377/241/234 378/240/234 380/242/234 379/243/234
f 379/243/235 380/242/235 382/244/235 381/245/235
f 381/245/236 382/244/236 384/246/236 383/247/236
f 383/247/237 384/246/237 386/248/237 385/249/237
f 385/249/238 386/248/238 388/250/238 387/251/238
f 387/251/239 388/250/239 390/252/239 389/253/239
f 389/253/240 390/252/240 392/254/240 391/255/240
f 336/198/241 334/196/241 427/196/241 429/198/241
f 391/255/242 392/254/242 394/256/242 393/257/242
f 393/257/243 394/256/243 332/258/243 331/259/243
f 369/233/244 371/235/244 415/235/244 414/233/244
f 395/260/245 396/261/245 397/262/245 398/263/245 399/264/245 400/265/245 401/266/245 402/267/245 403/268/245 404/269/245 405/270/245 406/271/245 407/272/245 408/273/245 409/274/245 410/275/245 411/276/245 412/277/245 413/278/245 414/279/245 415/280/245 416/281/245 417/282/245 418/283/245 419/284/245 420/285/245 421/286/245 422/287/245 423/288/245 424/289/245 425/290/245 426/291/245
f 387/251/246 389/253/246 424/253/246 423/251/246
f 343/207/247 345/209/247 402/209/247 401/207/247
f 361/225/248 363/227/248 411/227/248 410/225/248
f 379/243/249 381/245/249 420/245/249 419/243/249
f 335/199/250 337/201/250 398/201/250 397/199/250
f 353/217/251 355/219/251 407/219/251 406/217/251
f 371/235/252 373/237/252 416/237/252 415/235/252
f 389/253/253 391/255/253 425/255/253 424/253/253
f 345/209/254 347/211/254 403/211/254 402/209/254
f 363/227/255 365/229/255 412/229/255 411/227/255
f 381/245/256 383/247/256 421/247/256 420/245/256
f 337/201/257 339/203/257 399/203/257 398/201/257
f 355/219/258 357/221/258 408/221/258 407/219/258
f 373/237/259 375/239/259 417/239/259 416/237/259
f 391/255/260 393/257/260 426/257/260 425/255/260
f 347/211/261 349/213/261 404/213/261 403/211/261
f 365/229/262 367/231/262 413/231/262 412/229/262
f 383/247/263 385/249/263 422/249/263 421/247/263
f 339/203/264 341/205/264 400/205/264 399/203/264
f 357/221/265 359/223/265 409/223/265 408/221/265
f 375/239/266 377/241/266 418/241/266 417/239/266
f 331/194/267 333/197/267 396/197/267 395/194/267
f 393/257/268 331/259/268 395/259/268 426/257/268
f 349/213/269 351/215/269 405/215/269 404/213/269
f 367/231/270 369/233/270 414/233/270 413/231/270
f 385/249/271 387/251/271 423/251/271 422/249/271
f 341/205/272 343/207/272 401/207/272 400/205/272
f 359/223/273 361/225/273 410/225/273 409/223/273
f 377/241/274 379/243/274 419/243/274 418/241/274
f 333/197/241 335/199/241 397/199/241 396/197/241
f 351/215/275 353/217/275 406/217/275 405/215/275
f 447/234/276 446/232/276 478/232/276 479/234/276
f 354/216/275 352/214/275 437/214/275 438/216/275
f 372/234/244 370/232/244 446/232/244 447/234/244
f 390/252/246 388/250/246 455/250/246 456/252/246
f 346/208/247 344/206/247 433/206/247 434/208/247
f 364/226/248 362/224/248 442/224/248 443/226/248
f 382/244/249 380/242/249 451/242/249 452/244/249
f 338/200/250 336/198/250 429/198/250 430/200/250
f 356/218/251 354/216/251 438/216/251 439/218/251
f 374/236/252 372/234/252 447/234/252 448/236/252
f 392/254/253 390/252/253 456/252/253 457/254/253
f 348/210/254 346/208/254 434/208/254 435/210/254
f 366/228/255 364/226/255 443/226/255 444/228/255
f 384/246/256 382/244/256 452/244/256 453/246/256
f 340/202/257 338/200/257 430/200/257 431/202/257
f 358/220/258 356/218/258 439/218/258 440/220/258
f 376/238/259 374/236/259 448/236/259 449/238/259
f 394/256/260 392/254/260 457/254/260 458/256/260
f 350/212/261 348/210/261 435/210/261 436/212/261
f 368/230/262 366/228/262 444/228/262 445/230/262
f 386/248/263 384/246/263 453/246/263 454/248/263
f 342/204/264 340/202/264 431/202/264 432/204/264
f 360/222/265 358/220/265 440/220/265 441/222/265
f 378/240/266 376/238/266 449/238/266 450/240/266
f 334/196/267 332/195/267 428/195/267 427/196/267
f 332/258/268 394/256/268 458/256/268 428/258/268
f 352/214/269 350/212/269 436/212/269 437/214/269
f 370/232/270 368/230/270 445/230/270 446/232/270
f 388/250/271 386/248/271 454/248/271 455/250/271
f 344/206/272 342/204/272 432/204/272 433/206/272
f 362/224/273 360/222/273 441/222/273 442/224/273
f 380/242/274 378/240/274 450/240/274 451/242/274
f 467/210/274 466/208/274 498/208/274 499/210/274
f 434/208/276 433/206/276 465/206/276 466/208/276
f 448/236/276 447/234/276 479/234/276 480/236/276
f 435/210/276 434/208/276 466/208/276 467/210/276
f 449/238/276 448/236/276 480/236/276 481/238/276
f 436/212/276 435/210/276 467/210/276 468/212/276
f 450/240/276 449/238/276 481/238/276 482/240/276
f 437/214/276 436/212/276 468/212/276 469/214/276
f 451/242/276 450/240/276 482/240/276 483/242/276
f 438/216/276 437/214/276 469/214/276 470/216/276
f 452/244/276 451/242/276 483/242/276 484/244/276
f 439/218/276 438/216/276 470/216/276 471/218/276
f 453/246/276 452/244/276 484/244/276 485/246/276
f 440/220/276 439/218/276 471/218/276 472/220/276
f 454/248/276 453/246/276 485/246/276 486/248/276
f 441/222/276 440/220/276 472/220/276 473/222/276
f 427/196/276 428/195/276 460/195/276 459/196/276
f 455/250/276 454/248/276 486/248/276 487/250/276
f 442/224/276 441/222/276 473/222/276 474/224/276
f 429/198/276 427/196/276 459/196/276 461/198/276
f 456/252/276 455/250/276 487/250/276 488/252/276
f 443/226/276 442/224/276 474/224/276 475/226/276
f 430/200/276 429/198/276 461/198/276 462/200/276
f 457/254/276 456/252/276 488/252/276 489/254/276
f 444/228/276 443/226/276 475/226/276 476/228/276
f 431/202/276 430/200/276 462/200/276 463/202/276
f 458/256/276 457/254/276 489/254/276 490/256/276
f 445/230/276 444/228/276 476/228/276 477/230/276
f 432/204/276 431/202/276 463/202/276 464/204/276
f 428/258/276 458/256/276 490/256/276 460/258/276
f 446/232/276 445/230/276 477/230/276 478/232/276
f 433/206/276 432/204/276 464/204/276 465/206/276
f 491/292/276 492/293/276 522/294/276 521/295/276 520/296/276 519/297/276 518/298/276 517/299/276 516/300/276 515/301/276 514/302/276 513/303/276 512/304/276 511/305/276 510/306/276 509/307/276 508/308/276 507/309/276 506/310/276 505/311/276 504/312/276 503/313/276 502/314/276 501/315/276 500/316/276 499/317/276 498/318/276 497/319/276 496/320/276 495/321/276 494/322/276 493/323/276
f 481/238/272 480/236/272 512/236/272 513/238/272
f 468/212/249 467/210/249 499/210/249 500/212/249
f 482/240/247 481/238/247 513/238/247 514/240/247
f 469/214/256 468/212/256 500/212/256 501/214/256
f 483/242/254 482/240/254 514/240/254 515/242/254
f 470/216/263 469/214/263 501/214/263 502/216/263
f 484/244/261 483/242/261 515/242/261 516/244/261
f 471/218/271 470/216/271 502/216/271 503/218/271
f 485/246/269 484/244/269 516/244/269 517/246/269
f 472/220/246 471/218/246 503/218/246 504/220/246
f 486/248/275 485/246/275 517/246/275 518/248/275
f 473/222/253 472/220/253 504/220/253 505/222/253
f 459/196/255 460/195/255 492/195/255 491/196/255
f 487/250/251 486/248/251 518/248/251 519/250/251
f 474/224/260 473/222/260 505/222/260 506/224/260
f 461/198/262 459/196/262 491/196/262 493/198/262
f 488/252/258 487/250/258 519/250/258 520/252/258
f 475/226/268 474/224/268 506/224/268 507/226/268
f 462/200/270 461/198/270 493/198/270 494/200/270
f 489/254/265 488/252/265 520/252/265 521/254/265
f 476/228/267 475/226/267 507/226/267 508/228/267
f 463/202/244 462/200/244 494/200/244 495/202/244
f 490/256/273 489/254/273 521/254/273 522/256/273
f 477/230/241 476/228/241 508/228/241 509/230/241
f 464/204/252 463/202/252 495/202/252 496/204/252
f 460/258/248 490/256/248 522/256/248 492/258/248
f 478/232/250 477/230/250 509/230/250 510/232/250
f 465/206/259 464/204/259 496/204/259 497/206/259
f 479/234/257 478/232/257 510/232/257 511/234/257
f 466/208/266 465/206/266 497/206/266 498/208/266
f 480/236/264 479/234/264 511/234/264 512/236/264
