# Blender 4.5.2 LTS
# www.blender.org
mtllib Cannon.mtl
o Cylinder
v 0.000000 0.500000 0.536742
v 0.000000 0.500000 0.936742
v 0.097545 0.490393 0.536742
v 0.097545 0.490393 0.936742
v 0.191342 0.461940 0.536742
v 0.191342 0.461940 0.936742
v 0.277785 0.415735 0.536742
v 0.277785 0.415735 0.936742
v 0.353553 0.353553 0.536742
v 0.353553 0.353553 0.936742
v 0.415735 0.277785 0.536742
v 0.415735 0.277785 0.936742
v 0.461940 0.191342 0.536742
v 0.461940 0.191342 0.936742
v 0.490393 0.097545 0.536742
v 0.490393 0.097545 0.936742
v 0.500000 0.000000 0.536742
v 0.500000 -0.000000 0.936742
v 0.490393 -0.097545 0.536742
v 0.490393 -0.097545 0.936742
v 0.461940 -0.191342 0.536742
v 0.461940 -0.191342 0.936742
v 0.415735 -0.277785 0.536742
v 0.415735 -0.277785 0.936742
v 0.353553 -0.353553 0.536742
v 0.353553 -0.353553 0.936742
v 0.277785 -0.415735 0.536742
v 0.277785 -0.415735 0.936742
v 0.191342 -0.461940 0.536742
v 0.191342 -0.461940 0.936742
v 0.097545 -0.490393 0.536742
v 0.097545 -0.490393 0.936742
v 0.000000 -0.500000 0.536742
v 0.000000 -0.500000 0.936742
v -0.097545 -0.490393 0.536742
v -0.097545 -0.490393 0.936742
v -0.191342 -0.461940 0.536742
v -0.191342 -0.461940 0.936742
v -0.277785 -0.415735 0.536742
v -0.277785 -0.415735 0.936742
v -0.353553 -0.353553 0.536742
v -0.353553 -0.353553 0.936742
v -0.415735 -0.277785 0.536742
v -0.415735 -0.277785 0.936742
v -0.461940 -0.191342 0.536742
v -0.461940 -0.191342 0.936742
v -0.490393 -0.097545 0.536742
v -0.490393 -0.097545 0.936742
v -0.500000 0.000000 0.536742
v -0.500000 -0.000000 0.936742
v -0.490393 0.097545 0.536742
v -0.490393 0.097545 0.936742
v -0.461940 0.191342 0.536742
v -0.461940 0.191342 0.936742
v -0.415735 0.277785 0.536742
v -0.415735 0.277785 0.936742
v -0.353553 0.353553 0.536742
v -0.353553 0.353553 0.936742
v -0.277785 0.415735 0.536742
v -0.277785 0.415735 0.936742
v -0.191342 0.461940 0.536742
v -0.191342 0.461940 0.936742
v -0.097545 0.490393 0.536742
v -0.097545 0.490393 0.936742
v 0.097545 0.490393 0.936742
v 0.000000 0.500000 0.936742
v 0.191342 0.461940 0.936742
v 0.277785 0.415735 0.936742
v 0.353553 0.353553 0.936742
v 0.415735 0.277785 0.936742
v 0.461940 0.191342 0.936742
v 0.490393 0.097545 0.936742
v 0.500000 -0.000000 0.936742
v 0.490393 -0.097545 0.936742
v 0.461940 -0.191342 0.936742
v 0.415735 -0.277785 0.936742
v 0.353553 -0.353553 0.936742
v 0.277785 -0.415735 0.936742
v 0.191342 -0.461940 0.936742
v 0.097545 -0.490393 0.936742
v 0.000000 -0.500000 0.936742
v -0.097545 -0.490393 0.936742
v -0.191342 -0.461940 0.936742
v -0.277785 -0.415735 0.936742
v -0.353553 -0.353553 0.936742
v -0.415735 -0.277785 0.936742
v -0.461940 -0.191342 0.936742
v -0.490393 -0.097545 0.936742
v -0.500000 -0.000000 0.936742
v -0.490393 0.097545 0.936742
v -0.461940 0.191342 0.936742
v -0.415735 0.277785 0.936742
v -0.353553 0.353553 0.936742
v -0.277785 0.415735 0.936742
v -0.191342 0.461940 0.936742
v -0.097545 0.490393 0.936742
vn 0.0980 0.9952 -0.0000
vn 0.2903 0.9569 -0.0000
vn 0.4714 0.8819 -0.0000
vn 0.6344 0.7730 -0.0000
vn 0.7730 0.6344 -0.0000
vn 0.8819 0.4714 -0.0000
vn 0.9569 0.2903 -0.0000
vn 0.9952 0.0980 -0.0000
vn 0.9952 -0.0980 -0.0000
vn 0.9569 -0.2903 -0.0000
vn 0.8819 -0.4714 -0.0000
vn 0.7730 -0.6344 -0.0000
vn 0.6344 -0.7730 -0.0000
vn 0.4714 -0.8819 -0.0000
vn 0.2903 -0.9569 -0.0000
vn 0.0980 -0.9952 -0.0000
vn -0.0980 -0.9952 -0.0000
vn -0.2903 -0.9569 -0.0000
vn -0.4714 -0.8819 -0.0000
vn -0.6344 -0.7730 -0.0000
vn -0.7730 -0.6344 -0.0000
vn -0.8819 -0.4714 -0.0000
vn -0.9569 -0.2903 -0.0000
vn -0.9952 -0.0980 -0.0000
vn -0.9952 0.0980 -0.0000
vn -0.9569 0.2903 -0.0000
vn -0.8819 0.4714 -0.0000
vn -0.7730 0.6344 -0.0000
vn -0.6344 0.7730 -0.0000
vn -0.4714 0.8819 -0.0000
vn -0.0000 -0.0000 1.0000
vn -0.2903 0.9569 -0.0000
vn -0.0980 0.9952 -0.0000
vn -0.0000 -0.0000 -1.0000
vt 1.000000 0.500000
vt 1.000000 1.000000
vt 0.968750 1.000000
vt 0.968750 0.500000
vt 0.937500 1.000000
vt 0.937500 0.500000
vt 0.906250 1.000000
vt 0.906250 0.500000
vt 0.875000 1.000000
vt 0.875000 0.500000
vt 0.843750 1.000000
vt 0.843750 0.500000
vt 0.812500 1.000000
vt 0.812500 0.500000
vt 0.781250 1.000000
vt 0.781250 0.500000
vt 0.750000 1.000000
vt 0.750000 0.500000
vt 0.718750 1.000000
vt 0.718750 0.500000
vt 0.687500 1.000000
vt 0.687500 0.500000
vt 0.656250 1.000000
vt 0.656250 0.500000
vt 0.625000 1.000000
vt 0.625000 0.500000
vt 0.593750 1.000000
vt 0.593750 0.500000
vt 0.562500 1.000000
vt 0.562500 0.500000
vt 0.531250 1.000000
vt 0.531250 0.500000
vt 0.500000 1.000000
vt 0.500000 0.500000
vt 0.468750 1.000000
vt 0.468750 0.500000
vt 0.437500 1.000000
vt 0.437500 0.500000
vt 0.406250 1.000000
vt 0.406250 0.500000
vt 0.375000 1.000000
vt 0.375000 0.500000
vt 0.343750 1.000000
vt 0.343750 0.500000
vt 0.312500 1.000000
vt 0.312500 0.500000
vt 0.281250 1.000000
vt 0.281250 0.500000
vt 0.250000 1.000000
vt 0.250000 0.500000
vt 0.218750 1.000000
vt 0.218750 0.500000
vt 0.187500 1.000000
vt 0.187500 0.500000
vt 0.156250 1.000000
vt 0.156250 0.500000
vt 0.125000 1.000000
vt 0.125000 0.500000
vt 0.093750 1.000000
vt 0.093750 0.500000
vt 0.062500 1.000000
vt 0.062500 0.500000
vt 0.031250 1.000000
vt 0.031250 0.500000
vt 0.000000 1.000000
vt 0.000000 0.500000
vt 0.750000 0.490000
vt 0.796822 0.485388
vt 0.841844 0.471731
vt 0.883337 0.449553
vt 0.919706 0.419706
vt 0.949553 0.383337
vt 0.971731 0.341844
vt 0.985388 0.296822
vt 0.990000 0.250000
vt 0.985388 0.203178
vt 0.971731 0.158156
vt 0.949553 0.116663
vt 0.919706 0.080294
vt 0.883337 0.050447
vt 0.841844 0.028269
vt 0.796822 0.014612
vt 0.750000 0.010000
vt 0.703178 0.014612
vt 0.658156 0.028269
vt 0.616663 0.050447
vt 0.580294 0.080294
vt 0.550447 0.116663
vt 0.528269 0.158156
vt 0.514612 0.203178
vt 0.510000 0.250000
vt 0.514612 0.296822
vt 0.528269 0.341844
vt 0.550447 0.383337
vt 0.580294 0.419706
vt 0.616663 0.449553
vt 0.658156 0.471731
vt 0.703178 0.485388
vt 0.296822 0.485388
vt 0.250000 0.490000
vt 0.203178 0.485388
vt 0.158156 0.471731
vt 0.116663 0.449553
vt 0.080294 0.419706
vt 0.050447 0.383337
vt 0.028269 0.341844
vt 0.014612 0.296822
vt 0.010000 0.250000
vt 0.014612 0.203178
vt 0.028269 0.158156
vt 0.050447 0.116663
vt 0.080294 0.080294
vt 0.116663 0.050447
vt 0.158156 0.028269
vt 0.203178 0.014612
vt 0.250000 0.010000
vt 0.296822 0.014612
vt 0.341844 0.028269
vt 0.383337 0.050447
vt 0.419706 0.080294
vt 0.449553 0.116663
vt 0.471731 0.158156
vt 0.485388 0.203178
vt 0.490000 0.250000
vt 0.485388 0.296822
vt 0.471731 0.341844
vt 0.449553 0.383337
vt 0.419706 0.419706
vt 0.383337 0.449553
vt 0.341844 0.471731
s 0
usemtl Material.004
f 1/1/1 2/2/1 4/3/1 3/4/1
f 3/4/2 4/3/2 6/5/2 5/6/2
f 5/6/3 6/5/3 8/7/3 7/8/3
f 7/8/4 8/7/4 10/9/4 9/10/4
f 9/10/5 10/9/5 12/11/5 11/12/5
f 11/12/6 12/11/6 14/13/6 13/14/6
f 13/14/7 14/13/7 16/15/7 15/16/7
f 15/16/8 16/15/8 18/17/8 17/18/8
f 17/18/9 18/17/9 20/19/9 19/20/9
f 19/20/10 20/19/10 22/21/10 21/22/10
f 21/22/11 22/21/11 24/23/11 23/24/11
f 23/24/12 24/23/12 26/25/12 25/26/12
f 25/26/13 26/25/13 28/27/13 27/28/13
f 27/28/14 28/27/14 30/29/14 29/30/14
f 29/30/15 30/29/15 32/31/15 31/32/15
f 31/32/16 32/31/16 34/33/16 33/34/16
f 33/34/17 34/33/17 36/35/17 35/36/17
f 35/36/18 36/35/18 38/37/18 37/38/18
f 37/38/19 38/37/19 40/39/19 39/40/19
f 39/40/20 40/39/20 42/41/20 41/42/20
f 41/42/21 42/41/21 44/43/21 43/44/21
f 43/44/22 44/43/22 46/45/22 45/46/22
f 45/46/23 46/45/23 48/47/23 47/48/23
f 47/48/24 48/47/24 50/49/24 49/50/24
f 49/50/25 50/49/25 52/51/25 51/52/25
f 51/52/26 52/51/26 54/53/26 53/54/26
f 53/54/27 54/53/27 56/55/27 55/56/27
f 55/56/28 56/55/28 58/57/28 57/58/28
f 57/58/29 58/57/29 60/59/29 59/60/29
f 59/60/30 60/59/30 62/61/30 61/62/30
f 12/11/31 10/9/31 69/9/31 70/11/31
f 61/62/32 62/61/32 64/63/32 63/64/32
f 63/64/33 64/63/33 2/65/33 1/66/33
f 1/67/34 3/68/34 5/69/34 7/70/34 9/71/34 11/72/34 13/73/34 15/74/34 17/75/34 19/76/34 21/77/34 23/78/34 25/79/34 27/80/34 29/81/34 31/82/34 33/83/34 35/84/34 37/85/34 39/86/34 41/87/34 43/88/34 45/89/34 47/90/34 49/91/34 51/92/34 53/93/34 55/94/34 57/95/34 59/96/34 61/97/34 63/98/34
f 65/99/31 66/100/31 96/101/31 95/102/31 94/103/31 93/104/31 92/105/31 91/106/31 90/107/31 89/108/31 88/109/31 87/110/31 86/111/31 85/112/31 84/113/31 83/114/31 82/115/31 81/116/31 80/117/31 79/118/31 78/119/31 77/120/31 76/121/31 75/122/31 74/123/31 73/124/31 72/125/31 71/126/31 70/127/31 69/128/31 68/129/31 67/130/31
f 30/29/31 28/27/31 78/27/31 79/29/31
f 48/47/31 46/45/31 87/45/31 88/47/31
f 4/3/31 2/2/31 66/2/31 65/3/31
f 2/65/31 64/63/31 96/63/31 66/65/31
f 22/21/31 20/19/31 74/19/31 75/21/31
f 40/39/31 38/37/31 83/37/31 84/39/31
f 58/57/31 56/55/31 92/55/31 93/57/31
f 14/13/31 12/11/31 70/11/31 71/13/31
f 32/31/31 30/29/31 79/29/31 80/31/31
f 50/49/31 48/47/31 88/47/31 89/49/31
f 6/5/31 4/3/31 65/3/31 67/5/31
f 24/23/31 22/21/31 75/21/31 76/23/31
f 42/41/31 40/39/31 84/39/31 85/41/31
f 60/59/31 58/57/31 93/57/31 94/59/31
f 16/15/31 14/13/31 71/13/31 72/15/31
f 34/33/31 32/31/31 80/31/31 81/33/31
f 52/51/31 50/49/31 89/49/31 90/51/31
f 8/7/31 6/5/31 67/5/31 68/7/31
f 26/25/31 24/23/31 76/23/31 77/25/31
f 44/43/31 42/41/31 85/41/31 86/43/31
f 62/61/31 60/59/31 94/59/31 95/61/31
f 18/17/31 16/15/31 72/15/31 73/17/31
f 36/35/31 34/33/31 81/33/31 82/35/31
f 54/53/31 52/51/31 90/51/31 91/53/31
f 10/9/31 8/7/31 68/7/31 69/9/31
f 28/27/31 26/25/31 77/25/31 78/27/31
f 46/45/31 44/43/31 86/43/31 87/45/31
f 64/63/31 62/61/31 95/61/31 96/63/31
f 20/19/31 18/17/31 73/17/31 74/19/31
f 38/37/31 36/35/31 82/35/31 83/37/31
f 56/55/31 54/53/31 91/53/31 92/55/31
o Cylinder.001
v 0.000000 0.500000 -0.897035
v 0.000000 0.500000 -0.497035
v 0.097545 0.490393 -0.897035
v 0.097545 0.490393 -0.497035
v 0.191342 0.461940 -0.897035
v 0.191342 0.461940 -0.497035
v 0.277785 0.415735 -0.897035
v 0.277785 0.415735 -0.497035
v 0.353553 0.353553 -0.897035
v 0.353553 0.353553 -0.497035
v 0.415735 0.277785 -0.897035
v 0.415735 0.277785 -0.497035
v 0.461940 0.191342 -0.897035
v 0.461940 0.191342 -0.497035
v 0.490393 0.097545 -0.897035
v 0.490393 0.097545 -0.497035
v 0.500000 0.000000 -0.897035
v 0.500000 -0.000000 -0.497035
v 0.490393 -0.097545 -0.897035
v 0.490393 -0.097545 -0.497035
v 0.461940 -0.191342 -0.897035
v 0.461940 -0.191342 -0.497035
v 0.415735 -0.277785 -0.897035
v 0.415735 -0.277785 -0.497035
v 0.353553 -0.353553 -0.897035
v 0.353553 -0.353553 -0.497035
v 0.277785 -0.415735 -0.897035
v 0.277785 -0.415735 -0.497035
v 0.191342 -0.461940 -0.897035
v 0.191342 -0.461940 -0.497035
v 0.097545 -0.490393 -0.897035
v 0.097545 -0.490393 -0.497035
v 0.000000 -0.500000 -0.897035
v 0.000000 -0.500000 -0.497035
v -0.097545 -0.490393 -0.897035
v -0.097545 -0.490393 -0.497035
v -0.191342 -0.461940 -0.897035
v -0.191342 -0.461940 -0.497035
v -0.277785 -0.415735 -0.897035
v -0.277785 -0.415735 -0.497035
v -0.353553 -0.353553 -0.897035
v -0.353553 -0.353553 -0.497035
v -0.415735 -0.277785 -0.897035
v -0.415735 -0.277785 -0.497035
v -0.461940 -0.191342 -0.897035
v -0.461940 -0.191342 -0.497035
v -0.490393 -0.097545 -0.897035
v -0.490393 -0.097545 -0.497035
v -0.500000 0.000000 -0.897035
v -0.500000 -0.000000 -0.497035
v -0.490393 0.097545 -0.897035
v -0.490393 0.097545 -0.497035
v -0.461940 0.191342 -0.897035
v -0.461940 0.191342 -0.497035
v -0.415735 0.277785 -0.897035
v -0.415735 0.277785 -0.497035
v -0.353553 0.353553 -0.897035
v -0.353553 0.353553 -0.497035
v -0.277785 0.415735 -0.897035
v -0.277785 0.415735 -0.497035
v -0.191342 0.461940 -0.897035
v -0.191342 0.461940 -0.497035
v -0.097545 0.490393 -0.897035
v -0.097545 0.490393 -0.497035
vn 0.0980 0.9952 -0.0000
vn 0.2903 0.9569 -0.0000
vn 0.4714 0.8819 -0.0000
vn 0.6344 0.7730 -0.0000
vn 0.7730 0.6344 -0.0000
vn 0.8819 0.4714 -0.0000
vn 0.9569 0.2903 -0.0000
vn 0.9952 0.0980 -0.0000
vn 0.9952 -0.0980 -0.0000
vn 0.9569 -0.2903 -0.0000
vn 0.8819 -0.4714 -0.0000
vn 0.7730 -0.6344 -0.0000
vn 0.6344 -0.7730 -0.0000
vn 0.4714 -0.8819 -0.0000
vn 0.2903 -0.9569 -0.0000
vn 0.0980 -0.9952 -0.0000
vn -0.0980 -0.9952 -0.0000
vn -0.2903 -0.9569 -0.0000
vn -0.4714 -0.8819 -0.0000
vn -0.6344 -0.7730 -0.0000
vn -0.7730 -0.6344 -0.0000
vn -0.8819 -0.4714 -0.0000
vn -0.9569 -0.2903 -0.0000
vn -0.9952 -0.0980 -0.0000
vn -0.9952 0.0980 -0.0000
vn -0.9569 0.2903 -0.0000
vn -0.8819 0.4714 -0.0000
vn -0.7730 0.6344 -0.0000
vn -0.6344 0.7730 -0.0000
vn -0.4714 0.8819 -0.0000
vn -0.0000 -0.0000 1.0000
vn -0.2903 0.9569 -0.0000
vn -0.0980 0.9952 -0.0000
vn -0.0000 -0.0000 -1.0000
vt 1.000000 0.500000
vt 1.000000 1.000000
vt 0.968750 1.000000
vt 0.968750 0.500000
vt 0.937500 1.000000
vt 0.937500 0.500000
vt 0.906250 1.000000
vt 0.906250 0.500000
vt 0.875000 1.000000
vt 0.875000 0.500000
vt 0.843750 1.000000
vt 0.843750 0.500000
vt 0.812500 1.000000
vt 0.812500 0.500000
vt 0.781250 1.000000
vt 0.781250 0.500000
vt 0.750000 1.000000
vt 0.750000 0.500000
vt 0.718750 1.000000
vt 0.718750 0.500000
vt 0.687500 1.000000
vt 0.687500 0.500000
vt 0.656250 1.000000
vt 0.656250 0.500000
vt 0.625000 1.000000
vt 0.625000 0.500000
vt 0.593750 1.000000
vt 0.593750 0.500000
vt 0.562500 1.000000
vt 0.562500 0.500000
vt 0.531250 1.000000
vt 0.531250 0.500000
vt 0.500000 1.000000
vt 0.500000 0.500000
vt 0.468750 1.000000
vt 0.468750 0.500000
vt 0.437500 1.000000
vt 0.437500 0.500000
vt 0.406250 1.000000
vt 0.406250 0.500000
vt 0.375000 1.000000
vt 0.375000 0.500000
vt 0.343750 1.000000
vt 0.343750 0.500000
vt 0.312500 1.000000
vt 0.312500 0.500000
vt 0.281250 1.000000
vt 0.281250 0.500000
vt 0.250000 1.000000
vt 0.250000 0.500000
vt 0.218750 1.000000
vt 0.218750 0.500000
vt 0.187500 1.000000
vt 0.187500 0.500000
vt 0.156250 1.000000
vt 0.156250 0.500000
vt 0.125000 1.000000
vt 0.125000 0.500000
vt 0.093750 1.000000
vt 0.093750 0.500000
vt 0.062500 1.000000
vt 0.062500 0.500000
vt 0.296822 0.485388
vt 0.250000 0.490000
vt 0.203178 0.485388
vt 0.158156 0.471731
vt 0.116663 0.449553
vt 0.080294 0.419706
vt 0.050447 0.383337
vt 0.028269 0.341844
vt 0.014612 0.296822
vt 0.010000 0.250000
vt 0.014612 0.203178
vt 0.028269 0.158156
vt 0.050447 0.116663
vt 0.080294 0.080294
vt 0.116663 0.050447
vt 0.158156 0.028269
vt 0.203178 0.014612
vt 0.250000 0.010000
vt 0.296822 0.014612
vt 0.341844 0.028269
vt 0.383337 0.050447
vt 0.419706 0.080294
vt 0.449553 0.116663
vt 0.471731 0.158156
vt 0.485388 0.203178
vt 0.490000 0.250000
vt 0.485388 0.296822
vt 0.471731 0.341844
vt 0.449553 0.383337
vt 0.419706 0.419706
vt 0.383337 0.449553
vt 0.341844 0.471731
vt 0.031250 1.000000
vt 0.031250 0.500000
vt 0.000000 1.000000
vt 0.000000 0.500000
vt 0.750000 0.490000
vt 0.796822 0.485388
vt 0.841844 0.471731
vt 0.883337 0.449553
vt 0.919706 0.419706
vt 0.949553 0.383337
vt 0.971731 0.341844
vt 0.985388 0.296822
vt 0.990000 0.250000
vt 0.985388 0.203178
vt 0.971731 0.158156
vt 0.949553 0.116663
vt 0.919706 0.080294
vt 0.883337 0.050447
vt 0.841844 0.028269
vt 0.796822 0.014612
vt 0.750000 0.010000
vt 0.703178 0.014612
vt 0.658156 0.028269
vt 0.616663 0.050447
vt 0.580294 0.080294
vt 0.550447 0.116663
vt 0.528269 0.158156
vt 0.514612 0.203178
vt 0.510000 0.250000
vt 0.514612 0.296822
vt 0.528269 0.341844
vt 0.550447 0.383337
vt 0.580294 0.419706
vt 0.616663 0.449553
vt 0.658156 0.471731
vt 0.703178 0.485388
s 0
usemtl Material.005
f 97/131/35 98/132/35 100/133/35 99/134/35
f 99/134/36 100/133/36 102/135/36 101/136/36
f 101/136/37 102/135/37 104/137/37 103/138/37
f 103/138/38 104/137/38 106/139/38 105/140/38
f 105/140/39 106/139/39 108/141/39 107/142/39
f 107/142/40 108/141/40 110/143/40 109/144/40
f 109/144/41 110/143/41 112/145/41 111/146/41
f 111/146/42 112/145/42 114/147/42 113/148/42
f 113/148/43 114/147/43 116/149/43 115/150/43
f 115/150/44 116/149/44 118/151/44 117/152/44
f 117/152/45 118/151/45 120/153/45 119/154/45
f 119/154/46 120/153/46 122/155/46 121/156/46
f 121/156/47 122/155/47 124/157/47 123/158/47
f 123/158/48 124/157/48 126/159/48 125/160/48
f 125/160/49 126/159/49 128/161/49 127/162/49
f 127/162/50 128/161/50 130/163/50 129/164/50
f 129/164/51 130/163/51 132/165/51 131/166/51
f 131/166/52 132/165/52 134/167/52 133/168/52
f 133/168/53 134/167/53 136/169/53 135/170/53
f 135/170/54 136/169/54 138/171/54 137/172/54
f 137/172/55 138/171/55 140/173/55 139/174/55
f 139/174/56 140/173/56 142/175/56 141/176/56
f 141/176/57 142/175/57 144/177/57 143/178/57
f 143/178/58 144/177/58 146/179/58 145/180/58
f 145/180/59 146/179/59 148/181/59 147/182/59
f 147/182/60 148/181/60 150/183/60 149/184/60
f 149/184/61 150/183/61 152/185/61 151/186/61
f 151/186/62 152/185/62 154/187/62 153/188/62
f 153/188/63 154/187/63 156/189/63 155/190/63
f 155/190/64 156/189/64 158/191/64 157/192/64
f 100/193/65 98/194/65 160/195/65 158/196/65 156/197/65 154/198/65 152/199/65 150/200/65 148/201/65 146/202/65 144/203/65 142/204/65 140/205/65 138/206/65 136/207/65 134/208/65 132/209/65 130/210/65 128/211/65 126/212/65 124/213/65 122/214/65 120/215/65 118/216/65 116/217/65 114/218/65 112/219/65 110/220/65 108/221/65 106/222/65 104/223/65 102/224/65
f 157/192/66 158/191/66 160/225/66 159/226/66
f 159/226/67 160/225/67 98/227/67 97/228/67
f 97/229/68 99/230/68 101/231/68 103/232/68 105/233/68 107/234/68 109/235/68 111/236/68 113/237/68 115/238/68 117/239/68 119/240/68 121/241/68 123/242/68 125/243/68 127/244/68 129/245/68 131/246/68 133/247/68 135/248/68 137/249/68 139/250/68 141/251/68 143/252/68 145/253/68 147/254/68 149/255/68 151/256/68 153/257/68 155/258/68 157/259/68 159/260/68
o Plane
v -1.489707 -0.196015 0.500000
v 0.496991 0.034269 0.500000
v -1.489707 -0.196015 -0.500000
v 0.496991 0.034269 -0.500000
vn -0.1151 0.9933 -0.0000
vt 0.000000 0.000000
vt 1.000000 0.000000
vt 1.000000 1.000000
vt 0.000000 1.000000
s 0
usemtl Material.003
f 161/261/69 162/262/69 164/263/69 163/264/69
o Cylinder.002
v -0.439012 0.341967 -0.444038
v 0.439012 0.475205 -0.444038
v -0.426015 0.256320 -0.435506
v 0.452009 0.389558 -0.435506
v -0.413518 0.173964 -0.410237
v 0.464506 0.307202 -0.410237
v -0.402000 0.098065 -0.369204
v 0.476024 0.231303 -0.369204
v -0.391905 0.031539 -0.313982
v 0.486119 0.164777 -0.313982
v -0.383620 -0.023058 -0.246694
v 0.494404 0.110180 -0.246694
v -0.377464 -0.063627 -0.169926
v 0.500560 0.069611 -0.169926
v -0.373673 -0.088609 -0.086627
v 0.504351 0.044629 -0.086627
v -0.372393 -0.097045 0.000000
v 0.505631 0.036193 0.000000
v -0.373673 -0.088609 0.086628
v 0.504351 0.044629 0.086628
v -0.377464 -0.063627 0.169926
v 0.500560 0.069611 0.169926
v -0.383620 -0.023058 0.246694
v 0.494404 0.110180 0.246694
v -0.391905 0.031539 0.313982
v 0.486119 0.164777 0.313982
v -0.402000 0.098065 0.369204
v 0.476024 0.231303 0.369204
v -0.413518 0.173964 0.410237
v 0.464506 0.307202 0.410237
v -0.426015 0.256320 0.435506
v 0.452009 0.389558 0.435506
v -0.439012 0.341967 0.444038
v 0.439012 0.475205 0.444038
v -0.452009 0.427614 0.435506
v 0.426015 0.560852 0.435506
v -0.464506 0.509970 0.410237
v 0.413518 0.643208 0.410237
v -0.476024 0.585869 0.369204
v 0.402000 0.719107 0.369204
v -0.486119 0.652395 0.313982
v 0.391905 0.785633 0.313982
v -0.494404 0.706992 0.246694
v 0.383620 0.840230 0.246694
v -0.500560 0.747561 0.169926
v 0.377464 0.880799 0.169926
v -0.504351 0.772543 0.086627
v 0.373673 0.905781 0.086627
v -0.505631 0.780979 -0.000000
v 0.372393 0.914217 -0.000000
v -0.504351 0.772543 -0.086628
v 0.373673 0.905781 -0.086628
v -0.500560 0.747561 -0.169926
v 0.377464 0.880799 -0.169926
v -0.494404 0.706992 -0.246694
v 0.383620 0.840230 -0.246694
v -0.486119 0.652395 -0.313982
v 0.391905 0.785633 -0.313982
v -0.476024 0.585869 -0.369204
v 0.402000 0.719107 -0.369204
v -0.464506 0.509970 -0.410237
v 0.413518 0.643208 -0.410237
v -0.452009 0.427614 -0.435506
v 0.426015 0.560852 -0.435506
v -1.679237 0.153766 -0.444038
v -1.666240 0.068119 -0.435506
v -1.653743 -0.014237 -0.410237
v -1.642226 -0.090136 -0.369204
v -1.632130 -0.156662 -0.313982
v -1.623845 -0.211259 -0.246694
v -1.617689 -0.251828 -0.169926
v -1.613898 -0.276811 -0.086627
v -1.612618 -0.285246 0.000000
v -1.613898 -0.276811 0.086628
v -1.617689 -0.251828 0.169926
v -1.623845 -0.211259 0.246694
v -1.632130 -0.156662 0.313982
v -1.642226 -0.090136 0.369204
v -1.653743 -0.014237 0.410237
v -1.666240 0.068119 0.435506
v -1.679237 0.153766 0.444038
v -1.692234 0.239413 0.435506
v -1.704731 0.321769 0.410237
v -1.716249 0.397668 0.369204
v -1.726344 0.464194 0.313982
v -1.734629 0.518791 0.246694
v -1.740785 0.559360 0.169926
v -1.744576 0.584342 0.086627
v -1.745856 0.592778 -0.000000
v -1.744576 0.584342 -0.086628
v -1.740785 0.559360 -0.169926
v -1.734629 0.518791 -0.246694
v -1.726344 0.464194 -0.313982
v -1.716249 0.397668 -0.369204
v -1.704731 0.321769 -0.410237
v -1.692234 0.239413 -0.435506
v -1.679237 0.153766 -0.309267
v -1.670185 0.094114 -0.303324
v -1.661481 0.036754 -0.285725
v -1.653459 -0.016109 -0.257146
v -1.646428 -0.062443 -0.218685
v -1.640657 -0.100469 -0.171819
v -1.636370 -0.128725 -0.118351
v -1.633729 -0.146125 -0.060335
v -1.632838 -0.152000 0.000000
v -1.633729 -0.146125 0.060335
v -1.636370 -0.128725 0.118351
v -1.640657 -0.100469 0.171819
v -1.646428 -0.062443 0.218685
v -1.653459 -0.016109 0.257146
v -1.661481 0.036754 0.285725
v -1.670185 0.094114 0.303324
v -1.679237 0.153766 0.309267
v -1.688289 0.213418 0.303324
v -1.696993 0.270778 0.285725
v -1.705015 0.323641 0.257146
v -1.712046 0.369975 0.218685
v -1.717817 0.408001 0.171819
v -1.722104 0.436257 0.118351
v -1.724745 0.453657 0.060335
v -1.725636 0.459532 -0.000000
v -1.724745 0.453657 -0.060335
v -1.722104 0.436257 -0.118351
v -1.717817 0.408001 -0.171819
v -1.712046 0.369975 -0.218685
v -1.705015 0.323641 -0.257146
v -1.696993 0.270778 -0.285725
v -1.688289 0.213418 -0.303324
v -1.679237 0.153766 -0.309267
v -1.670185 0.094114 -0.303324
v -1.661481 0.036754 -0.285725
v -1.653459 -0.016109 -0.257146
v -1.646428 -0.062443 -0.218685
v -1.640657 -0.100469 -0.171819
v -1.636370 -0.128725 -0.118351
v -1.633729 -0.146125 -0.060335
v -1.632838 -0.152000 0.000000
v -1.633729 -0.146125 0.060335
v -1.636370 -0.128725 0.118351
v -1.640657 -0.100469 0.171819
v -1.646428 -0.062443 0.218685
v -1.653459 -0.016109 0.257146
v -1.661481 0.036754 0.285725
v -1.670185 0.094114 0.303324
v -1.679237 0.153766 0.309267
v -1.688289 0.213418 0.303324
v -1.696993 0.270778 0.285725
v -1.705015 0.323641 0.257146
v -1.712046 0.369975 0.218685
v -1.717817 0.408001 0.171819
v -1.722104 0.436257 0.118351
v -1.724745 0.453657 0.060335
v -1.725636 0.459532 -0.000000
v -1.724745 0.453657 -0.060335
v -1.722104 0.436257 -0.118351
v -1.717817 0.408001 -0.171819
v -1.712046 0.369975 -0.218685
v -1.705015 0.323641 -0.257146
v -1.696993 0.270778 -0.285725
v -1.688289 0.213418 -0.303324
v -1.916690 0.117733 -0.309267
v -1.907638 0.058081 -0.303324
v -1.898934 0.000721 -0.285725
v -1.890912 -0.052142 -0.257146
v -1.883881 -0.098476 -0.218685
v -1.878110 -0.136502 -0.171819
v -1.873823 -0.164758 -0.118351
v -1.871182 -0.182158 -0.060335
v -1.870291 -0.188033 0.000000
v -1.871182 -0.182158 0.060335
v -1.873823 -0.164758 0.118351
v -1.878110 -0.136502 0.171819
v -1.883881 -0.098476 0.218685
v -1.890912 -0.052142 0.257146
v -1.898934 0.000721 0.285725
v -1.907638 0.058081 0.303324
v -1.916690 0.117733 0.309267
v -1.925742 0.177385 0.303324
v -1.934446 0.234745 0.285725
v -1.942468 0.287608 0.257146
v -1.949499 0.333943 0.218685
v -1.955270 0.371969 0.171819
v -1.959557 0.400224 0.118351
v -1.962198 0.417624 0.060335
v -1.963089 0.423499 -0.000000
v -1.962198 0.417624 -0.060335
v -1.959557 0.400224 -0.118351
v -1.955270 0.371969 -0.171819
v -1.949499 0.333943 -0.218685
v -1.942468 0.287608 -0.257146
v -1.934446 0.234745 -0.285725
v -1.925742 0.177385 -0.303324
v -1.916690 0.117733 -0.309267
v -1.907638 0.058081 -0.303324
v -1.898934 0.000721 -0.285725
v -1.890912 -0.052142 -0.257146
v -1.883881 -0.098476 -0.218685
v -1.878110 -0.136502 -0.171819
v -1.873823 -0.164758 -0.118351
v -1.871182 -0.182158 -0.060335
v -1.870291 -0.188033 0.000000
v -1.871182 -0.182158 0.060335
v -1.873823 -0.164758 0.118351
v -1.878110 -0.136502 0.171819
v -1.883881 -0.098476 0.218685
v -1.890912 -0.052142 0.257146
v -1.898934 0.000721 0.285725
v -1.907638 0.058081 0.303324
v -1.916690 0.117733 0.309267
v -1.925742 0.177385 0.303324
v -1.934446 0.234745 0.285725
v -1.942468 0.287608 0.257146
v -1.949499 0.333943 0.218685
v -1.955270 0.371969 0.171819
v -1.959557 0.400224 0.118351
v -1.962198 0.417624 0.060335
v -1.963089 0.423499 -0.000000
v -1.962198 0.417624 -0.060335
v -1.959557 0.400224 -0.118351
v -1.955270 0.371969 -0.171819
v -1.949499 0.333943 -0.218685
v -1.942468 0.287608 -0.257146
v -1.934446 0.234745 -0.285725
v -1.925742 0.177385 -0.303324
v -1.916690 0.117733 -0.248494
v -1.909417 0.069803 -0.243720
v -1.902423 0.023715 -0.229579
v -1.895977 -0.018760 -0.206615
v -1.890328 -0.055990 -0.175712
v -1.885692 -0.086544 -0.138056
v -1.882246 -0.109247 -0.095095
v -1.880125 -0.123228 -0.048479
v -1.879408 -0.127949 0.000000
v -1.880125 -0.123228 0.048479
v -1.882246 -0.109247 0.095095
v -1.885692 -0.086544 0.138056
v -1.890328 -0.055990 0.175712
v -1.895977 -0.018760 0.206615
v -1.902423 0.023715 0.229579
v -1.909417 0.069803 0.243720
v -1.916690 0.117733 0.248494
v -1.923963 0.165663 0.243720
v -1.930957 0.211751 0.229579
v -1.937403 0.254227 0.206615
v -1.943052 0.291456 0.175712
v -1.947688 0.322010 0.138056
v -1.951134 0.344713 0.095095
v -1.953255 0.358694 0.048479
v -1.953972 0.363415 -0.000000
v -1.953255 0.358694 -0.048479
v -1.951134 0.344713 -0.095095
v -1.947688 0.322010 -0.138056
v -1.943052 0.291456 -0.175712
v -1.937403 0.254227 -0.206615
v -1.930957 0.211751 -0.229579
v -1.923963 0.165663 -0.243720
v -2.264202 0.064999 -0.248494
v -2.256929 0.017069 -0.243720
v -2.249935 -0.029019 -0.229579
v -2.243489 -0.071494 -0.206615
v -2.237840 -0.108724 -0.175712
v -2.233203 -0.139278 -0.138056
v -2.229758 -0.161981 -0.095095
v -2.227637 -0.175962 -0.048479
v -2.226920 -0.180683 0.000000
v -2.227637 -0.175962 0.048479
v -2.229758 -0.161981 0.095095
v -2.233203 -0.139278 0.138056
v -2.237840 -0.108724 0.175712
v -2.243489 -0.071494 0.206615
v -2.249935 -0.029019 0.229579
v -2.256929 0.017069 0.243720
v -2.264202 0.064999 0.248494
v -2.271475 0.112929 0.243720
v -2.278469 0.159018 0.229579
v -2.284914 0.201493 0.206615
v -2.290564 0.238722 0.175712
v -2.295200 0.269276 0.138056
v -2.298645 0.291980 0.095095
v -2.300767 0.305960 0.048479
v -2.301483 0.310681 -0.000000
v -2.300767 0.305960 -0.048479
v -2.298645 0.291980 -0.095095
v -2.295200 0.269276 -0.138056
v -2.290564 0.238722 -0.175712
v -2.284914 0.201493 -0.206615
v -2.278469 0.159018 -0.229579
v -2.271475 0.112929 -0.243720
v -2.264202 0.064999 -0.157163
v -2.259602 0.034685 -0.154143
v -2.255178 0.005536 -0.145200
v -2.251102 -0.021328 -0.130676
v -2.247529 -0.044874 -0.111131
v -2.244596 -0.064198 -0.087315
v -2.242418 -0.078557 -0.060144
v -2.241076 -0.087399 -0.030661
v -2.240623 -0.090385 0.000000
v -2.241076 -0.087399 0.030661
v -2.242418 -0.078557 0.060144
v -2.244596 -0.064198 0.087315
v -2.247529 -0.044874 0.111131
v -2.251102 -0.021328 0.130676
v -2.255178 0.005536 0.145200
v -2.259602 0.034685 0.154143
v -2.264202 0.064999 0.157163
v -2.268802 0.095313 0.154143
v -2.273225 0.124462 0.145200
v -2.277302 0.151326 0.130676
v -2.280875 0.174872 0.111131
v -2.283807 0.194197 0.087315
v -2.285986 0.208556 0.060144
v -2.287328 0.217398 0.030661
v -2.287781 0.220383 -0.000000
v -2.287328 0.217398 -0.030661
v -2.285986 0.208556 -0.060144
v -2.283807 0.194197 -0.087315
v -2.280875 0.174872 -0.111131
v -2.277302 0.151326 -0.130676
v -2.273225 0.124462 -0.145200
v -2.268802 0.095313 -0.154143
v -2.497625 0.029578 -0.157163
v -2.493025 -0.000736 -0.154143
v -2.488601 -0.029885 -0.145200
v -2.484525 -0.056749 -0.130676
v -2.480952 -0.080296 -0.111131
v -2.478019 -0.099620 -0.087315
v -2.475840 -0.113979 -0.060144
v -2.474499 -0.122821 -0.030661
v -2.474046 -0.125807 0.000000
v -2.474499 -0.122821 0.030661
v -2.475840 -0.113979 0.060144
v -2.478019 -0.099620 0.087315
v -2.480952 -0.080296 0.111131
v -2.484525 -0.056749 0.130676
v -2.488601 -0.029885 0.145200
v -2.493025 -0.000736 0.154143
v -2.497625 0.029578 0.157163
v -2.502225 0.059892 0.154143
v -2.506648 0.089041 0.145200
v -2.510725 0.115905 0.130676
v -2.514298 0.139451 0.111131
v -2.517230 0.158775 0.087315
v -2.519409 0.173134 0.060144
v -2.520751 0.181976 0.030661
v -2.521204 0.184962 -0.000000
v -2.520751 0.181976 -0.030661
v -2.519409 0.173134 -0.060144
v -2.517230 0.158775 -0.087315
v -2.514298 0.139451 -0.111131
v -2.510725 0.115905 -0.130676
v -2.506648 0.089041 -0.145200
v -2.502225 0.059892 -0.154143
v 1.085958 0.573377 -0.444038
v 1.085958 0.573377 0.444038
v 1.072962 0.659024 0.435506
v 1.060464 0.741380 0.410237
v 1.048947 0.817279 0.369204
v 1.038851 0.883806 0.313982
v 1.030567 0.938403 0.246694
v 1.024410 0.978972 0.169926
v 1.020619 1.003954 0.086627
v 1.019339 1.012389 -0.000000
v 1.020619 1.003954 -0.086628
v 1.024410 0.978972 -0.169926
v 1.030567 0.938403 -0.246694
v 1.038851 0.883806 -0.313982
v 1.048947 0.817279 -0.369204
v 1.060464 0.741380 -0.410237
v 1.072962 0.659024 -0.435506
v 1.096079 0.506682 -0.339138
v 1.085958 0.573377 -0.345782
v 1.105811 0.442550 -0.319461
v 1.114780 0.383445 -0.287508
v 1.122641 0.331640 -0.244505
v 1.129093 0.289124 -0.192106
v 1.133887 0.257532 -0.132325
v 1.136839 0.238078 -0.067459
v 1.137836 0.231509 0.000000
v 1.136839 0.238078 0.067459
v 1.133887 0.257532 0.132325
v 1.129093 0.289124 0.192106
v 1.122641 0.331640 0.244505
v 1.114780 0.383445 0.287508
v 1.105811 0.442550 0.319461
v 1.096079 0.506682 0.339138
v 1.085958 0.573377 0.345782
v 0.574388 0.427517 -0.339138
v 0.564267 0.494212 -0.345782
v 0.584120 0.363385 -0.319461
v 0.593089 0.304280 -0.287508
v 0.600951 0.252474 -0.244505
v 0.607402 0.209959 -0.192106
v 0.612196 0.178367 -0.132325
v 0.615148 0.158912 -0.067459
v 0.616145 0.152343 0.000000
v 0.615148 0.158912 0.067459
v 0.612196 0.178367 0.132325
v 0.607402 0.209959 0.192106
v 0.600951 0.252474 0.244505
v 0.593089 0.304280 0.287508
v 0.584120 0.363385 0.319461
v 0.574388 0.427517 0.339138
v 0.564267 0.494212 0.345782
v 0.554147 0.560907 0.339138
v 0.544415 0.625040 0.319461
v 0.535446 0.684144 0.287508
v 0.527584 0.735950 0.244505
v 0.521133 0.778466 0.192106
v 0.516339 0.810058 0.132325
v 0.513387 0.829512 0.067459
v 0.512390 0.836081 -0.000000
v 0.513387 0.829512 -0.067459
v 0.516339 0.810058 -0.132325
v 0.521133 0.778466 -0.192106
v 0.527584 0.735950 -0.244505
v 0.535446 0.684144 -0.287508
v 0.544415 0.625040 -0.319461
v 0.554147 0.560907 -0.339138
v 0.452009 0.389558 -0.435506
v 0.439012 0.475205 -0.444038
v 0.464506 0.307202 -0.410237
v 0.476024 0.231303 -0.369204
v 0.486119 0.164777 -0.313982
v 0.494404 0.110180 -0.246694
v 0.500560 0.069611 -0.169926
v 0.504351 0.044629 -0.086627
v 0.505631 0.036193 0.000000
v 0.504351 0.044629 0.086628
v 0.500560 0.069611 0.169926
v 0.494404 0.110180 0.246694
v 0.486119 0.164777 0.313982
v 0.476024 0.231303 0.369204
v 0.464506 0.307202 0.410237
v 0.452009 0.389558 0.435506
v 0.439012 0.475205 0.444038
v 1.098955 0.487730 -0.435506
v 1.085958 0.573377 -0.444038
v 1.111452 0.405375 -0.410237
v 1.122970 0.329475 -0.369204
v 1.133065 0.262949 -0.313982
v 1.141350 0.208352 -0.246694
v 1.147506 0.167783 -0.169926
v 1.151297 0.142801 -0.086627
v 1.152577 0.134365 0.000000
v 1.151297 0.142801 0.086628
v 1.147506 0.167783 0.169926
v 1.141350 0.208352 0.246694
v 1.133065 0.262949 0.313982
v 1.122970 0.329475 0.369204
v 1.111452 0.405375 0.410237
v 1.098955 0.487731 0.435506
v 1.085958 0.573377 0.444038
v 1.072962 0.659024 0.435506
v 1.060464 0.741380 0.410237
v 1.048947 0.817279 0.369204
v 1.038851 0.883806 0.313982
v 1.030567 0.938403 0.246694
v 1.024410 0.978972 0.169926
v 1.020619 1.003954 0.086627
v 1.019339 1.012389 -0.000000
v 1.020619 1.003954 -0.086628
v 1.024410 0.978972 -0.169926
v 1.030567 0.938403 -0.246694
v 1.038851 0.883806 -0.313982
v 1.048947 0.817279 -0.369204
v 1.060464 0.741380 -0.410237
v 1.072962 0.659024 -0.435506
v 1.096079 0.506682 -0.339138
v 1.085958 0.573377 -0.345782
v 1.105811 0.442550 -0.319461
v 1.114780 0.383445 -0.287508
v 1.122641 0.331640 -0.244505
v 1.129093 0.289124 -0.192106
v 1.133887 0.257532 -0.132325
v 1.136839 0.238078 -0.067459
v 1.137836 0.231509 0.000000
v 1.136839 0.238078 0.067459
v 1.133887 0.257532 0.132325
v 1.129093 0.289124 0.192106
v 1.122641 0.331640 0.244505
v 1.114780 0.383445 0.287508
v 1.105811 0.442550 0.319461
v 1.096079 0.506682 0.339138
v 1.085958 0.573377 0.345782
v 1.075837 0.640073 0.339138
v 1.066105 0.704205 0.319461
v 1.057137 0.763310 0.287508
v 1.049275 0.815115 0.244505
v 1.042824 0.857631 0.192106
v 1.038029 0.889223 0.132325
v 1.035077 0.908677 0.067459
v 1.034081 0.915246 -0.000000
v 1.035077 0.908677 -0.067459
v 1.038029 0.889223 -0.132325
v 1.042824 0.857631 -0.192106
v 1.049275 0.815115 -0.244505
v 1.057137 0.763309 -0.287508
v 1.066105 0.704205 -0.319461
v 1.075837 0.640073 -0.339138
v 0.584120 0.363385 0.319461
v 0.593089 0.304280 0.287508
v 0.554147 0.560907 0.339138
v 0.564267 0.494212 0.345782
v 0.544415 0.625040 0.319461
v 0.535446 0.684144 0.287508
v 0.527584 0.735950 0.244505
v 0.521133 0.778466 0.192106
v 0.516339 0.810058 0.132325
v 0.513387 0.829512 0.067459
v 0.512390 0.836081 -0.000000
v 0.513387 0.829512 -0.067459
v 0.516339 0.810058 -0.132325
v 0.521133 0.778466 -0.192106
v 0.527584 0.735950 -0.244505
v 0.535446 0.684144 -0.287508
v 0.544415 0.625040 -0.319461
v 0.554147 0.560907 -0.339138
v 0.564267 0.494212 -0.345782
vn 0.0147 -0.0969 -0.9952
vn 0.0436 -0.2870 -0.9569
vn 0.0707 -0.4661 -0.8819
vn 0.0952 -0.6272 -0.7730
vn 0.1160 -0.7643 -0.6344
vn 0.1323 -0.8719 -0.4714
vn 0.1436 -0.9461 -0.2903
vn 0.1493 -0.9839 -0.0980
vn 0.1493 -0.9839 0.0980
vn 0.1436 -0.9461 0.2903
vn 0.1323 -0.8719 0.4714
vn 0.1160 -0.7643 0.6344
vn 0.0952 -0.6272 0.7730
vn 0.0707 -0.4661 0.8819
vn 0.0436 -0.2870 0.9569
vn 0.0147 -0.0969 0.9952
vn -0.0147 0.0969 0.9952
vn -0.0436 0.2870 0.9569
vn -0.0707 0.4661 0.8819
vn -0.0952 0.6272 0.7730
vn -0.1160 0.7643 0.6344
vn -0.1323 0.8719 0.4714
vn -0.1436 0.9461 0.2903
vn -0.1493 0.9839 0.0980
vn -0.1493 0.9839 -0.0980
vn -0.1436 0.9461 -0.2903
vn -0.1323 0.8719 -0.4714
vn -0.1160 0.7643 -0.6344
vn -0.0952 0.6272 -0.7730
vn -0.0707 0.4661 -0.8819
vn 0.9887 0.1500 -0.0000
vn -0.0436 0.2870 -0.9569
vn -0.0147 0.0969 -0.9952
vn -0.9887 -0.1500 -0.0000
vt 1.000000 0.500000
vt 1.000000 1.000000
vt 0.968750 1.000000
vt 0.968750 0.500000
vt 0.937500 1.000000
vt 0.937500 0.500000
vt 0.906250 1.000000
vt 0.906250 0.500000
vt 0.875000 1.000000
vt 0.875000 0.500000
vt 0.843750 1.000000
vt 0.843750 0.500000
vt 0.812500 1.000000
vt 0.812500 0.500000
vt 0.781250 1.000000
vt 0.781250 0.500000
vt 0.750000 1.000000
vt 0.750000 0.500000
vt 0.718750 1.000000
vt 0.718750 0.500000
vt 0.687500 1.000000
vt 0.687500 0.500000
vt 0.656250 1.000000
vt 0.656250 0.500000
vt 0.625000 1.000000
vt 0.625000 0.500000
vt 0.593750 1.000000
vt 0.593750 0.500000
vt 0.562500 1.000000
vt 0.562500 0.500000
vt 0.531250 1.000000
vt 0.531250 0.500000
vt 0.500000 1.000000
vt 0.500000 0.500000
vt 0.468750 1.000000
vt 0.468750 0.500000
vt 0.437500 1.000000
vt 0.437500 0.500000
vt 0.406250 1.000000
vt 0.406250 0.500000
vt 0.375000 1.000000
vt 0.375000 0.500000
vt 0.343750 1.000000
vt 0.343750 0.500000
vt 0.312500 1.000000
vt 0.312500 0.500000
vt 0.281250 1.000000
vt 0.281250 0.500000
vt 0.250000 1.000000
vt 0.250000 0.500000
vt 0.218750 1.000000
vt 0.218750 0.500000
vt 0.187500 1.000000
vt 0.187500 0.500000
vt 0.156250 1.000000
vt 0.156250 0.500000
vt 0.125000 1.000000
vt 0.125000 0.500000
vt 0.093750 1.000000
vt 0.093750 0.500000
vt 0.062500 1.000000
vt 0.062500 0.500000
vt 0.031250 1.000000
vt 0.031250 0.500000
vt 0.000000 1.000000
vt 0.000000 0.500000
vt 0.750000 0.490000
vt 0.796822 0.485388
vt 0.841844 0.471731
vt 0.883337 0.449553
vt 0.919706 0.419706
vt 0.949553 0.383337
vt 0.971731 0.341844
vt 0.985388 0.296822
vt 0.990000 0.250000
vt 0.985388 0.203178
vt 0.971731 0.158156
vt 0.949553 0.116663
vt 0.919706 0.080294
vt 0.883337 0.050447
vt 0.841844 0.028269
vt 0.796822 0.014612
vt 0.750000 0.010000
vt 0.703178 0.014612
vt 0.658156 0.028269
vt 0.616663 0.050447
vt 0.580294 0.080294
vt 0.550447 0.116663
vt 0.528269 0.158156
vt 0.514612 0.203178
vt 0.510000 0.250000
vt 0.514612 0.296822
vt 0.528269 0.341844
vt 0.550447 0.383337
vt 0.580294 0.419706
vt 0.616663 0.449553
vt 0.658156 0.471731
vt 0.703178 0.485388
vt 0.203178 0.485388
vt 0.250000 0.490000
vt 0.158156 0.471731
vt 0.116663 0.449553
vt 0.080294 0.419706
vt 0.050447 0.383337
vt 0.028269 0.341844
vt 0.014612 0.296822
vt 0.010000 0.250000
vt 0.014612 0.203178
vt 0.028269 0.158156
vt 0.050447 0.116663
vt 0.080294 0.080294
vt 0.296822 0.485388
vt 0.116663 0.050447
vt 0.158156 0.028269
vt 0.203178 0.014612
vt 0.250000 0.010000
vt 0.296822 0.014612
vt 0.341844 0.028269
vt 0.383337 0.050447
vt 0.419706 0.080294
vt 0.449553 0.116663
vt 0.471731 0.158156
vt 0.485388 0.203178
vt 0.490000 0.250000
vt 0.485388 0.296822
vt 0.471731 0.341844
vt 0.449553 0.383337
vt 0.419706 0.419706
vt 0.383337 0.449553
vt 0.341844 0.471731
s 0
usemtl Material.002
f 165/265/70 166/266/70 168/267/70 167/268/70
f 167/268/71 168/267/71 170/269/71 169/270/71
f 169/270/72 170/269/72 172/271/72 171/272/72
f 171/272/73 172/271/73 174/273/73 173/274/73
f 173/274/74 174/273/74 176/275/74 175/276/74
f 175/276/75 176/275/75 178/277/75 177/278/75
f 177/278/76 178/277/76 180/279/76 179/280/76
f 179/280/77 180/279/77 182/281/77 181/282/77
f 181/282/78 182/281/78 184/283/78 183/284/78
f 183/284/79 184/283/79 186/285/79 185/286/79
f 185/286/80 186/285/80 188/287/80 187/288/80
f 187/288/81 188/287/81 190/289/81 189/290/81
f 189/290/82 190/289/82 192/291/82 191/292/82
f 191/292/83 192/291/83 194/293/83 193/294/83
f 193/294/84 194/293/84 196/295/84 195/296/84
f 195/296/85 196/295/85 198/297/85 197/298/85
f 197/298/86 198/297/86 200/299/86 199/300/86
f 199/300/87 200/299/87 202/301/87 201/302/87
f 201/302/88 202/301/88 204/303/88 203/304/88
f 203/304/89 204/303/89 206/305/89 205/306/89
f 205/306/90 206/305/90 208/307/90 207/308/90
f 207/308/91 208/307/91 210/309/91 209/310/91
f 209/310/92 210/309/92 212/311/92 211/312/92
f 211/312/93 212/311/93 214/313/93 213/314/93
f 213/314/94 214/313/94 216/315/94 215/316/94
f 215/316/95 216/315/95 218/317/95 217/318/95
f 217/318/96 218/317/96 220/319/96 219/320/96
f 219/320/97 220/319/97 222/321/97 221/322/97
f 221/322/98 222/321/98 224/323/98 223/324/98
f 223/324/99 224/323/99 226/325/99 225/326/99
f 198/297/100 196/295/100 598/295/100 599/297/100
f 225/326/101 226/325/101 228/327/101 227/328/101
f 227/328/102 228/327/102 166/329/102 165/330/102
f 195/296/85 197/298/85 245/298/85 244/296/85
f 246/300/103 247/302/103 279/302/103 278/300/103
f 213/314/94 215/316/94 254/316/94 253/314/94
f 169/270/72 171/272/72 232/272/72 231/270/72
f 187/288/81 189/290/81 241/290/81 240/288/81
f 205/306/90 207/308/90 250/308/90 249/306/90
f 223/324/99 225/326/99 259/326/99 258/324/99
f 179/280/77 181/282/77 237/282/77 236/280/77
f 197/298/86 199/300/86 246/300/86 245/298/86
f 215/316/95 217/318/95 255/318/95 254/316/95
f 171/272/73 173/274/73 233/274/73 232/272/73
f 189/290/82 191/292/82 242/292/82 241/290/82
f 207/308/91 209/310/91 251/310/91 250/308/91
f 225/326/101 227/328/101 260/328/101 259/326/101
f 181/282/78 183/284/78 238/284/78 237/282/78
f 199/300/87 201/302/87 247/302/87 246/300/87
f 217/318/96 219/320/96 256/320/96 255/318/96
f 173/274/74 175/276/74 234/276/74 233/274/74
f 191/292/83 193/294/83 243/294/83 242/292/83
f 209/310/92 211/312/92 252/312/92 251/310/92
f 165/265/70 167/268/70 230/268/70 229/265/70
f 227/328/102 165/330/102 229/330/102 260/328/102
f 183/284/79 185/286/79 239/286/79 238/284/79
f 201/302/88 203/304/88 248/304/88 247/302/88
f 219/320/97 221/322/97 257/322/97 256/320/97
f 175/276/75 177/278/75 235/278/75 234/276/75
f 193/294/84 195/296/84 244/296/84 243/294/84
f 211/312/93 213/314/93 253/314/93 252/312/93
f 167/268/71 169/270/71 231/270/71 230/268/71
f 185/286/80 187/288/80 240/288/80 239/286/80
f 203/304/89 205/306/89 249/306/89 248/304/89
f 221/322/98 223/324/98 258/324/98 257/322/98
f 177/278/76 179/280/76 236/280/76 235/278/76
f 281/306/100 282/308/100 314/308/100 313/306/100
f 233/274/103 234/276/103 266/276/103 265/274/103
f 260/328/103 229/330/103 261/330/103 292/328/103
f 247/302/103 248/304/103 280/304/103 279/302/103
f 234/276/103 235/278/103 267/278/103 266/276/103
f 248/304/103 249/306/103 281/306/103 280/304/103
f 235/278/103 236/280/103 268/280/103 267/278/103
f 249/306/103 250/308/103 282/308/103 281/306/103
f 236/280/103 237/282/103 269/282/103 268/280/103
f 250/308/103 251/310/103 283/310/103 282/308/103
f 237/282/103 238/284/103 270/284/103 269/282/103
f 251/310/103 252/312/103 284/312/103 283/310/103
f 238/284/103 239/286/103 271/286/103 270/284/103
f 252/312/103 253/314/103 285/314/103 284/312/103
f 239/286/103 240/288/103 272/288/103 271/286/103
f 253/314/103 254/316/103 286/316/103 285/314/103
f 240/288/103 241/290/103 273/290/103 272/288/103
f 254/316/103 255/318/103 287/318/103 286/316/103
f 241/290/103 242/292/103 274/292/103 273/290/103
f 255/318/103 256/320/103 288/320/103 287/318/103
f 242/292/103 243/294/103 275/294/103 274/292/103
f 229/265/103 230/268/103 262/268/103 261/265/103
f 256/320/103 257/322/103 289/322/103 288/320/103
f 243/294/103 244/296/103 276/296/103 275/294/103
f 230/268/103 231/270/103 263/270/103 262/268/103
f 257/322/103 258/324/103 290/324/103 289/322/103
f 244/296/103 245/298/103 277/298/103 276/296/103
f 231/270/103 232/272/103 264/272/103 263/270/103
f 258/324/103 259/326/103 291/326/103 290/324/103
f 245/298/103 246/300/103 278/300/103 277/298/103
f 232/272/103 233/274/103 265/274/103 264/272/103
f 259/326/103 260/328/103 292/328/103 291/326/103
f 316/312/93 317/314/93 349/314/93 348/312/93
f 268/280/100 269/282/100 301/282/100 300/280/100
f 282/308/100 283/310/100 315/310/100 314/308/100
f 269/282/100 270/284/100 302/284/100 301/282/100
f 283/310/100 284/312/100 316/312/100 315/310/100
f 270/284/100 271/286/100 303/286/100 302/284/100
f 284/312/100 285/314/100 317/314/100 316/312/100
f 271/286/100 272/288/100 304/288/100 303/286/100
f 285/314/100 286/316/100 318/316/100 317/314/100
f 272/288/100 273/290/100 305/290/100 304/288/100
f 286/316/100 287/318/100 319/318/100 318/316/100
f 273/290/100 274/292/100 306/292/100 305/290/100
f 287/318/100 288/320/100 320/320/100 319/318/100
f 274/292/100 275/294/100 307/294/100 306/292/100
f 261/265/100 262/268/100 294/268/100 293/265/100
f 288/320/100 289/322/100 321/322/100 320/320/100
f 275/294/100 276/296/100 308/296/100 307/294/100
f 262/268/100 263/270/100 295/270/100 294/268/100
f 289/322/100 290/324/100 322/324/100 321/322/100
f 276/296/100 277/298/100 309/298/100 308/296/100
f 263/270/100 264/272/100 296/272/100 295/270/100
f 290/324/100 291/326/100 323/326/100 322/324/100
f 277/298/100 278/300/100 310/300/100 309/298/100
f 264/272/100 265/274/100 297/274/100 296/272/100
f 291/326/100 292/328/100 324/328/100 323/326/100
f 278/300/100 279/302/100 311/302/100 310/300/100
f 265/274/100 266/276/100 298/276/100 297/274/100
f 292/328/100 261/330/100 293/330/100 324/328/100
f 279/302/100 280/304/100 312/304/100 311/302/100
f 266/276/100 267/278/100 299/278/100 298/276/100
f 280/304/100 281/306/100 313/306/100 312/304/100
f 267/278/100 268/280/100 300/280/100 299/278/100
f 351/318/100 352/320/100 384/320/100 383/318/100
f 303/286/80 304/288/80 336/288/80 335/286/80
f 317/314/94 318/316/94 350/316/94 349/314/94
f 304/288/81 305/290/81 337/290/81 336/288/81
f 318/316/95 319/318/95 351/318/95 350/316/95
f 305/290/82 306/292/82 338/292/82 337/290/82
f 319/318/96 320/320/96 352/320/96 351/318/96
f 306/292/83 307/294/83 339/294/83 338/292/83
f 293/265/70 294/268/70 326/268/70 325/265/70
f 320/320/97 321/322/97 353/322/97 352/320/97
f 307/294/84 308/296/84 340/296/84 339/294/84
f 294/268/71 295/270/71 327/270/71 326/268/71
f 321/322/98 322/324/98 354/324/98 353/322/98
f 308/296/85 309/298/85 341/298/85 340/296/85
f 295/270/72 296/272/72 328/272/72 327/270/72
f 322/324/99 323/326/99 355/326/99 354/324/99
f 309/298/86 310/300/86 342/300/86 341/298/86
f 296/272/73 297/274/73 329/274/73 328/272/73
f 323/326/101 324/328/101 356/328/101 355/326/101
f 310/300/87 311/302/87 343/302/87 342/300/87
f 297/274/74 298/276/74 330/276/74 329/274/74
f 324/328/102 293/330/102 325/330/102 356/328/102
f 311/302/88 312/304/88 344/304/88 343/302/88
f 298/276/75 299/278/75 331/278/75 330/276/75
f 312/304/89 313/306/89 345/306/89 344/304/89
f 299/278/76 300/280/76 332/280/76 331/278/76
f 313/306/90 314/308/90 346/308/90 345/306/90
f 300/280/77 301/282/77 333/282/77 332/280/77
f 314/308/91 315/310/91 347/310/91 346/308/91
f 301/282/78 302/284/78 334/284/78 333/282/78
f 315/310/92 316/312/92 348/312/92 347/310/92
f 302/284/79 303/286/79 335/286/79 334/284/79
f 386/324/103 387/326/103 419/326/103 418/324/103
f 338/292/100 339/294/100 371/294/100 370/292/100
f 325/265/100 326/268/100 358/268/100 357/265/100
f 352/320/100 353/322/100 385/322/100 384/320/100
f 339/294/100 340/296/100 372/296/100 371/294/100
f 326/268/100 327/270/100 359/270/100 358/268/100
f 353/322/100 354/324/100 386/324/100 385/322/100
f 340/296/100 341/298/100 373/298/100 372/296/100
f 327/270/100 328/272/100 360/272/100 359/270/100
f 354/324/100 355/326/100 387/326/100 386/324/100
f 341/298/100 342/300/100 374/300/100 373/298/100
f 328/272/100 329/274/100 361/274/100 360/272/100
f 355/326/100 356/328/100 388/328/100 387/326/100
f 342/300/100 343/302/100 375/302/100 374/300/100
f 329/274/100 330/276/100 362/276/100 361/274/100
f 356/328/100 325/330/100 357/330/100 388/328/100
f 343/302/100 344/304/100 376/304/100 375/302/100
f 330/276/100 331/278/100 363/278/100 362/276/100
f 344/304/100 345/306/100 377/306/100 376/304/100
f 331/278/100 332/280/100 364/280/100 363/278/100
f 345/306/100 346/308/100 378/308/100 377/306/100
f 332/280/100 333/282/100 365/282/100 364/280/100
f 346/308/100 347/310/100 379/310/100 378/308/100
f 333/282/100 334/284/100 366/284/100 365/282/100
f 347/310/100 348/312/100 380/312/100 379/310/100
f 334/284/100 335/286/100 367/286/100 366/284/100
f 348/312/100 349/314/100 381/314/100 380/312/100
f 335/286/100 336/288/100 368/288/100 367/286/100
f 349/314/100 350/316/100 382/316/100 381/314/100
f 336/288/100 337/290/100 369/290/100 368/288/100
f 350/316/100 351/318/100 383/318/100 382/316/100
f 337/290/100 338/292/100 370/292/100 369/290/100
f 408/304/89 409/306/89 441/306/89 440/304/89
f 373/298/103 374/300/103 406/300/103 405/298/103
f 360/272/103 361/274/103 393/274/103 392/272/103
f 387/326/103 388/328/103 420/328/103 419/326/103
f 374/300/103 375/302/103 407/302/103 406/300/103
f 361/274/103 362/276/103 394/276/103 393/274/103
f 388/328/103 357/330/103 389/330/103 420/328/103
f 375/302/103 376/304/103 408/304/103 407/302/103
f 362/276/103 363/278/103 395/278/103 394/276/103
f 376/304/103 377/306/103 409/306/103 408/304/103
f 363/278/103 364/280/103 396/280/103 395/278/103
f 377/306/103 378/308/103 410/308/103 409/306/103
f 364/280/103 365/282/103 397/282/103 396/280/103
f 378/308/103 379/310/103 411/310/103 410/308/103
f 365/282/103 366/284/103 398/284/103 397/282/103
f 379/310/103 380/312/103 412/312/103 411/310/103
f 366/284/103 367/286/103 399/286/103 398/284/103
f 380/312/103 381/314/103 413/314/103 412/312/103
f 367/286/103 368/288/103 400/288/103 399/286/103
f 381/314/103 382/316/103 414/316/103 413/314/103
f 368/288/103 369/290/103 401/290/103 400/288/103
f 382/316/103 383/318/103 415/318/103 414/316/103
f 369/290/103 370/292/103 402/292/103 401/290/103
f 383/318/103 384/320/103 416/320/103 415/318/103
f 370/292/103 371/294/103 403/294/103 402/292/103
f 357/265/103 358/268/103 390/268/103 389/265/103
f 384/320/103 385/322/103 417/322/103 416/320/103
f 371/294/103 372/296/103 404/296/103 403/294/103
f 358/268/103 359/270/103 391/270/103 390/268/103
f 385/322/103 386/324/103 418/324/103 417/322/103
f 372/296/103 373/298/103 405/298/103 404/296/103
f 359/270/103 360/272/103 392/272/103 391/270/103
f 443/310/103 444/312/103 476/312/103 475/310/103
f 395/278/76 396/280/76 428/280/76 427/278/76
f 409/306/90 410/308/90 442/308/90 441/306/90
f 396/280/77 397/282/77 429/282/77 428/280/77
f 410/308/91 411/310/91 443/310/91 442/308/91
f 397/282/78 398/284/78 430/284/78 429/282/78
f 411/310/92 412/312/92 444/312/92 443/310/92
f 398/284/79 399/286/79 431/286/79 430/284/79
f 412/312/93 413/314/93 445/314/93 444/312/93
f 399/286/80 400/288/80 432/288/80 431/286/80
f 413/314/94 414/316/94 446/316/94 445/314/94
f 400/288/81 401/290/81 433/290/81 432/288/81
f 414/316/95 415/318/95 447/318/95 446/316/95
f 401/290/82 402/292/82 434/292/82 433/290/82
f 415/318/96 416/320/96 448/320/96 447/318/96
f 402/292/83 403/294/83 435/294/83 434/292/83
f 389/265/70 390/268/70 422/268/70 421/265/70
f 416/320/97 417/322/97 449/322/97 448/320/97
f 403/294/84 404/296/84 436/296/84 435/294/84
f 390/268/71 391/270/71 423/270/71 422/268/71
f 417/322/98 418/324/98 450/324/98 449/322/98
f 404/296/85 405/298/85 437/298/85 436/296/85
f 391/270/72 392/272/72 424/272/72 423/270/72
f 418/324/99 419/326/99 451/326/99 450/324/99
f 405/298/86 406/300/86 438/300/86 437/298/86
f 392/272/73 393/274/73 425/274/73 424/272/73
f 419/326/101 420/328/101 452/328/101 451/326/101
f 406/300/87 407/302/87 439/302/87 438/300/87
f 393/274/74 394/276/74 426/276/74 425/274/74
f 420/328/102 389/330/102 421/330/102 452/328/102
f 407/302/88 408/304/88 440/304/88 439/302/88
f 394/276/75 395/278/75 427/278/75 426/276/75
f 478/316/95 479/318/95 511/318/95 510/316/95
f 430/284/103 431/286/103 463/286/103 462/284/103
f 444/312/103 445/314/103 477/314/103 476/312/103
f 431/286/103 432/288/103 464/288/103 463/286/103
f 445/314/103 446/316/103 478/316/103 477/314/103
f 432/288/103 433/290/103 465/290/103 464/288/103
f 446/316/103 447/318/103 479/318/103 478/316/103
f 433/290/103 434/292/103 466/292/103 465/290/103
f 447/318/103 448/320/103 480/320/103 479/318/103
f 434/292/103 435/294/103 467/294/103 466/292/103
f 421/265/103 422/268/103 454/268/103 453/265/103
f 448/320/103 449/322/103 481/322/103 480/320/103
f 435/294/103 436/296/103 468/296/103 467/294/103
f 422/268/103 423/270/103 455/270/103 454/268/103
f 449/322/103 450/324/103 482/324/103 481/322/103
f 436/296/103 437/298/103 469/298/103 468/296/103
f 423/270/103 424/272/103 456/272/103 455/270/103
f 450/324/103 451/326/103 483/326/103 482/324/103
f 437/298/103 438/300/103 470/300/103 469/298/103
f 424/272/103 425/274/103 457/274/103 456/272/103
f 451/326/103 452/328/103 484/328/103 483/326/103
f 438/300/103 439/302/103 471/302/103 470/300/103
f 425/274/103 426/276/103 458/276/103 457/274/103
f 452/328/103 421/330/103 453/330/103 484/328/103
f 439/302/103 440/304/103 472/304/103 471/302/103
f 426/276/103 427/278/103 459/278/103 458/276/103
f 440/304/103 441/306/103 473/306/103 472/304/103
f 427/278/103 428/280/103 460/280/103 459/278/103
f 441/306/103 442/308/103 474/308/103 473/306/103
f 428/280/103 429/282/103 461/282/103 460/280/103
f 442/308/103 443/310/103 475/310/103 474/308/103
f 429/282/103 430/284/103 462/284/103 461/282/103
f 485/331/103 486/332/103 487/333/103 488/334/103 489/335/103 490/336/103 491/337/103 492/338/103 493/339/103 494/340/103 495/341/103 496/342/103 497/343/103 498/344/103 499/345/103 500/346/103 501/347/103 502/348/103 503/349/103 504/350/103 505/351/103 506/352/103 507/353/103 508/354/103 509/355/103 510/356/103 511/357/103 512/358/103 513/359/103 514/360/103 515/361/103 516/362/103
f 465/290/82 466/292/82 498/292/82 497/290/82
f 479/318/96 480/320/96 512/320/96 511/318/96
f 466/292/83 467/294/83 499/294/83 498/292/83
f 453/265/70 454/268/70 486/268/70 485/265/70
f 480/320/97 481/322/97 513/322/97 512/320/97
f 467/294/84 468/296/84 500/296/84 499/294/84
f 454/268/71 455/270/71 487/270/71 486/268/71
f 481/322/98 482/324/98 514/324/98 513/322/98
f 468/296/85 469/298/85 501/298/85 500/296/85
f 455/270/72 456/272/72 488/272/72 487/270/72
f 482/324/99 483/326/99 515/326/99 514/324/99
f 469/298/86 470/300/86 502/300/86 501/298/86
f 456/272/73 457/274/73 489/274/73 488/272/73
f 483/326/101 484/328/101 516/328/101 515/326/101
f 470/300/87 471/302/87 503/302/87 502/300/87
f 457/274/74 458/276/74 490/276/74 489/274/74
f 484/328/102 453/330/102 485/330/102 516/328/102
f 471/302/88 472/304/88 504/304/88 503/302/88
f 458/276/75 459/278/75 491/278/75 490/276/75
f 472/304/89 473/306/89 505/306/89 504/304/89
f 459/278/76 460/280/76 492/280/76 491/278/76
f 473/306/90 474/308/90 506/308/90 505/306/90
f 460/280/77 461/282/77 493/282/77 492/280/77
f 474/308/91 475/310/91 507/310/91 506/308/91
f 461/282/78 462/284/78 494/284/78 493/282/78
f 475/310/92 476/312/92 508/312/92 507/310/92
f 462/284/79 463/286/79 495/286/79 494/284/79
f 476/312/93 477/314/93 509/314/93 508/312/93
f 463/286/80 464/288/80 496/288/80 495/286/80
f 477/314/94 478/316/94 510/316/94 509/314/94
f 464/288/81 465/290/81 497/290/81 496/288/81
f 180/279/100 178/277/100 589/277/100 590/279/100
f 532/325/100 531/323/100 629/323/100 630/325/100
f 216/315/94 214/313/94 526/313/94 527/315/94
f 531/323/100 530/321/100 628/321/100 629/323/100
f 582/363/100 552/364/100 682/364/100 681/363/100
f 208/307/90 206/305/90 522/305/90 523/307/90
f 226/325/99 224/323/99 531/323/99 532/325/99
f 530/321/100 529/319/100 627/319/100 628/321/100
f 200/299/86 198/297/86 518/297/86 519/299/86
f 218/317/95 216/315/95 527/315/95 528/317/95
f 196/295/100 194/293/100 597/293/100 598/295/100
f 581/365/100 582/363/100 681/363/100 680/365/100
f 210/309/91 208/307/91 523/307/91 524/309/91
f 228/327/101 226/325/101 532/325/101 533/327/101
f 549/295/100 550/297/100 648/297/100 647/295/100
f 202/301/87 200/299/87 519/299/87 520/301/87
f 220/319/96 218/317/96 528/317/96 529/319/96
f 178/277/100 176/275/100 588/275/100 589/277/100
f 529/319/100 528/317/100 626/317/100 627/319/100
f 212/311/92 210/309/92 524/309/92 525/311/92
f 580/366/100 581/365/100 680/365/100 679/366/100
f 166/329/102 228/327/102 533/327/102 517/329/102
f 548/293/100 549/295/100 647/295/100 646/293/100
f 204/303/88 202/301/88 520/301/88 521/303/88
f 222/321/97 220/319/97 529/319/97 530/321/97
f 528/317/100 527/315/100 625/315/100 626/317/100
f 579/367/100 580/366/100 679/366/100 678/367/100
f 214/313/93 212/311/93 525/311/93 526/313/93
f 527/315/100 526/313/100 624/313/100 625/315/100
f 194/293/100 192/291/100 596/291/100 597/293/100
f 206/305/89 204/303/89 521/303/89 522/305/89
f 224/323/98 222/321/98 530/321/98 531/323/98
f 542/281/93 541/279/93 558/279/93 559/281/93
f 578/368/100 579/367/100 678/367/100 677/368/100
f 550/297/100 567/297/100 667/297/100 648/297/100
f 546/289/100 547/291/100 645/291/100 644/289/100
f 176/275/100 174/273/100 587/273/100 588/275/100
f 526/313/100 525/311/100 623/311/100 624/313/100
f 577/369/100 578/368/100 677/368/100 676/369/100
f 545/287/100 546/289/100 644/289/100 643/287/100
f 525/311/100 524/309/100 622/309/100 623/311/100
f 576/370/100 577/369/100 676/369/100 675/370/100
f 544/285/100 545/287/100 643/287/100 642/285/100
f 524/309/100 523/307/100 621/307/100 622/309/100
f 192/291/100 190/289/100 595/289/100 596/291/100
f 575/371/100 576/370/100 675/370/100 674/371/100
f 543/283/100 544/285/100 642/285/100 641/283/100
f 174/273/100 172/271/100 586/271/100 587/273/100
f 523/307/100 522/305/100 620/305/100 621/307/100
f 574/372/100 575/371/100 674/371/100 673/372/100
f 542/281/100 543/283/100 641/283/100 640/281/100
f 522/305/100 521/303/100 619/303/100 620/305/100
f 573/373/100 574/372/100 673/372/100 672/373/100
f 541/279/100 542/281/100 640/281/100 639/279/100
f 521/303/100 520/301/100 618/301/100 619/303/100
f 190/289/100 188/287/100 594/287/100 595/289/100
f 572/374/100 573/373/100 672/373/100 671/374/100
f 552/266/100 535/266/100 633/266/100 682/266/100
f 540/277/100 541/279/100 639/279/100 638/277/100
f 172/271/100 170/269/100 585/269/100 586/271/100
f 520/301/100 519/299/100 617/299/100 618/301/100
f 571/375/100 572/374/100 671/374/100 670/375/100
f 565/293/100 548/293/100 646/293/100 664/293/100
f 539/275/100 540/277/100 638/277/100 637/275/100
f 551/376/100 552/364/100 582/363/100 581/365/100 580/366/100 579/367/100 578/368/100 577/369/100 576/370/100 575/371/100 574/372/100 573/373/100 572/374/100 571/375/100 570/377/100 569/378/100 568/379/100 567/380/100 566/381/100 565/382/100 564/383/100 563/384/100 562/385/100 561/386/100 560/387/100 559/388/100 558/389/100 557/390/100 556/391/100 555/392/100 554/393/100 553/394/100
f 519/299/100 518/297/100 616/297/100 617/299/100
f 543/283/94 542/281/94 559/281/94 560/283/94
f 570/377/100 571/375/100 670/375/100 669/377/100
f 544/285/95 543/283/95 560/283/95 561/285/95
f 538/273/100 539/275/100 637/275/100 636/273/100
f 545/287/96 544/285/96 561/285/96 562/287/96
f 188/287/100 186/285/100 593/285/100 594/287/100
f 546/289/97 545/287/97 562/287/97 563/289/97
f 569/378/100 570/377/100 669/377/100 668/378/100
f 547/291/98 546/289/98 563/289/98 564/291/98
f 547/291/100 564/291/100 665/291/100 645/291/100
f 537/271/100 538/273/100 636/273/100 635/271/100
f 534/267/86 535/266/86 552/266/86 551/267/86
f 170/269/100 168/267/100 583/267/100 585/269/100
f 549/295/101 548/293/101 565/293/101 566/295/101
f 536/269/87 534/267/87 551/267/87 553/269/87
f 568/379/100 569/378/100 668/378/100 666/379/100
f 550/297/102 549/295/102 566/295/102 567/297/102
f 537/271/88 536/269/88 553/269/88 554/271/88
f 536/269/100 537/271/100 635/271/100 634/269/100
f 567/380/100 568/379/100 666/379/100 667/380/100
f 538/273/89 537/271/89 554/271/89 555/273/89
f 534/267/100 536/269/100 634/269/100 632/267/100
f 186/285/100 184/283/100 592/283/100 593/285/100
f 539/275/90 538/273/90 555/273/90 556/275/90
f 535/266/100 534/267/100 632/267/100 633/266/100
f 168/267/100 166/266/100 584/266/100 583/267/100
f 540/277/91 539/275/91 556/275/91 557/277/91
f 564/383/100 565/382/100 664/382/100 665/383/100
f 541/279/92 540/277/92 557/277/92 558/279/92
f 184/283/100 182/281/100 591/281/100 592/283/100
f 590/279/76 589/277/76 606/277/76 607/279/76
f 605/275/100 604/273/100 636/273/100 637/275/100
f 599/297/85 598/295/85 615/295/85 616/297/85
f 586/271/72 585/269/72 602/269/72 603/271/72
f 595/289/81 594/287/81 611/287/81 612/289/81
f 591/281/77 590/279/77 607/279/77 608/281/77
f 587/273/73 586/271/73 603/271/73 604/273/73
f 596/291/82 595/289/82 612/289/82 613/291/82
f 592/283/78 591/281/78 608/281/78 609/283/78
f 588/275/74 587/273/74 604/273/74 605/275/74
f 597/293/83 596/291/83 613/291/83 614/293/83
f 583/267/70 584/266/70 601/266/70 600/267/70
f 593/285/79 592/283/79 609/283/79 610/285/79
f 589/277/75 588/275/75 605/275/75 606/277/75
f 598/295/84 597/293/84 614/293/84 615/295/84
f 585/269/71 583/267/71 600/267/71 602/269/71
f 594/287/80 593/285/80 610/285/80 611/287/80
f 601/329/100 631/327/100 663/327/100 633/329/100
f 619/303/100 618/301/100 650/301/100 651/303/100
f 606/277/100 605/275/100 637/275/100 638/277/100
f 620/305/100 619/303/100 651/303/100 652/305/100
f 607/279/100 606/277/100 638/277/100 639/279/100
f 621/307/100 620/305/100 652/305/100 653/307/100
f 608/281/100 607/279/100 639/279/100 640/281/100
f 622/309/100 621/307/100 653/307/100 654/309/100
f 609/283/100 608/281/100 640/281/100 641/283/100
f 623/311/100 622/309/100 654/309/100 655/311/100
f 610/285/100 609/283/100 641/283/100 642/285/100
f 624/313/100 623/311/100 655/311/100 656/313/100
f 611/287/100 610/285/100 642/285/100 643/287/100
f 625/315/100 624/313/100 656/313/100 657/315/100
f 612/289/100 611/287/100 643/287/100 644/289/100
f 626/317/100 625/315/100 657/315/100 658/317/100
f 613/291/100 612/289/100 644/289/100 645/291/100
f 627/319/100 626/317/100 658/317/100 659/319/100
f 614/293/100 613/291/100 645/291/100 646/293/100
f 600/267/100 601/266/100 633/266/100 632/267/100
f 628/321/100 627/319/100 659/319/100 660/321/100
f 615/295/100 614/293/100 646/293/100 647/295/100
f 602/269/100 600/267/100 632/267/100 634/269/100
f 629/323/100 628/321/100 660/321/100 661/323/100
f 616/297/100 615/295/100 647/295/100 648/297/100
f 603/271/100 602/269/100 634/269/100 635/271/100
f 630/325/100 629/323/100 661/323/100 662/325/100
f 617/299/100 616/297/100 648/297/100 649/299/100
f 604/273/100 603/271/100 635/271/100 636/273/100
f 631/327/100 630/325/100 662/325/100 663/327/100
f 618/301/100 617/299/100 649/299/100 650/301/100
f 654/309/75 653/307/75 671/307/75 672/309/75
f 655/311/76 654/309/76 672/309/76 673/311/76
f 656/313/77 655/311/77 673/311/77 674/313/77
f 657/315/78 656/313/78 674/313/78 675/315/78
f 658/317/79 657/315/79 675/315/79 676/317/79
f 659/319/80 658/317/80 676/317/80 677/319/80
f 646/293/99 645/291/99 665/291/99 664/293/99
f 660/321/81 659/319/81 677/319/81 678/321/81
f 661/323/82 660/321/82 678/321/82 679/323/82
f 662/325/83 661/323/83 679/323/83 680/325/83
f 649/299/70 648/297/70 667/297/70 666/299/70
f 663/327/84 662/325/84 680/325/84 681/327/84
f 650/301/71 649/299/71 666/299/71 668/301/71
f 633/329/85 663/327/85 681/327/85 682/329/85
f 651/303/72 650/301/72 668/301/72 669/303/72
f 652/305/73 651/303/73 669/303/73 670/305/73
f 653/307/74 652/305/74 670/305/74 671/307/74
f 533/327/100 532/325/100 630/325/100 631/327/100
f 517/329/100 533/327/100 631/327/100 601/329/100
f 182/281/100 180/279/100 590/279/100 591/281/100
f 166/329/100 517/329/100 601/329/100 584/329/100
f 518/297/100 198/297/100 599/297/100 616/297/100
o Icosphere
v 0.406170 0.876065 0.000000
v 0.092240 0.636246 -0.228081
v 0.526079 0.636246 -0.369046
v 0.794209 0.636244 0.000000
v 0.526079 0.636246 0.369046
v 0.092240 0.636246 0.228081
v 0.286262 0.248202 -0.369046
v 0.720101 0.248202 -0.228081
v 0.720101 0.248202 0.228081
v 0.286262 0.248202 0.369046
v 0.018132 0.248204 0.000000
v 0.406170 0.008383 0.000000
v 0.476650 0.811272 -0.216918
v 0.221648 0.811272 -0.134062
v 0.292127 0.670310 -0.350982
v 0.037125 0.670310 0.000000
v 0.221648 0.811272 0.134062
v 0.634253 0.811271 0.000000
v 0.704735 0.670310 -0.216919
v 0.476650 0.811272 0.216918
v 0.704735 0.670310 0.216919
v 0.292127 0.670310 0.350982
v -0.006437 0.442224 -0.134062
v -0.006437 0.442224 0.134062
v 0.406170 0.442224 -0.433841
v 0.151165 0.442224 -0.350984
v 0.818778 0.442224 -0.134062
v 0.661176 0.442224 -0.350984
v 0.661176 0.442224 0.350984
v 0.818778 0.442224 0.134062
v 0.151165 0.442224 0.350984
v 0.406170 0.442224 0.433841
v 0.107606 0.214138 -0.216919
v 0.520213 0.214138 -0.350982
v 0.775216 0.214138 0.000000
v 0.520213 0.214138 0.350982
v 0.107606 0.214138 0.216919
v 0.335690 0.073176 -0.216918
v 0.178087 0.073177 0.000000
v 0.590693 0.073176 -0.134062
v 0.590693 0.073176 0.134062
v 0.335690 0.073176 0.216918
vn -0.1024 0.9435 -0.3151
vn -0.7002 0.6617 -0.2680
vn 0.2680 0.9435 -0.1947
vn 0.2680 0.9435 0.1947
vn -0.1024 0.9435 0.3151
vn -0.9050 0.3304 -0.2680
vn -0.0247 0.3304 -0.9435
vn 0.8897 0.3304 -0.3151
vn 0.5746 0.3304 0.7488
vn -0.5346 0.3304 0.7779
vn -0.8026 0.1256 -0.5831
vn 0.3066 0.1256 -0.9435
vn 0.9921 0.1256 -0.0000
vn 0.3066 0.1256 0.9435
vn -0.8026 0.1256 0.5831
vn -0.4089 -0.6617 -0.6284
vn 0.4713 -0.6617 -0.5831
vn 0.7002 -0.6617 0.2680
vn -0.0385 -0.6617 0.7488
vn -0.7240 -0.6617 0.1947
vn -0.2680 -0.9435 0.1947
vn -0.4911 -0.7947 0.3568
vn -0.4089 -0.6617 0.6284
vn 0.1024 -0.9435 0.3151
vn 0.1876 -0.7947 0.5773
vn 0.4713 -0.6617 0.5831
vn 0.3313 -0.9435 -0.0000
vn 0.6071 -0.7947 -0.0000
vn 0.7002 -0.6617 -0.2680
vn 0.1024 -0.9435 -0.3151
vn 0.1876 -0.7947 -0.5773
vn -0.0385 -0.6617 -0.7488
vn -0.2680 -0.9435 -0.1947
vn -0.4911 -0.7947 -0.3568
vn -0.7240 -0.6617 -0.1947
vn -0.8897 -0.3304 0.3151
vn -0.7947 -0.1876 0.5773
vn -0.5746 -0.3304 0.7488
vn 0.0247 -0.3304 0.9435
vn 0.3035 -0.1876 0.9342
vn 0.5346 -0.3304 0.7779
vn 0.9050 -0.3304 0.2680
vn 0.9822 -0.1876 -0.0000
vn 0.9050 -0.3304 -0.2680
vn 0.5346 -0.3304 -0.7779
vn 0.3035 -0.1876 -0.9342
vn 0.0247 -0.3304 -0.9435
vn -0.5746 -0.3304 -0.7488
vn -0.7947 -0.1876 -0.5773
vn -0.8897 -0.3304 -0.3151
vn -0.3066 -0.1256 0.9435
vn -0.3035 0.1876 0.9342
vn -0.0247 0.3304 0.9435
vn 0.8026 -0.1256 0.5831
vn 0.7947 0.1876 0.5773
vn 0.8897 0.3304 0.3151
vn 0.8026 -0.1256 -0.5831
vn 0.7947 0.1876 -0.5773
vn 0.5746 0.3304 -0.7488
vn -0.3066 -0.1256 -0.9435
vn -0.3035 0.1876 -0.9342
vn -0.5346 0.3304 -0.7779
vn -0.9921 -0.1256 -0.0000
vn -0.9822 0.1876 -0.0000
vn -0.9050 0.3304 0.2680
vn -0.4713 0.6617 0.5831
vn -0.1876 0.7947 0.5773
vn 0.0385 0.6617 0.7488
vn 0.4089 0.6617 0.6284
vn 0.4911 0.7947 0.3568
vn 0.7240 0.6617 0.1947
vn 0.7240 0.6617 -0.1947
vn 0.4911 0.7947 -0.3568
vn 0.4089 0.6617 -0.6284
vn -0.7002 0.6617 0.2680
vn -0.6071 0.7947 -0.0000
vn -0.3313 0.9435 -0.0000
vn 0.0385 0.6617 -0.7488
vn -0.1876 0.7947 -0.5773
vn -0.4713 0.6617 -0.5831
vt 0.181819 0.000000
vt 0.227273 0.078731
vt 0.136365 0.078731
vt 0.272728 0.157461
vt 0.318182 0.078731
vt 0.363637 0.157461
vt 0.909091 0.000000
vt 0.954545 0.078731
vt 0.863636 0.078731
vt 0.727273 0.000000
vt 0.772727 0.078731
vt 0.681818 0.078731
vt 0.545455 0.000000
vt 0.590909 0.078731
vt 0.500000 0.078731
vt 0.318182 0.236191
vt 0.090910 0.157461
vt 0.181819 0.157461
vt 0.136365 0.236191
vt 0.818182 0.157461
vt 0.909091 0.157461
vt 0.863636 0.236191
vt 0.636364 0.157461
vt 0.727273 0.157461
vt 0.681818 0.236191
vt 0.454546 0.157461
vt 0.545455 0.157461
vt 0.500000 0.236191
vt 0.227273 0.236191
vt 0.045455 0.236191
vt 0.772727 0.236191
vt 0.590909 0.236191
vt 0.409092 0.236191
vt 0.181819 0.314921
vt 0.272728 0.314921
vt 0.227273 0.393651
vt 0.000000 0.314921
vt 0.090910 0.314921
vt 0.045455 0.393651
vt 0.727273 0.314921
vt 0.818182 0.314921
vt 0.772727 0.393651
vt 0.545455 0.314921
vt 0.636364 0.314921
vt 0.590909 0.393651
vt 0.363637 0.314921
vt 0.454546 0.314921
vt 0.409092 0.393651
vt 0.500000 0.393651
vt 0.454546 0.472382
vt 0.681818 0.393651
vt 0.636364 0.472382
vt 0.863636 0.393651
vt 0.818182 0.472382
vt 0.909091 0.314921
vt 0.136365 0.393651
vt 0.090910 0.472382
vt 0.318182 0.393651
vt 0.272728 0.472382
vt 0.954545 0.236191
vt 1.000000 0.157461
vt 0.409092 0.078731
vt 0.363637 0.000000
s 0
usemtl Material.001
f 683/395/104 695/397/104 696/396/104
f 684/398/105 698/400/105 696/399/105
f 683/401/106 700/403/106 695/402/106
f 683/404/107 702/406/107 700/405/107
f 683/407/108 699/409/108 702/408/108
f 684/398/109 705/410/109 698/400/109
f 685/411/110 707/413/110 697/412/110
f 686/414/111 709/416/111 701/415/111
f 687/417/112 711/419/112 703/418/112
f 688/420/113 713/422/113 704/421/113
f 684/398/114 708/423/114 705/410/114
f 685/411/115 710/424/115 707/413/115
f 686/414/116 712/425/116 709/416/116
f 687/417/117 714/426/117 711/419/117
f 688/420/118 706/427/118 713/422/118
f 689/428/119 720/430/119 715/429/119
f 690/431/120 722/433/120 716/432/120
f 691/434/121 723/436/121 717/435/121
f 692/437/122 724/439/122 718/438/122
f 693/440/123 721/442/123 719/441/123
f 721/442/124 694/444/124 724/443/124
f 721/442/125 724/443/125 719/441/125
f 719/441/126 724/443/126 692/437/126
f 724/439/127 694/446/127 723/445/127
f 724/439/128 723/445/128 718/438/128
f 718/438/129 723/445/129 691/434/129
f 723/436/130 694/448/130 722/447/130
f 723/436/131 722/447/131 717/435/131
f 717/435/132 722/447/132 690/449/132
f 722/433/133 694/451/133 720/450/133
f 722/433/134 720/450/134 716/432/134
f 716/432/135 720/450/135 689/428/135
f 720/430/136 694/453/136 721/452/136
f 720/430/137 721/452/137 715/429/137
f 715/429/138 721/452/138 693/440/138
f 706/427/139 693/440/139 719/441/139
f 706/427/140 719/441/140 713/422/140
f 713/422/141 719/441/141 692/437/141
f 714/426/142 692/437/142 718/438/142
f 714/426/143 718/438/143 711/419/143
f 711/419/144 718/438/144 691/434/144
f 712/425/145 691/434/145 717/435/145
f 712/425/146 717/435/146 709/416/146
f 709/416/147 717/435/147 690/449/147
f 710/424/148 690/431/148 716/432/148
f 710/424/149 716/432/149 707/413/149
f 707/413/150 716/432/150 689/428/150
f 708/423/151 689/428/151 715/429/151
f 708/423/152 715/429/152 705/410/152
f 705/410/153 715/429/153 693/440/153
f 713/422/154 692/437/154 714/426/154
f 713/422/155 714/426/155 704/421/155
f 704/421/156 714/426/156 687/417/156
f 711/419/157 691/434/157 712/425/157
f 711/419/158 712/425/158 703/418/158
f 703/418/159 712/425/159 686/414/159
f 709/416/160 690/449/160 710/454/160
f 709/416/161 710/454/161 701/415/161
f 701/415/162 710/454/162 685/455/162
f 707/413/163 689/428/163 708/423/163
f 707/413/164 708/423/164 697/412/164
f 697/412/165 708/423/165 684/398/165
f 705/410/166 693/440/166 706/427/166
f 705/410/167 706/427/167 698/400/167
f 698/400/168 706/427/168 688/420/168
f 699/409/169 688/420/169 704/421/169
f 699/409/170 704/421/170 702/408/170
f 702/408/171 704/421/171 687/417/171
f 702/406/172 687/417/172 703/418/172
f 702/406/173 703/418/173 700/405/173
f 700/405/174 703/418/174 686/414/174
f 700/403/175 686/414/175 701/415/175
f 700/403/176 701/415/176 695/402/176
f 695/402/177 701/415/177 685/455/177
f 698/400/178 688/420/178 699/456/178
f 698/400/179 699/456/179 696/399/179
f 696/399/180 699/456/180 683/457/180
f 695/397/181 685/411/181 697/412/181
f 695/397/182 697/412/182 696/396/182
f 696/396/183 697/412/183 684/398/183
