# Blender 4.5.2 LTS
# www.blender.org
mtllib FarmTower.mtl
o PrimPart
v 1.500000 0.200000 -1.500000
v 1.500000 -0.200000 -1.500000
v 1.500000 0.200000 1.500000
v 1.500000 -0.200000 1.500000
v -1.500000 0.200000 -1.500000
v -1.500000 -0.200000 -1.500000
v -1.500000 0.200000 1.500000
v -1.500000 -0.200000 1.500000
v -1.604835 -0.276172 -1.604835
v -1.604835 -0.276172 1.604835
v 1.604835 -0.276172 -1.604835
v 1.604835 0.151784 -1.604835
v -1.604835 0.151784 1.604835
v 1.604835 0.151784 1.604835
v 1.604835 -0.276172 1.604835
v -1.604835 0.151784 -1.604835
vn -0.0000 1.0000 -0.0000
vn -0.0000 -0.8090 -0.5878
vn -0.0000 0.9085 -0.4178
vn -0.0000 -1.0000 -0.0000
vn -0.0000 -0.8090 0.5878
vn 0.4178 0.9085 -0.0000
vn -0.0000 -0.0000 1.0000
vn -1.0000 -0.0000 -0.0000
vn 1.0000 -0.0000 -0.0000
vn -0.0000 -0.0000 -1.0000
vn -0.0000 0.9085 0.4178
vn -0.5878 -0.8090 -0.0000
vn 0.5878 -0.8090 -0.0000
vn -0.4178 0.9085 -0.0000
vt 0.625000 0.500000
vt 0.875000 0.500000
vt 0.875000 0.750000
vt 0.625000 0.750000
vt 0.125000 0.750000
vt 0.375000 0.750000
vt 0.125000 0.500000
vt 0.375000 0.500000
vt 0.625000 1.000000
vt 0.375000 1.000000
vt 0.375000 0.000000
vt 0.625000 0.000000
vt 0.625000 0.250000
vt 0.375000 0.250000
s 0
usemtl GroundMaterial
f 1/1/1 5/2/1 7/3/1 3/4/1
f 8/5/2 4/6/2 15/6/2 10/5/2
f 5/2/3 1/1/3 12/1/3 16/2/3
f 6/7/4 2/8/4 4/6/4 8/5/4
f 2/8/5 6/7/5 9/7/5 11/8/5
f 1/1/6 3/4/6 14/4/6 12/1/6
f 15/6/7 14/4/7 13/9/7 10/10/7
f 10/11/8 13/12/8 16/13/8 9/14/8
f 11/8/9 12/1/9 14/4/9 15/6/9
f 9/14/10 16/13/10 12/1/10 11/8/10
f 3/4/11 7/3/11 13/3/11 14/4/11
f 4/6/12 2/8/12 11/8/12 15/6/12
f 6/7/13 8/5/13 10/5/13 9/7/13
f 7/3/14 5/2/14 16/2/14 13/3/14
o Cylinder.003
v -0.459734 0.350000 -1.500000
v -0.459734 0.350000 1.500000
v -0.113324 0.200000 -1.500000
v -0.113324 0.200000 1.500000
v -0.806144 0.200000 -1.500000
v -0.806144 0.200000 1.500000
v 0.459092 0.350000 -1.500000
v 0.459092 0.350000 1.500000
v 0.805503 0.200000 -1.500000
v 0.805503 0.200000 1.500000
v 0.112682 0.200000 -1.500000
v 0.112682 0.200000 1.500000
v 1.152414 0.350000 -1.500000
v 1.152414 0.350000 1.500000
v 1.498825 0.200000 -1.500000
v 1.498825 0.200000 1.500000
v 0.806004 0.200000 -1.500000
v 0.806004 0.200000 1.500000
v -1.150643 0.350000 -1.500000
v -1.150643 0.350000 1.500000
v -0.804232 0.200000 -1.500000
v -0.804232 0.200000 1.500000
v -1.497053 0.200000 -1.500000
v -1.497053 0.200000 1.500000
vn 0.3974 0.9177 -0.0000
vn -0.0000 -1.0000 -0.0000
vn -0.0000 -0.0000 1.0000
vn -0.3974 0.9177 -0.0000
vn -0.0000 -0.0000 -1.0000
vt 1.000000 0.500000
vt 1.000000 1.000000
vt 0.666667 1.000000
vt 0.666667 0.500000
vt 0.333333 1.000000
vt 0.333333 0.500000
vt 0.457846 0.130000
vt 0.250000 0.490000
vt 0.042154 0.130000
vt -0.000000 1.000000
vt -0.000000 0.500000
vt 0.750000 0.490000
vt 0.957846 0.130000
vt 0.542154 0.130000
s 0
usemtl GroundMaterial
f 17/15/15 18/16/15 20/17/15 19/18/15
f 19/18/16 20/17/16 22/19/16 21/20/16
f 20/21/17 18/22/17 22/23/17
f 21/20/18 22/19/18 18/24/18 17/25/18
f 17/26/19 19/27/19 21/28/19
f 23/15/15 24/16/15 26/17/15 25/18/15
f 25/18/16 26/17/16 28/19/16 27/20/16
f 26/21/17 24/22/17 28/23/17
f 27/20/18 28/19/18 24/24/18 23/25/18
f 23/26/19 25/27/19 27/28/19
f 29/15/15 30/16/15 32/17/15 31/18/15
f 31/18/16 32/17/16 34/19/16 33/20/16
f 32/21/17 30/22/17 34/23/17
f 33/20/18 34/19/18 30/24/18 29/25/18
f 29/26/19 31/27/19 33/28/19
f 35/15/15 36/16/15 38/17/15 37/18/15
f 37/18/16 38/17/16 40/19/16 39/20/16
f 38/21/17 36/22/17 40/23/17
f 39/20/18 40/19/18 36/24/18 35/25/18
f 35/26/19 37/27/19 39/28/19
o Cube
v -0.150000 0.131091 -0.150000
v -0.150000 0.531091 -0.150000
v -0.150000 0.131091 -1.150000
v -0.150000 0.531091 -1.150000
v 0.150000 0.131091 -0.150000
v 0.150000 0.531091 -0.150000
v 0.150000 0.131091 -1.150000
v 0.150000 0.531091 -1.150000
vn -1.0000 -0.0000 -0.0000
vn -0.0000 -0.0000 -1.0000
vn 1.0000 -0.0000 -0.0000
vn -0.0000 -0.0000 1.0000
vn -0.0000 -1.0000 -0.0000
vn -0.0000 1.0000 -0.0000
vt 0.375000 0.000000
vt 0.625000 0.000000
vt 0.625000 0.250000
vt 0.375000 0.250000
vt 0.625000 0.500000
vt 0.375000 0.500000
vt 0.625000 0.750000
vt 0.375000 0.750000
vt 0.625000 1.000000
vt 0.375000 1.000000
vt 0.125000 0.500000
vt 0.125000 0.750000
vt 0.875000 0.500000
vt 0.875000 0.750000
s 0
usemtl BushMaterial.002
f 41/29/20 42/30/20 44/31/20 43/32/20
f 43/32/21 44/31/21 48/33/21 47/34/21
f 47/34/22 48/33/22 46/35/22 45/36/22
f 45/36/23 46/35/23 42/37/23 41/38/23
f 43/39/24 47/34/24 45/36/24 41/40/24
f 48/33/25 44/41/25 42/42/25 46/35/25
o Cube.001
v -0.150000 0.131091 1.150000
v -0.150000 0.531091 1.150000
v -0.150000 0.131091 0.150000
v -0.150000 0.531091 0.150000
v 0.150000 0.131091 1.150000
v 0.150000 0.531091 1.150000
v 0.150000 0.131091 0.150000
v 0.150000 0.531091 0.150000
vn -1.0000 -0.0000 -0.0000
vn -0.0000 -0.0000 -1.0000
vn 1.0000 -0.0000 -0.0000
vn -0.0000 -0.0000 1.0000
vn -0.0000 -1.0000 -0.0000
vn -0.0000 1.0000 -0.0000
vt 0.375000 0.000000
vt 0.625000 0.000000
vt 0.625000 0.250000
vt 0.375000 0.250000
vt 0.625000 0.500000
vt 0.375000 0.500000
vt 0.625000 0.750000
vt 0.375000 0.750000
vt 0.625000 1.000000
vt 0.375000 1.000000
vt 0.125000 0.500000
vt 0.125000 0.750000
vt 0.875000 0.500000
vt 0.875000 0.750000
s 0
usemtl BushMaterial.004
f 49/43/26 50/44/26 52/45/26 51/46/26
f 51/46/27 52/45/27 56/47/27 55/48/27
f 55/48/28 56/47/28 54/49/28 53/50/28
f 53/50/29 54/49/29 50/51/29 49/52/29
f 51/53/30 55/48/30 53/50/30 49/54/30
f 56/47/31 52/55/31 50/56/31 54/49/31
