# Blender 4.5.2 LTS
# www.blender.org
mtllib Minigunner.mtl
o PrimaryPart
v 0.000000 -0.100000 -0.850000
v 0.000000 0.100000 -0.850000
v 0.736122 -0.100000 -0.425000
v 0.736122 0.100000 -0.425000
v 0.736122 -0.100000 0.425000
v 0.736122 0.100000 0.425000
v 0.000000 -0.100000 0.850000
v 0.000000 0.100000 0.850000
v -0.736122 -0.100000 0.425000
v -0.736122 0.100000 0.425000
v -0.736122 -0.100000 -0.425000
v -0.736122 0.100000 -0.425000
v 0.580040 0.128121 -0.334886
v 0.000000 0.128121 -0.669773
v 0.580040 0.128121 0.334886
v 0.000000 0.128121 0.669773
v -0.580040 0.128121 0.334886
v -0.580040 0.128121 -0.334886
v 0.000000 -0.113229 -0.850000
v 0.736122 -0.113229 -0.425000
v 0.736122 0.086771 -0.425000
v 0.000000 0.086771 -0.850000
v 0.736122 -0.113229 0.425000
v 0.736122 0.086771 0.425000
v 0.000000 -0.113229 0.850000
v 0.000000 0.086771 0.850000
v -0.736122 -0.113229 0.425000
v -0.736122 0.086771 0.425000
v -0.736122 -0.113229 -0.425000
v -0.736122 0.086771 -0.425000
v 0.000000 -0.121825 -0.909014
v 0.787229 -0.121825 -0.454507
v 0.787229 0.092061 -0.454507
v 0.000000 0.092061 -0.909014
v 0.787229 -0.121825 0.454507
v 0.787229 0.092061 0.454507
v 0.000000 -0.121825 0.909014
v 0.000000 0.092061 0.909014
v -0.787229 -0.121825 0.454507
v -0.787229 0.092061 0.454507
v -0.787229 -0.121825 -0.454507
v -0.787229 0.092061 -0.454507
vn -0.5000 -0.0000 -0.8660
vn 0.5000 -0.0000 -0.8660
vn 1.0000 -0.0000 -0.0000
vn 0.5000 -0.0000 0.8660
vn 0.0887 0.9842 -0.1536
vn -0.0000 -1.0000 -0.0000
vn -0.0000 1.0000 -0.0000
vn 0.0887 0.9842 0.1536
vn -0.0887 0.9842 -0.1536
vn -0.0887 0.9842 0.1536
vn 0.1773 0.9842 -0.0000
vn -0.1773 0.9842 -0.0000
vn -0.0829 -0.9861 -0.1436
vn -0.0829 -0.9861 0.1436
vn 0.0515 0.9947 0.0892
vn 0.0829 -0.9861 -0.1436
vn 0.1659 -0.9861 -0.0000
vn 0.0829 -0.9861 0.1436
vn -0.5000 -0.0000 0.8660
vn -1.0000 -0.0000 -0.0000
vn 0.1030 0.9947 -0.0000
vn -0.1659 -0.9861 -0.0000
vn 0.0515 0.9947 -0.0892
vn -0.0515 0.9947 0.0892
vn -0.0515 0.9947 -0.0892
vn -0.1030 0.9947 -0.0000
vt 0.166667 1.000000
vt -0.000000 1.000000
vt 0.542154 0.130000
vt 0.750000 0.010000
vt 0.542154 0.370000
vt 0.750000 0.490000
vt 0.833333 1.000000
vt 1.000000 1.000000
vt 0.666667 1.000000
vt 0.500000 1.000000
vt 0.957846 0.370000
vt 0.957846 0.130000
vt 0.457846 0.370000
vt 0.250000 0.490000
vt 0.042154 0.370000
vt 0.042154 0.130000
vt 0.250000 0.010000
vt 0.457846 0.130000
vt 0.333333 1.000000
vt 1.000000 0.500000
vt 0.833333 0.500000
vt 0.666667 0.500000
vt 0.500000 0.500000
vt 0.333333 0.500000
vt 0.166667 0.500000
vt -0.000000 0.500000
s 0
usemtl PrimaryMAT
f 9/3/2 7/4/2 25/4/2 27/3/2
f 11/5/3 9/3/3 27/3/3 29/5/3
f 1/6/4 11/5/4 29/5/4 19/6/4
f 4/7/5 2/8/5 14/8/5 13/7/5
f 1/6/6 3/11/6 5/12/6 7/4/6 9/3/6 11/5/6
f 8/10/8 6/9/8 15/9/8 16/10/8
f 12/1/12 10/19/12 17/19/12 18/1/12
f 25/4/13 23/12/13 35/12/13 37/4/13
f 20/11/14 19/6/14 31/6/14 32/11/14
f 30/1/15 22/2/15 34/2/15 42/1/15
f 27/3/16 25/4/16 37/4/16 39/3/16
f 29/5/17 27/3/17 39/3/17 41/5/17
f 19/6/18 29/5/18 41/5/18 31/6/18
f 3/11/19 1/6/19 19/6/19 20/11/19
f 7/4/1 5/12/1 23/12/1 25/4/1
f 5/12/20 3/11/20 20/11/20 23/12/20
f 31/20/2 34/8/2 33/7/2 32/21/2
f 32/21/3 33/7/3 36/9/3 35/22/3
f 35/22/4 36/9/4 38/10/4 37/23/4
f 37/23/19 38/10/19 40/19/19 39/24/19
f 39/24/20 40/19/20 42/1/20 41/25/20
f 41/25/1 42/1/1 34/2/1 31/26/1
f 28/19/21 30/1/21 42/1/21 40/19/21
f 23/12/22 20/11/22 32/11/22 35/12/22
f 26/10/23 28/19/23 40/19/23 38/10/23
f 22/8/24 21/7/24 33/7/24 34/8/24
f 24/9/25 26/10/25 38/10/25 36/9/25
f 21/7/26 24/9/26 36/9/26 33/7/26
usemtl NeonBlue
f 12/1/1 2/2/1 22/2/1 30/1/1
f 4/7/3 6/9/3 24/9/3 21/7/3
f 6/9/4 8/10/4 26/10/4 24/9/4
f 10/19/20 12/1/20 30/1/20 28/19/20
f 8/10/19 10/19/19 28/19/19 26/10/19
f 2/8/2 4/7/2 21/7/2 22/8/2
usemtl DarkerPrimaryMAT
f 13/13/7 14/14/7 18/15/7 17/16/7 16/17/7 15/18/7
f 2/2/9 12/1/9 18/1/9 14/2/9
f 10/19/10 8/10/10 16/10/10 17/19/10
f 6/9/11 4/7/11 13/7/11 15/9/11
o PrimaryPillar
v 0.000000 0.125000 -0.400000
v 0.000000 0.275000 -0.400000
v 0.346410 0.125000 -0.200000
v 0.346410 0.275000 -0.200000
v 0.346410 0.125000 0.200000
v 0.346410 0.275000 0.200000
v 0.000000 0.125000 0.400000
v 0.000000 0.275000 0.400000
v -0.346410 0.125000 0.200000
v -0.346410 0.275000 0.200000
v -0.346410 0.125000 -0.200000
v -0.346410 0.275000 -0.200000
v 0.219066 0.285979 -0.126478
v 0.000000 0.285979 -0.252956
v 0.219066 0.285979 0.126478
v 0.000000 0.285979 0.252956
v -0.219066 0.285979 0.126478
v -0.219066 0.285979 -0.126478
v 0.219066 0.535978 -0.126478
v 0.000000 0.535978 -0.252956
v 0.219066 0.535978 0.126478
v 0.000000 0.535978 0.252956
v -0.219066 0.535978 0.126478
v -0.219066 0.535978 -0.126478
v 0.240973 0.585979 -0.139126
v 0.000000 0.585979 -0.278251
v 0.240973 0.585979 0.139126
v 0.000000 0.585979 0.278251
v -0.240973 0.585979 0.139126
v -0.240973 0.585979 -0.139126
v 0.216875 0.635979 -0.125213
v -0.000000 0.635979 -0.250426
v 0.216875 0.635979 0.125213
v -0.000000 0.635979 0.250426
v -0.216875 0.635979 0.125213
v -0.216875 0.635979 -0.125213
v 0.216875 0.885978 -0.125213
v 0.000000 0.885978 -0.250426
v 0.216875 0.885978 0.125213
v 0.000000 0.885978 0.250426
v -0.216875 0.885978 0.125213
v -0.216875 0.885978 -0.125213
v 0.238563 0.935978 -0.137734
v 0.000000 0.935978 -0.275469
v 0.238563 0.935978 0.137734
v 0.000000 0.935978 0.275469
v -0.238563 0.935978 0.137734
v -0.238563 0.935978 -0.137734
v 0.214707 0.985979 -0.123961
v 0.000000 0.985979 -0.247922
v 0.214707 0.985979 0.123961
v 0.000000 0.985979 0.247922
v -0.214707 0.985979 0.123961
v -0.214707 0.985979 -0.123961
v 0.214707 1.235979 -0.123961
v -0.000000 1.235979 -0.247922
v 0.214707 1.235979 0.123961
v -0.000000 1.235979 0.247922
v -0.214707 1.235979 0.123961
v -0.214707 1.235979 -0.123961
v 0.000000 -0.003213 -0.400000
v 0.346410 -0.003213 -0.200000
v 0.346410 0.146787 -0.200000
v 0.000000 0.146787 -0.400000
v 0.346410 -0.003213 0.200000
v 0.346410 0.146787 0.200000
v 0.000000 -0.003213 0.400000
v 0.000000 0.146787 0.400000
v -0.346410 -0.003213 0.200000
v -0.346410 0.146787 0.200000
v -0.346410 -0.003213 -0.200000
v -0.346410 0.146787 -0.200000
vn -1.0000 -0.0000 -0.0000
vn -0.5000 -0.0000 -0.8660
vn -0.5000 -0.0000 0.8660
vn -0.0429 0.9963 0.0744
vn 0.5000 -0.0000 -0.8660
vn -0.0000 -1.0000 -0.0000
vn 0.0859 0.9963 -0.0000
vn -0.0859 0.9963 -0.0000
vn 0.0429 0.9963 -0.0744
vn 0.0429 0.9963 0.0744
vn -0.0429 0.9963 -0.0744
vn -0.4580 -0.4013 -0.7932
vn 0.5000 -0.0000 0.8660
vn 1.0000 -0.0000 -0.0000
vn -0.9008 0.4342 -0.0000
vn -0.4580 -0.4013 0.7932
vn 0.9159 -0.4013 -0.0000
vn -0.9159 -0.4013 -0.0000
vn 0.4580 -0.4013 0.7932
vn 0.4580 -0.4013 -0.7932
vn 0.4504 0.4342 0.7801
vn 0.4504 0.4342 -0.7801
vn -0.4504 0.4342 -0.7801
vn -0.4504 0.4342 0.7801
vn 0.9008 0.4342 -0.0000
vn 0.4587 -0.3979 0.7945
vn -0.9025 0.4306 -0.0000
vn 0.4587 -0.3979 -0.7945
vn -0.4587 -0.3979 -0.7945
vn -0.4587 -0.3979 0.7945
vn 0.9174 -0.3979 -0.0000
vn -0.9174 -0.3979 -0.0000
vn 0.4513 0.4306 0.7816
vn 0.4513 0.4306 -0.7816
vn -0.4513 0.4306 -0.7816
vn -0.4513 0.4306 0.7816
vn 0.9025 0.4306 -0.0000
vn -0.0000 1.0000 -0.0000
vt 0.957846 0.130000
vt 0.957846 0.370000
vt 0.333333 1.000000
vt 0.166667 1.000000
vt 0.750000 0.010000
vt 0.750000 0.490000
vt 0.500000 1.000000
vt -0.000000 1.000000
vt 0.542154 0.130000
vt 0.542154 0.370000
vt 0.666667 1.000000
vt 0.833333 1.000000
vt 1.000000 1.000000
vt 0.457846 0.370000
vt 0.250000 0.490000
vt 0.042154 0.370000
vt 0.042154 0.130000
vt 0.250000 0.010000
vt 0.457846 0.130000
vt 1.000000 0.500000
vt 0.833333 0.500000
vt 0.666667 0.500000
vt 0.500000 0.500000
vt 0.333333 0.500000
vt 0.166667 0.500000
vt -0.000000 0.500000
s 0
usemtl PrimaryMAT
f 47/27/27 45/28/27 104/28/27 107/27/27
f 49/31/28 47/27/28 107/27/28 109/31/28
f 45/28/29 43/32/29 103/32/29 104/28/29
f 51/35/31 49/31/31 109/31/31 111/35/31
f 43/32/32 45/28/32 47/27/32 49/31/32 51/35/32 53/36/32
f 60/30/27 59/29/27 65/29/27 66/30/27
f 58/33/39 57/37/39 63/37/39 64/33/39
f 55/38/31 56/39/31 62/39/31 61/38/31
f 78/30/27 77/29/27 83/29/27 84/30/27
f 76/33/39 75/37/39 81/37/39 82/33/39
f 73/38/31 74/39/31 80/39/31 79/38/31
f 97/40/64 98/41/64 102/42/64 101/43/64 100/44/64 99/45/64
f 96/30/27 95/29/27 101/29/27 102/30/27
f 94/33/39 93/37/39 99/37/39 100/33/39
f 91/38/31 92/39/31 98/39/31 97/38/31
f 43/32/39 53/36/39 113/36/39 103/32/39
f 53/36/40 51/35/40 111/35/40 113/36/40
usemtl NeonBlue
f 62/34/38 66/30/38 72/30/38 68/34/38
f 72/30/41 71/29/41 77/29/41 78/30/41
f 65/29/42 64/33/42 70/33/42 71/29/42
f 63/37/43 61/38/43 67/38/43 69/37/43
f 66/30/44 65/29/44 71/29/44 72/30/44
f 64/33/45 63/37/45 69/37/45 70/33/45
f 61/38/46 62/39/46 68/39/46 67/38/46
f 70/33/47 69/37/47 75/37/47 76/33/47
f 67/38/48 68/39/48 74/39/48 73/38/48
f 68/34/49 72/30/49 78/30/49 74/34/49
f 71/29/50 70/33/50 76/33/50 77/29/50
f 69/37/51 67/38/51 73/38/51 75/37/51
f 82/33/52 81/37/52 87/37/52 88/33/52
f 90/30/53 89/29/53 95/29/53 96/30/53
f 79/38/54 80/39/54 86/39/54 85/38/54
f 80/34/55 84/30/55 90/30/55 86/34/55
f 83/29/56 82/33/56 88/33/56 89/29/56
f 81/37/57 79/38/57 85/38/57 87/37/57
f 84/30/58 83/29/58 89/29/58 90/30/58
f 88/33/59 87/37/59 93/37/59 94/33/59
f 85/38/60 86/39/60 92/39/60 91/38/60
f 86/34/61 90/30/61 96/30/61 92/34/61
f 89/29/62 88/33/62 94/33/62 95/29/62
f 87/37/63 85/38/63 91/38/63 93/37/63
f 103/46/31 106/39/31 105/38/31 104/47/31
f 104/47/40 105/38/40 108/37/40 107/48/40
f 107/48/39 108/37/39 110/33/39 109/49/39
f 109/49/29 110/33/29 112/29/29 111/50/29
f 111/50/27 112/29/27 114/30/27 113/51/27
f 113/51/28 114/30/28 106/34/28 103/52/28
usemtl DarkerPrimaryMAT
f 52/29/27 54/30/27 114/30/27 112/29/27
f 52/29/30 50/33/30 58/33/30 59/29/30
f 54/30/28 44/34/28 106/34/28 114/30/28
f 48/37/33 46/38/33 55/38/33 57/37/33
f 54/30/34 52/29/34 59/29/34 60/30/34
f 46/38/35 44/39/35 56/39/35 55/38/35
f 50/33/36 48/37/36 57/37/36 58/33/36
f 44/34/37 54/30/37 60/30/37 56/34/37
f 56/34/28 60/30/28 66/30/28 62/34/28
f 59/29/29 58/33/29 64/33/29 65/29/29
f 57/37/40 55/38/40 61/38/40 63/37/40
f 77/29/29 76/33/29 82/33/29 83/29/29
f 75/37/40 73/38/40 79/38/40 81/37/40
f 74/34/28 78/30/28 84/30/28 80/34/28
f 92/34/28 96/30/28 102/30/28 98/34/28
f 95/29/29 94/33/29 100/33/29 101/29/29
f 93/37/40 91/38/40 97/38/40 99/37/40
f 50/33/29 52/29/29 112/29/29 110/33/29
f 44/39/31 46/38/31 105/38/31 106/39/31
f 48/37/39 50/33/39 110/33/39 108/37/39
f 46/38/40 48/37/40 108/37/40 105/38/40
o SmallGun
v -0.200000 1.700000 0.400000
v -0.200000 2.100000 0.400000
v -0.200000 1.700000 -0.400000
v -0.200000 2.100000 -0.400000
v 0.200000 1.700000 0.400000
v 0.200000 2.100000 0.400000
v 0.200000 1.700000 -0.400000
v 0.200000 2.100000 -0.400000
v -0.170000 1.684000 -0.340000
v -0.170000 1.684000 0.340000
v 0.170000 1.684000 -0.340000
v 0.170000 1.684000 0.340000
v -0.213333 1.730000 -0.340000
v -0.213333 1.730000 0.340000
v -0.213333 2.070000 0.340000
v -0.213333 2.070000 -0.340000
v 0.213333 2.070000 -0.340000
v 0.213333 1.730000 -0.340000
v 0.213333 1.730000 0.340000
v 0.213333 2.070000 0.340000
v -0.170000 2.116000 0.340000
v -0.170000 2.116000 -0.340000
v 0.170000 2.116000 -0.340000
v 0.170000 2.116000 0.340000
v -0.170000 2.070000 -0.420000
v -0.170000 1.730000 -0.420000
v 0.170000 1.730000 -0.420000
v 0.170000 2.070000 -0.420000
v -0.170000 1.730000 0.420000
v -0.170000 2.070000 0.420000
v 0.170000 2.070000 0.420000
v 0.170000 1.730000 0.420000
v -0.170000 1.730000 0.364386
v -0.170000 2.070000 0.364386
v 0.170000 2.070000 0.364386
v 0.170000 1.730000 0.364386
v -0.153000 1.747000 0.385880
v -0.153000 2.053000 0.385880
v 0.153000 2.053000 0.385880
v 0.153000 1.747000 0.385880
v -0.153000 1.747000 0.785880
v -0.153000 2.053000 0.785880
v 0.153000 2.053000 0.785880
v 0.153000 1.747000 0.785880
v -0.140030 1.759970 0.802530
v -0.140030 2.040030 0.802530
v 0.140030 2.040030 0.802530
v 0.140030 1.759970 0.802530
v -0.140030 1.759970 0.768402
v -0.140030 2.040030 0.768402
v 0.140030 2.040030 0.768402
v 0.140030 1.759970 0.768402
v 0.000000 2.023868 0.690391
v 0.000000 2.023868 1.490391
v 0.086603 1.963868 0.690391
v 0.086603 1.963868 1.490391
v 0.086603 1.843868 0.690391
v 0.086603 1.843868 1.490391
v 0.000000 1.783868 0.690391
v 0.000000 1.783868 1.490391
v -0.086603 1.843868 0.690391
v -0.086603 1.843868 1.490391
v -0.086603 1.963868 0.690391
v -0.086603 1.963868 1.490391
v 0.000000 1.204027 0.400000
v 0.000000 1.704027 0.400000
v 0.000000 1.204027 -0.400000
v 0.000000 1.704027 -0.400000
v 0.600000 1.204027 0.400000
v 0.600000 1.704027 0.400000
v 0.600000 1.204027 -0.400000
v 0.600000 1.704027 -0.400000
v 0.045000 1.184027 -0.340000
v 0.045000 1.184027 0.340000
v 0.555000 1.184027 -0.340000
v 0.555000 1.184027 0.340000
v -0.020000 1.241527 -0.340000
v -0.020000 1.241527 0.340000
v -0.020000 1.666527 0.340000
v -0.020000 1.666527 -0.340000
v 0.620000 1.666527 -0.340000
v 0.620000 1.241527 -0.340000
v 0.620000 1.241527 0.340000
v 0.620000 1.666527 0.340000
v 0.045000 1.724027 0.340000
v 0.045000 1.724027 -0.340000
v 0.555000 1.724027 -0.340000
v 0.555000 1.724027 0.340000
v 0.045000 1.666527 -0.420000
v 0.045000 1.241527 -0.420000
v 0.555000 1.241527 -0.420000
v 0.555000 1.666527 -0.420000
v 0.045000 1.241527 0.420000
v 0.045000 1.666527 0.420000
v 0.555000 1.666527 0.420000
v 0.555000 1.241527 0.420000
v 0.045000 1.241527 0.364386
v 0.045000 1.666527 0.364386
v 0.555000 1.666527 0.364386
v 0.555000 1.241527 0.364386
v 0.070500 1.262777 0.385880
v 0.070500 1.645277 0.385880
v 0.529500 1.645277 0.385880
v 0.529500 1.262777 0.385880
v 0.070500 1.262777 0.785880
v 0.070500 1.645277 0.785880
v 0.529500 1.645277 0.785880
v 0.529500 1.262777 0.785880
v 0.089955 1.278990 0.802530
v 0.089955 1.629065 0.802530
v 0.510045 1.629065 0.802530
v 0.510045 1.278990 0.802530
v 0.089955 1.278990 0.768402
v 0.089955 1.629065 0.768402
v 0.510045 1.629065 0.768402
v 0.510045 1.278990 0.768402
v 0.300000 1.608863 0.690391
v 0.300000 1.608862 1.490391
v 0.429904 1.533862 0.690391
v 0.429904 1.533862 1.490391
v 0.429904 1.383862 0.690391
v 0.429904 1.383862 1.490391
v 0.300000 1.308862 0.690391
v 0.300000 1.308862 1.490391
v 0.170096 1.383862 0.690391
v 0.170096 1.383862 1.490391
v 0.170096 1.533862 0.690391
v 0.170096 1.533862 1.490391
v -0.600000 1.204027 0.400000
v -0.600000 1.704027 0.400000
v -0.600000 1.204027 -0.400000
v -0.600000 1.704027 -0.400000
v 0.000000 1.204027 0.400000
v 0.000000 1.704027 0.400000
v 0.000000 1.204027 -0.400000
v 0.000000 1.704027 -0.400000
v -0.555000 1.184027 -0.340000
v -0.555000 1.184027 0.340000
v -0.045000 1.184027 -0.340000
v -0.045000 1.184027 0.340000
v -0.620000 1.241527 -0.340000
v -0.620000 1.241527 0.340000
v -0.620000 1.666527 0.340000
v -0.620000 1.666527 -0.340000
v 0.020000 1.666527 -0.340000
v 0.020000 1.241527 -0.340000
v 0.020000 1.241527 0.340000
v 0.020000 1.666527 0.340000
v -0.555000 1.724027 0.340000
v -0.555000 1.724027 -0.340000
v -0.045000 1.724027 -0.340000
v -0.045000 1.724027 0.340000
v -0.555000 1.666527 -0.420000
v -0.555000 1.241527 -0.420000
v -0.045000 1.241527 -0.420000
v -0.045000 1.666527 -0.420000
v -0.555000 1.241527 0.420000
v -0.555000 1.666527 0.420000
v -0.045000 1.666527 0.420000
v -0.045000 1.241527 0.420000
v -0.555000 1.241527 0.364386
v -0.555000 1.666527 0.364386
v -0.045000 1.666527 0.364386
v -0.045000 1.241527 0.364386
v -0.529500 1.262777 0.385880
v -0.529500 1.645277 0.385880
v -0.070500 1.645277 0.385880
v -0.070500 1.262777 0.385880
v -0.529500 1.262777 0.785880
v -0.529500 1.645277 0.785880
v -0.070500 1.645277 0.785880
v -0.070500 1.262777 0.785880
v -0.510045 1.278990 0.802530
v -0.510045 1.629065 0.802530
v -0.089955 1.629065 0.802530
v -0.089955 1.278990 0.802530
v -0.510045 1.278990 0.768402
v -0.510045 1.629065 0.768402
v -0.089955 1.629065 0.768402
v -0.089955 1.278990 0.768402
v -0.300000 1.608863 0.690391
v -0.300000 1.608862 1.490391
v -0.170096 1.533862 0.690391
v -0.170096 1.533862 1.490391
v -0.170096 1.383862 0.690391
v -0.170096 1.383862 1.490391
v -0.300000 1.308862 0.690391
v -0.300000 1.308862 1.490391
v -0.429904 1.383862 0.690391
v -0.429904 1.383862 1.490391
v -0.429904 1.533862 0.690391
v -0.429904 1.533862 1.490391
vn -0.9762 -0.0000 -0.2169
vn -0.5547 -0.0000 -0.8321
vn 0.9138 0.4061 -0.0000
vn -0.5547 -0.0000 0.8321
vn -0.0000 -0.9662 0.2577
vn 0.4706 0.8824 -0.0000
vn -0.0000 -1.0000 -0.0000
vn -0.0000 -0.9662 -0.2577
vn -0.4706 -0.8824 -0.0000
vn 0.4706 -0.8824 -0.0000
vn -1.0000 -0.0000 -0.0000
vn -0.9762 -0.0000 0.2169
vn -0.9138 0.4061 -0.0000
vn -0.9138 -0.4061 -0.0000
vn 1.0000 -0.0000 -0.0000
vn 0.9762 -0.0000 -0.2169
vn 0.9762 -0.0000 0.2169
vn 0.9138 -0.4061 -0.0000
vn -0.0000 1.0000 -0.0000
vn -0.4706 0.8824 -0.0000
vn -0.0000 0.9662 0.2577
vn -0.0000 0.9662 -0.2577
vn -0.0000 -0.0000 -1.0000
vn 0.5547 -0.0000 -0.8321
vn -0.0000 -0.5547 -0.8321
vn -0.0000 0.5547 -0.8321
vn -0.0000 -0.5547 0.8321
vn -0.0000 0.5547 0.8321
vn 0.5547 -0.0000 0.8321
vn -0.0000 -0.7843 0.6203
vn -0.7843 -0.0000 0.6203
vn -0.0000 0.7843 0.6203
vn 0.7843 -0.0000 0.6203
vn -0.0000 -0.7889 0.6145
vn -0.7889 -0.0000 0.6145
vn -0.0000 0.7889 0.6145
vn 0.7889 -0.0000 0.6145
vn -0.0000 -0.0000 1.0000
vn 0.5695 0.8220 -0.0000
vn 0.5695 -0.8220 -0.0000
vn -0.5695 -0.8220 -0.0000
vn -0.5695 0.8220 -0.0000
vn -0.9487 -0.0000 -0.3162
vn -0.4061 -0.0000 -0.9138
vn 0.8824 0.4706 -0.0000
vn -0.4061 -0.0000 0.9138
vn -0.0000 -0.9487 0.3162
vn 0.4061 0.9138 -0.0000
vn -0.0000 -0.9487 -0.3162
vn -0.4061 -0.9138 -0.0000
vn 0.4061 -0.9138 -0.0000
vn -0.9487 -0.0000 0.3162
vn -0.8824 0.4706 -0.0000
vn -0.8824 -0.4706 -0.0000
vn 0.9487 -0.0000 -0.3162
vn 0.9487 -0.0000 0.3162
vn 0.8824 -0.4706 -0.0000
vn -0.4061 0.9138 -0.0000
vn -0.0000 0.9487 0.3162
vn -0.0000 0.9487 -0.3162
vn 0.4061 -0.0000 -0.9138
vn -0.0000 -0.4706 -0.8824
vn -0.0000 0.4706 -0.8824
vn -0.0000 -0.4706 0.8824
vn -0.0000 0.4706 0.8824
vn 0.4061 -0.0000 0.9138
vn -0.0000 -0.7111 0.7031
vn -0.6445 -0.0000 0.7646
vn -0.0000 0.7111 0.7031
vn 0.6445 -0.0000 0.7646
vn -0.0000 -0.7165 0.6976
vn -0.6502 -0.0000 0.7598
vn -0.0000 0.7165 0.6976
vn 0.6502 -0.0000 0.7598
vn 0.5000 0.8660 -0.0000
vn 0.5000 -0.8660 -0.0000
vn -0.5000 -0.8660 -0.0000
vn -0.5000 0.8660 -0.0000
vt 0.625000 0.250000
vt 0.375000 0.250000
vt 0.625000 0.500000
vt 0.625000 0.750000
vt 0.625000 1.000000
vt 0.375000 1.000000
vt 0.375000 0.750000
vt 0.125000 0.500000
vt 0.375000 0.500000
vt 0.125000 0.750000
vt 0.375000 0.000000
vt 0.625000 0.000000
vt 0.875000 0.750000
vt 0.875000 0.500000
vt 1.000000 0.500000
vt 1.000000 1.000000
vt 0.833333 1.000000
vt 0.833333 0.500000
vt 0.666667 1.000000
vt 0.666667 0.500000
vt 0.500000 1.000000
vt 0.500000 0.500000
vt 0.333333 1.000000
vt 0.333333 0.500000
vt 0.457846 0.370000
vt 0.250000 0.490000
vt 0.042154 0.370000
vt 0.042154 0.130000
vt 0.250000 0.010000
vt 0.457846 0.130000
vt 0.166667 1.000000
vt 0.166667 0.500000
vt -0.000000 1.000000
vt -0.000000 0.500000
vt 0.750000 0.490000
vt 0.957846 0.370000
vt 0.957846 0.130000
vt 0.750000 0.010000
vt 0.542154 0.130000
vt 0.542154 0.370000
s 0
usemtl PrimaryMAT
f 118/53/65 117/54/65 127/54/65 130/53/65
f 117/54/66 118/53/66 139/53/66 140/54/66
f 122/55/67 120/56/67 134/56/67 131/55/67
f 116/57/68 115/58/68 143/58/68 144/57/68
f 119/59/69 115/58/69 124/58/69 126/59/69
f 120/56/70 122/55/70 137/55/70 138/56/70
f 123/60/71 125/61/71 126/59/71 124/62/71
f 117/54/72 121/61/72 125/61/72 123/54/72
f 115/63/73 117/54/73 123/54/73 124/63/73
f 121/61/74 119/59/74 126/59/74 125/61/74
f 128/63/75 129/64/75 130/53/75 127/54/75
f 115/58/76 116/57/76 129/57/76 128/58/76
f 116/65/77 118/66/77 130/66/77 129/65/77
f 117/54/78 115/63/78 128/63/78 127/54/78
f 132/61/79 131/55/79 134/56/79 133/59/79
f 121/61/80 122/55/80 131/55/80 132/61/80
f 120/56/81 119/59/81 133/59/81 134/56/81
f 119/59/82 121/61/82 132/61/82 133/59/82
f 137/55/83 136/66/83 135/65/83 138/56/83
f 118/66/84 116/65/84 135/65/84 136/66/84
f 116/57/85 120/56/85 138/56/85 135/57/85
f 122/55/86 118/53/86 136/53/86 137/55/86
f 140/54/87 139/53/87 142/55/87 141/61/87
f 122/55/88 121/61/88 141/61/88 142/55/88
f 121/61/89 117/54/89 140/54/89 141/61/89
f 118/53/90 122/55/90 142/55/90 139/53/90
f 146/59/75 145/56/75 149/56/75 150/59/75
f 115/58/91 119/59/91 146/59/91 143/58/91
f 120/56/92 116/57/92 144/57/92 145/56/92
f 119/59/93 120/56/93 145/56/93 146/59/93
f 143/58/83 146/59/83 150/59/83 147/58/83
f 144/57/79 143/58/79 147/58/79 148/57/79
f 145/56/71 144/57/71 148/57/71 149/56/71
f 153/56/83 152/57/83 156/57/83 157/56/83
f 154/59/79 153/56/79 157/56/79 158/59/79
f 151/58/71 154/59/71 158/59/71 155/58/71
f 152/57/75 151/58/75 155/58/75 156/57/75
f 161/56/71 160/57/71 164/57/71 165/56/71
f 166/59/102 165/56/102 164/57/102 163/58/102
f 162/59/75 161/56/75 165/56/75 166/59/75
f 159/58/83 162/59/83 166/59/83 163/58/83
f 160/57/79 159/58/79 163/58/79 164/57/79
f 167/87/87 169/88/87 171/89/87 173/90/87 175/91/87 177/92/87
f 182/53/107 181/54/107 191/54/107 194/53/107
f 181/54/108 182/53/108 203/53/108 204/54/108
f 186/55/109 184/56/109 198/56/109 195/55/109
f 180/57/110 179/58/110 207/58/110 208/57/110
f 183/59/111 179/58/111 188/58/111 190/59/111
f 184/56/112 186/55/112 201/55/112 202/56/112
f 187/60/71 189/61/71 190/59/71 188/62/71
f 181/54/113 185/61/113 189/61/113 187/54/113
f 179/63/114 181/54/114 187/54/114 188/63/114
f 185/61/115 183/59/115 190/59/115 189/61/115
f 192/63/75 193/64/75 194/53/75 191/54/75
f 179/58/116 180/57/116 193/57/116 192/58/116
f 180/65/117 182/66/117 194/66/117 193/65/117
f 181/54/118 179/63/118 192/63/118 191/54/118
f 196/61/79 195/55/79 198/56/79 197/59/79
f 185/61/119 186/55/119 195/55/119 196/61/119
f 184/56/120 183/59/120 197/59/120 198/56/120
f 183/59/121 185/61/121 196/61/121 197/59/121
f 201/55/83 200/66/83 199/65/83 202/56/83
f 182/66/122 180/65/122 199/65/122 200/66/122
f 180/57/123 184/56/123 202/56/123 199/57/123
f 186/55/124 182/53/124 200/53/124 201/55/124
f 204/54/87 203/53/87 206/55/87 205/61/87
f 186/55/125 185/61/125 205/61/125 206/55/125
f 185/61/126 181/54/126 204/54/126 205/61/126
f 182/53/127 186/55/127 206/55/127 203/53/127
f 210/59/75 209/56/75 213/56/75 214/59/75
f 179/58/128 183/59/128 210/59/128 207/58/128
f 184/56/129 180/57/129 208/57/129 209/56/129
f 183/59/130 184/56/130 209/56/130 210/59/130
f 207/58/83 210/59/83 214/59/83 211/58/83
f 208/57/79 207/58/79 211/58/79 212/57/79
f 209/56/71 208/57/71 212/57/71 213/56/71
f 217/56/83 216/57/83 220/57/83 221/56/83
f 218/59/79 217/56/79 221/56/79 222/59/79
f 215/58/71 218/59/71 222/59/71 219/58/71
f 216/57/75 215/58/75 219/58/75 220/57/75
f 225/56/71 224/57/71 228/57/71 229/56/71
f 230/59/102 229/56/102 228/57/102 227/58/102
f 226/59/75 225/56/75 229/56/75 230/59/75
f 223/58/83 226/59/83 230/59/83 227/58/83
f 224/57/79 223/58/79 227/58/79 228/57/79
f 231/87/87 233/88/87 235/89/87 237/90/87 239/91/87 241/92/87
f 246/53/107 245/54/107 255/54/107 258/53/107
f 245/54/108 246/53/108 267/53/108 268/54/108
f 250/55/109 248/56/109 262/56/109 259/55/109
f 244/57/110 243/58/110 271/58/110 272/57/110
f 247/59/111 243/58/111 252/58/111 254/59/111
f 248/56/112 250/55/112 265/55/112 266/56/112
f 251/60/71 253/61/71 254/59/71 252/62/71
f 245/54/113 249/61/113 253/61/113 251/54/113
f 243/63/114 245/54/114 251/54/114 252/63/114
f 249/61/115 247/59/115 254/59/115 253/61/115
f 256/63/75 257/64/75 258/53/75 255/54/75
f 243/58/116 244/57/116 257/57/116 256/58/116
f 244/65/117 246/66/117 258/66/117 257/65/117
f 245/54/118 243/63/118 256/63/118 255/54/118
f 260/61/79 259/55/79 262/56/79 261/59/79
f 249/61/119 250/55/119 259/55/119 260/61/119
f 248/56/120 247/59/120 261/59/120 262/56/120
f 247/59/121 249/61/121 260/61/121 261/59/121
f 265/55/83 264/66/83 263/65/83 266/56/83
f 246/66/122 244/65/122 263/65/122 264/66/122
f 244/57/123 248/56/123 266/56/123 263/57/123
f 250/55/124 246/53/124 264/53/124 265/55/124
f 268/54/87 267/53/87 270/55/87 269/61/87
f 250/55/125 249/61/125 269/61/125 270/55/125
f 249/61/126 245/54/126 268/54/126 269/61/126
f 246/53/127 250/55/127 270/55/127 267/53/127
f 274/59/75 273/56/75 277/56/75 278/59/75
f 243/58/128 247/59/128 274/59/128 271/58/128
f 248/56/129 244/57/129 272/57/129 273/56/129
f 247/59/130 248/56/130 273/56/130 274/59/130
f 271/58/83 274/59/83 278/59/83 275/58/83
f 272/57/79 271/58/79 275/58/79 276/57/79
f 273/56/71 272/57/71 276/57/71 277/56/71
f 281/56/83 280/57/83 284/57/83 285/56/83
f 282/59/79 281/56/79 285/56/79 286/59/79
f 279/58/71 282/59/71 286/59/71 283/58/71
f 280/57/75 279/58/75 283/58/75 284/57/75
f 289/56/71 288/57/71 292/57/71 293/56/71
f 294/59/102 293/56/102 292/57/102 291/58/102
f 290/59/75 289/56/75 293/56/75 294/59/75
f 287/58/83 290/59/83 294/59/83 291/58/83
f 288/57/79 287/58/79 291/58/79 292/57/79
f 295/87/87 297/88/87 299/89/87 301/90/87 303/91/87 305/92/87
usemtl NeonBlue
f 147/58/94 150/59/94 154/59/94 151/58/94
f 148/57/95 147/58/95 151/58/95 152/57/95
f 149/56/96 148/57/96 152/57/96 153/56/96
f 150/59/97 149/56/97 153/56/97 154/59/97
f 155/58/98 158/59/98 162/59/98 159/58/98
f 156/57/99 155/58/99 159/58/99 160/57/99
f 157/56/100 156/57/100 160/57/100 161/56/100
f 158/59/101 157/56/101 161/56/101 162/59/101
f 211/58/131 214/59/131 218/59/131 215/58/131
f 212/57/132 211/58/132 215/58/132 216/57/132
f 213/56/133 212/57/133 216/57/133 217/56/133
f 214/59/134 213/56/134 217/56/134 218/59/134
f 219/58/135 222/59/135 226/59/135 223/58/135
f 220/57/136 219/58/136 223/58/136 224/57/136
f 221/56/137 220/57/137 224/57/137 225/56/137
f 222/59/138 221/56/138 225/56/138 226/59/138
f 275/58/131 278/59/131 282/59/131 279/58/131
f 276/57/132 275/58/132 279/58/132 280/57/132
f 277/56/133 276/57/133 280/57/133 281/56/133
f 278/59/134 277/56/134 281/56/134 282/59/134
f 283/58/135 286/59/135 290/59/135 287/58/135
f 284/57/136 283/58/136 287/58/136 288/57/136
f 285/56/137 284/57/137 288/57/137 289/56/137
f 286/59/138 285/56/138 289/56/138 290/59/138
usemtl BarrelMAT
f 167/67/103 168/68/103 170/69/103 169/70/103
f 169/70/79 170/69/79 172/71/79 171/72/79
f 171/72/104 172/71/104 174/73/104 173/74/104
f 173/74/105 174/73/105 176/75/105 175/76/105
f 170/77/102 168/78/102 178/79/102 176/80/102 174/81/102 172/82/102
f 175/76/75 176/75/75 178/83/75 177/84/75
f 177/84/106 178/83/106 168/85/106 167/86/106
f 231/67/139 232/68/139 234/69/139 233/70/139
f 233/70/79 234/69/79 236/71/79 235/72/79
f 235/72/140 236/71/140 238/73/140 237/74/140
f 237/74/141 238/73/141 240/75/141 239/76/141
f 234/77/102 232/78/102 242/79/102 240/80/102 238/81/102 236/82/102
f 239/76/75 240/75/75 242/83/75 241/84/75
f 241/84/142 242/83/142 232/85/142 231/86/142
f 295/67/139 296/68/139 298/69/139 297/70/139
f 297/70/79 298/69/79 300/71/79 299/72/79
f 299/72/140 300/71/140 302/73/140 301/74/140
f 301/74/141 302/73/141 304/75/141 303/76/141
f 298/77/102 296/78/102 306/79/102 304/80/102 302/81/102 300/82/102
f 303/76/75 304/75/75 306/83/75 305/84/75
f 305/84/142 306/83/142 296/85/142 295/86/142
