# Blender 4.0.2
# www.blender.org
mtllib Turret.mtl
o Cube
v -1.000000 0.229768 1.000000
v -0.892656 0.358599 0.892656
v -1.000000 0.229768 -1.000000
v -0.892656 0.358599 -0.892656
v 1.000000 0.229768 1.000000
v 0.892656 0.358599 0.892656
v 1.000000 0.229768 -1.000000
v 0.892656 0.358599 -0.892656
v -1.459270 0.118105 -1.459270
v -1.459270 0.118105 1.459270
v 1.459270 0.118105 -1.459270
v 1.459270 0.118105 1.459270
vn -0.7683 0.6401 -0.0000
vn -0.0000 0.6401 -0.7683
vn 0.7683 0.6401 -0.0000
vn -0.0000 0.6401 0.7683
vn -0.0000 0.9717 0.2362
vn -0.0000 1.0000 -0.0000
vn -0.0000 -1.0000 -0.0000
vn -0.0000 0.9717 -0.2362
vn -0.2362 0.9717 -0.0000
vn 0.2362 0.9717 -0.0000
vt 0.375000 0.000000
vt 0.625000 0.000000
vt 0.625000 0.250000
vt 0.375000 0.250000
vt 0.625000 0.500000
vt 0.375000 0.500000
vt 0.625000 0.750000
vt 0.375000 0.750000
vt 0.625000 1.000000
vt 0.375000 1.000000
vt 0.875000 0.500000
vt 0.875000 0.750000
vt 0.125000 0.500000
vt 0.125000 0.750000
s 0
usemtl Material
f 5/8/5 1/10/5 10/10/5 12/8/5
f 9/13/7 11/6/7 12/8/7 10/14/7
f 3/4/8 7/6/8 11/6/8 9/4/8
f 1/1/9 3/4/9 9/4/9 10/1/9
f 7/6/10 5/8/10 12/8/10 11/6/10
usemtl Material.001
f 1/1/1 2/2/1 4/3/1 3/4/1
f 3/4/2 4/3/2 8/5/2 7/6/2
f 7/6/3 8/5/3 6/7/3 5/8/3
f 5/8/4 6/7/4 2/9/4 1/10/4
f 8/5/6 4/11/6 2/12/6 6/7/6
o Cylinder.001
v 0.000000 0.619069 -0.200000
v 0.000000 1.019069 -0.200000
v 0.128558 0.619069 -0.153209
v 0.128558 1.019069 -0.153209
v 0.196962 0.619069 -0.034730
v 0.196962 1.019069 -0.034730
v 0.173205 0.619069 0.100000
v 0.173205 1.019069 0.100000
v 0.068404 0.619069 0.187939
v 0.068404 1.019069 0.187939
v -0.068404 0.619069 0.187939
v -0.068404 1.019069 0.187939
v -0.173205 0.619069 0.100000
v -0.173205 1.019069 0.100000
v -0.196962 0.619069 -0.034730
v -0.196962 1.019069 -0.034730
v -0.128558 0.619069 -0.153209
v -0.128558 1.019069 -0.153209
v 0.128558 2.139749 -0.153209
v 0.000000 2.139749 -0.200000
v 0.196962 2.139749 -0.034730
v 0.173205 2.139749 0.100000
v 0.068404 2.139749 0.187939
v -0.068404 2.139749 0.187939
v -0.173205 2.139749 0.100000
v -0.196962 2.139749 -0.034730
v -0.128558 2.139749 -0.153209
v 0.128558 2.456827 -0.153209
v 0.000000 2.456827 -0.200000
v 0.196962 2.456827 -0.034730
v 0.173205 2.456827 0.100000
v 0.068404 2.456827 0.187939
v -0.068404 2.456827 0.187939
v -0.173205 2.456827 0.100000
v -0.196962 2.456827 -0.034730
v -0.128558 2.456827 -0.153209
v 0.000000 0.536147 -0.340392
v 0.218800 0.536147 -0.260755
v 0.335220 0.536147 -0.059108
v 0.294788 0.536147 0.170196
v 0.116421 0.536147 0.319863
v -0.116421 0.536147 0.319863
v -0.294788 0.536147 0.170196
v -0.335220 0.536147 -0.059108
v -0.218800 0.536147 -0.260755
v 0.000000 0.383243 -0.340392
v 0.218800 0.383243 -0.260755
v 0.335220 0.383243 -0.059108
v 0.294788 0.383243 0.170196
v 0.116421 0.383243 0.319863
v -0.116421 0.383243 0.319863
v -0.294788 0.383243 0.170196
v -0.335220 0.383243 -0.059108
v -0.218800 0.383243 -0.260755
v 0.000000 0.626694 -0.743539
v 0.477938 0.626694 -0.569584
v 0.732243 0.626694 -0.129114
v 0.643923 0.626694 0.371769
v 0.254305 0.626694 0.698698
v -0.254305 0.626694 0.698698
v -0.643923 0.626694 0.371769
v -0.732243 0.626694 -0.129114
v -0.477938 0.626694 -0.569584
v 0.000000 0.292696 -0.743539
v 0.477938 0.292696 -0.569584
v 0.732243 0.292696 -0.129114
v 0.643923 0.292696 0.371769
v 0.254305 0.292696 0.698698
v -0.254305 0.292696 0.698698
v -0.643923 0.292696 0.371769
v -0.732243 0.292696 -0.129114
v -0.477938 0.292696 -0.569584
v 0.305290 2.534573 -0.363830
v 0.000000 2.534573 -0.474947
v 0.467731 2.534573 -0.082474
v 0.411316 2.534573 0.237473
v 0.162441 2.534573 0.446304
v -0.162441 2.534573 0.446304
v -0.411316 2.534573 0.237473
v -0.467731 2.534573 -0.082474
v -0.305290 2.534573 -0.363830
v 0.305290 2.876144 -0.363830
v 0.000000 2.876144 -0.474947
v 0.467731 2.876144 -0.082474
v 0.411316 2.876144 0.237473
v 0.162441 2.876144 0.446304
v -0.162441 2.876144 0.446304
v -0.411316 2.876144 0.237473
v -0.467731 2.876144 -0.082474
v -0.305290 2.876144 -0.363830
vn 0.3420 -0.0000 -0.9397
vn 0.8660 -0.0000 -0.5000
vn 0.9848 -0.0000 0.1736
vn 0.6428 -0.0000 0.7660
vn -0.0000 -0.0000 1.0000
vn -0.6428 -0.0000 0.7660
vn -0.9848 -0.0000 0.1736
vn -0.8660 -0.0000 -0.5000
vn -0.3420 -0.0000 -0.9397
vn -0.3421 0.8466 0.4077
vn -0.1852 -0.9576 0.2207
vn 0.2289 -0.9726 -0.0404
vn -0.0000 0.8466 0.5322
vn 0.3421 0.8466 0.4077
vn 0.1820 0.8466 -0.5001
vn 0.5241 0.8466 0.0924
vn 0.4609 0.8466 -0.2661
vn -0.1820 0.8466 -0.5001
vn -0.4609 0.8466 -0.2661
vn -0.5241 0.8466 0.0924
vn -0.0000 -1.0000 -0.0000
vn -0.2013 0.9726 0.1162
vn 0.1494 -0.9726 -0.1781
vn 0.0795 0.9726 0.2184
vn -0.0795 0.9726 0.2184
vn -0.0000 -0.9726 -0.2325
vn 0.2013 0.9726 0.1162
vn -0.1494 -0.9726 -0.1781
vn 0.2289 0.9726 -0.0404
vn -0.2289 0.9726 -0.0404
vn 0.2013 -0.9726 0.1162
vn -0.1494 0.9726 -0.1781
vn -0.0795 -0.9726 0.2184
vn 0.0795 -0.9726 0.2184
vn -0.0000 0.9726 -0.2325
vn -0.2013 -0.9726 0.1162
vn 0.1494 0.9726 -0.1781
vn -0.2289 -0.9726 -0.0404
vn 0.2838 -0.9576 0.0500
vn -0.2838 -0.9576 0.0500
vn 0.1852 -0.9576 0.2207
vn 0.0986 -0.9576 -0.2708
vn -0.2495 -0.9576 -0.1441
vn -0.0000 -0.9576 0.2882
vn 0.2495 -0.9576 -0.1441
vn -0.0986 -0.9576 -0.2708
vn -0.0000 1.0000 -0.0000
vt 1.000000 0.500000
vt 1.000000 1.000000
vt 0.888889 1.000000
vt 0.888889 0.500000
vt 0.777778 1.000000
vt 0.777778 0.500000
vt 0.666667 1.000000
vt 0.666667 0.500000
vt 0.555556 1.000000
vt 0.555556 0.500000
vt 0.444444 1.000000
vt 0.444444 0.500000
vt 0.333333 1.000000
vt 0.333333 0.500000
vt 0.222222 1.000000
vt 0.222222 0.500000
vt 0.111111 1.000000
vt 0.111111 0.500000
vt 0.000000 1.000000
vt 0.000000 0.500000
vt 0.513646 0.291676
vt 0.542154 0.130000
vt 0.750000 0.490000
vt 0.904269 0.433851
vt 0.986354 0.291676
vt 0.957846 0.130000
vt 0.832085 0.024474
vt 0.667915 0.024474
vt 0.595731 0.433851
vt 0.404269 0.433851
vt 0.250000 0.490000
vt 0.095731 0.433851
vt 0.013646 0.291676
vt 0.042154 0.130000
vt 0.167915 0.024474
vt 0.332085 0.024474
vt 0.457846 0.130000
vt 0.486354 0.291676
s 0
usemtl Material.001
f 28/29/17 26/27/17 37/27/17 38/29/17
f 23/26/20 25/28/20 55/28/20 54/26/20
f 26/27/16 24/25/16 36/25/16 37/27/16
f 24/25/15 22/23/15 35/23/15 36/25/15
f 22/23/14 20/21/14 34/21/14 35/23/14
f 16/17/11 14/16/11 32/16/11 31/17/11
f 20/21/13 18/19/13 33/19/13 34/21/13
f 18/19/12 16/17/12 31/17/12 33/19/12
f 14/33/19 30/31/19 39/31/19 32/33/19
f 30/31/18 28/29/18 38/29/18 39/31/18
f 46/27/21 45/25/21 90/25/21 91/27/21
f 65/35/22 64/36/22 82/36/22 83/35/22
f 21/24/23 23/26/23 54/26/23 53/24/23
f 19/22/24 21/24/24 53/24/24 52/22/24
f 13/15/25 15/18/25 50/18/25 49/15/25
f 17/20/26 19/22/26 52/22/26 51/20/26
f 15/18/27 17/20/27 51/20/27 50/18/27
f 29/32/28 13/34/28 49/34/28 57/32/28
f 27/30/29 29/32/29 57/32/29 56/30/29
f 25/28/30 27/30/30 56/30/30 55/28/30
f 58/37/31 59/38/31 60/39/31 61/40/31 62/41/31 63/42/31 64/36/31 65/35/31 66/43/31
f 50/18/32 51/20/32 69/20/32 68/18/32
f 64/36/33 63/42/33 81/42/33 82/36/33
f 57/32/34 49/34/34 67/34/34 75/32/34
f 49/15/35 50/18/35 68/18/35 67/15/35
f 63/42/36 62/41/36 80/41/36 81/42/36
f 56/30/37 57/32/37 75/32/37 74/30/37
f 62/41/38 61/40/38 79/40/38 80/41/38
f 55/28/39 56/30/39 74/30/39 73/28/39
f 71/24/15 72/26/15 81/26/15 80/24/15
f 68/18/12 69/20/12 78/20/12 77/18/12
f 75/32/19 67/34/19 76/34/19 84/32/19
f 72/26/16 73/28/16 82/28/16 81/26/16
f 69/20/13 70/22/13 79/22/13 78/20/13
f 73/28/17 74/30/17 83/30/17 82/28/17
f 70/22/14 71/24/14 80/24/14 79/22/14
f 67/15/11 68/18/11 77/18/11 76/15/11
f 74/30/18 75/32/18 84/32/18 83/30/18
f 51/20/40 52/22/40 70/22/40 69/20/40
f 66/43/41 65/35/41 83/35/41 84/43/41
f 52/22/42 53/24/42 71/24/42 70/22/42
f 59/38/43 58/37/43 76/37/43 77/38/43
f 58/37/44 66/43/44 84/43/44 76/37/44
f 53/24/45 54/26/45 72/26/45 71/24/45
f 60/39/46 59/38/46 77/38/46 78/39/46
f 54/26/47 55/28/47 73/28/47 72/26/47
f 61/40/48 60/39/48 78/39/48 79/40/48
f 85/17/11 86/16/11 95/16/11 94/17/11
f 43/21/49 42/19/49 87/19/49 88/21/49
f 47/29/50 46/27/50 91/27/50 92/29/50
f 44/23/51 43/21/51 88/21/51 89/23/51
f 40/17/52 41/16/52 86/16/52 85/17/52
f 48/31/53 47/29/53 92/29/53 93/31/53
f 45/25/54 44/23/54 89/23/54 90/25/54
f 42/19/55 40/17/55 85/17/55 87/19/55
f 41/33/56 48/31/56 93/31/56 86/33/56
f 94/44/57 95/45/57 102/46/57 101/47/57 100/48/57 99/49/57 98/50/57 97/51/57 96/52/57
f 93/31/18 92/29/18 101/29/18 102/31/18
f 90/25/15 89/23/15 98/23/15 99/25/15
f 87/19/12 85/17/12 94/17/12 96/19/12
f 86/33/19 93/31/19 102/31/19 95/33/19
f 91/27/16 90/25/16 99/25/16 100/27/16
f 88/21/13 87/19/13 96/19/13 97/21/13
f 92/29/17 91/27/17 100/27/17 101/29/17
f 89/23/14 88/21/14 97/21/14 98/23/14
usemtl Material.005
f 13/15/11 14/16/11 16/17/11 15/18/11
f 15/18/12 16/17/12 18/19/12 17/20/12
f 17/20/13 18/19/13 20/21/13 19/22/13
f 19/22/14 20/21/14 22/23/14 21/24/14
f 21/24/15 22/23/15 24/25/15 23/26/15
f 23/26/16 24/25/16 26/27/16 25/28/16
f 25/28/17 26/27/17 28/29/17 27/30/17
f 27/30/18 28/29/18 30/31/18 29/32/18
f 29/32/19 30/31/19 14/33/19 13/34/19
f 35/23/14 34/21/14 43/21/14 44/23/14
f 31/17/11 32/16/11 41/16/11 40/17/11
f 39/31/18 38/29/18 47/29/18 48/31/18
f 36/25/15 35/23/15 44/23/15 45/25/15
f 33/19/12 31/17/12 40/17/12 42/19/12
f 32/33/19 39/31/19 48/31/19 41/33/19
f 37/27/16 36/25/16 45/25/16 46/27/16
f 34/21/13 33/19/13 42/19/13 43/21/13
f 38/29/17 37/27/17 46/27/17 47/29/17
o Cylinder.002
v 0.000000 0.869167 -0.100000
v 0.000000 1.069167 -0.100000
v 0.030902 0.869167 -0.095106
v 0.030902 1.069167 -0.095106
v 0.058779 0.869167 -0.080902
v 0.058779 1.069167 -0.080902
v 0.080902 0.869167 -0.058779
v 0.080902 1.069167 -0.058779
v 0.095106 0.869167 -0.030902
v 0.095106 1.069167 -0.030902
v 0.100000 0.869167 0.000000
v 0.100000 1.069167 0.000000
v 0.095106 0.869167 0.030902
v 0.095106 1.069167 0.030902
v 0.080902 0.869167 0.058779
v 0.080902 1.069167 0.058779
v 0.058779 0.869167 0.080902
v 0.058779 1.069167 0.080902
v 0.030902 0.869167 0.095106
v 0.030902 1.069167 0.095106
v 0.000000 0.869167 0.100000
v 0.000000 1.069167 0.100000
v -0.030902 0.869167 0.095106
v -0.030902 1.069167 0.095106
v -0.058779 0.869167 0.080902
v -0.058779 1.069167 0.080902
v -0.080902 0.869167 0.058779
v -0.080902 1.069167 0.058779
v -0.095106 0.869167 0.030902
v -0.095106 1.069167 0.030902
v -0.100000 0.869167 0.000000
v -0.100000 1.069167 0.000000
v -0.095106 0.869167 -0.030902
v -0.095106 1.069167 -0.030902
v -0.080902 0.869167 -0.058779
v -0.080902 1.069167 -0.058779
v -0.058779 0.869167 -0.080902
v -0.058779 1.069167 -0.080902
v -0.030902 0.869167 -0.095106
v -0.030902 1.069167 -0.095106
v 0.030902 2.330778 -0.095106
v -0.000000 2.330778 -0.100000
v 0.058778 2.330778 -0.080902
v 0.080902 2.330778 -0.058779
v 0.095106 2.330778 -0.030902
v 0.100000 2.330778 0.000000
v 0.095106 2.330778 0.030902
v 0.080902 2.330778 0.058779
v 0.058778 2.330778 0.080902
v 0.030902 2.330778 0.095106
v -0.000000 2.330778 0.100000
v -0.030902 2.330778 0.095106
v -0.058779 2.330778 0.080902
v -0.080902 2.330778 0.058779
v -0.095106 2.330778 0.030902
v -0.100000 2.330778 0.000000
v -0.095106 2.330778 -0.030902
v -0.080902 2.330778 -0.058779
v -0.058779 2.330778 -0.080902
v -0.030902 2.330778 -0.095106
v 0.030902 2.882815 -0.095106
v -0.000000 2.882815 -0.100000
v 0.058778 2.882815 -0.080902
v 0.080902 2.882815 -0.058779
v 0.095106 2.882815 -0.030902
v 0.100000 2.882815 0.000000
v 0.095106 2.882815 0.030902
v 0.080902 2.882815 0.058779
v 0.058778 2.882815 0.080902
v 0.030902 2.882815 0.095106
v -0.000000 2.882815 0.100000
v -0.030902 2.882815 0.095106
v -0.058779 2.882815 0.080902
v -0.080902 2.882815 0.058779
v -0.095106 2.882815 0.030902
v -0.100000 2.882815 0.000000
v -0.095106 2.882815 -0.030902
v -0.080902 2.882815 -0.058779
v -0.058779 2.882815 -0.080902
v -0.030902 2.882815 -0.095106
vn 0.1564 -0.0000 -0.9877
vn 0.4540 -0.0000 -0.8910
vn 0.7071 -0.0000 -0.7071
vn 0.8910 -0.0000 -0.4540
vn 0.9877 -0.0000 -0.1564
vn 0.9877 -0.0000 0.1564
vn 0.8910 -0.0000 0.4540
vn 0.7071 -0.0000 0.7071
vn 0.4540 -0.0000 0.8910
vn 0.1564 -0.0000 0.9877
vn -0.1564 -0.0000 0.9877
vn -0.4540 -0.0000 0.8910
vn -0.7071 -0.0000 0.7071
vn -0.8910 -0.0000 0.4540
vn -0.9877 -0.0000 0.1564
vn -0.9877 -0.0000 -0.1564
vn -0.8910 -0.0000 -0.4540
vn -0.7071 -0.0000 -0.7071
vn -0.4540 -0.0000 -0.8910
vn -0.1564 -0.0000 -0.9877
vn -0.0000 -1.0000 -0.0000
vn -0.0000 1.0000 -0.0000
vt 1.000000 0.500000
vt 1.000000 1.000000
vt 0.950000 1.000000
vt 0.950000 0.500000
vt 0.900000 1.000000
vt 0.900000 0.500000
vt 0.850000 1.000000
vt 0.850000 0.500000
vt 0.800000 1.000000
vt 0.800000 0.500000
vt 0.750000 1.000000
vt 0.750000 0.500000
vt 0.700000 1.000000
vt 0.700000 0.500000
vt 0.650000 1.000000
vt 0.650000 0.500000
vt 0.600000 1.000000
vt 0.600000 0.500000
vt 0.550000 1.000000
vt 0.550000 0.500000
vt 0.500000 1.000000
vt 0.500000 0.500000
vt 0.450000 1.000000
vt 0.450000 0.500000
vt 0.400000 1.000000
vt 0.400000 0.500000
vt 0.350000 1.000000
vt 0.350000 0.500000
vt 0.300000 1.000000
vt 0.300000 0.500000
vt 0.250000 1.000000
vt 0.250000 0.500000
vt 0.200000 1.000000
vt 0.200000 0.500000
vt 0.150000 1.000000
vt 0.150000 0.500000
vt 0.100000 1.000000
vt 0.100000 0.500000
vt 0.050000 1.000000
vt 0.050000 0.500000
vt -0.000000 1.000000
vt -0.000000 0.500000
vt 0.750000 0.490000
vt 0.824164 0.478254
vt 0.891068 0.444164
vt 0.944164 0.391068
vt 0.978254 0.324164
vt 0.990000 0.250000
vt 0.978254 0.175836
vt 0.944164 0.108932
vt 0.891068 0.055836
vt 0.824164 0.021746
vt 0.750000 0.010000
vt 0.675836 0.021746
vt 0.608932 0.055836
vt 0.555836 0.108932
vt 0.521746 0.175836
vt 0.510000 0.250000
vt 0.521746 0.324164
vt 0.555836 0.391068
vt 0.608932 0.444164
vt 0.675836 0.478254
vt 0.324164 0.478254
vt 0.250000 0.490000
vt 0.175836 0.478254
vt 0.108932 0.444164
vt 0.055836 0.391068
vt 0.021746 0.324164
vt 0.010000 0.250000
vt 0.021746 0.175836
vt 0.055836 0.108932
vt 0.108932 0.055836
vt 0.175836 0.021746
vt 0.250000 0.010000
vt 0.324164 0.021746
vt 0.391068 0.055836
vt 0.444164 0.108932
vt 0.478254 0.175836
vt 0.490000 0.250000
vt 0.478254 0.324164
vt 0.444164 0.391068
vt 0.391068 0.444164
s 0
f 103/53/58 104/54/58 106/55/58 105/56/58
f 105/56/59 106/55/59 108/57/59 107/58/59
f 107/58/60 108/57/60 110/59/60 109/60/60
f 109/60/61 110/59/61 112/61/61 111/62/61
f 111/62/62 112/61/62 114/63/62 113/64/62
f 113/64/63 114/63/63 116/65/63 115/66/63
f 115/66/64 116/65/64 118/67/64 117/68/64
f 117/68/65 118/67/65 120/69/65 119/70/65
f 119/70/66 120/69/66 122/71/66 121/72/66
f 121/72/67 122/71/67 124/73/67 123/74/67
f 123/74/68 124/73/68 126/75/68 125/76/68
f 125/76/69 126/75/69 128/77/69 127/78/69
f 127/78/70 128/77/70 130/79/70 129/80/70
f 129/80/71 130/79/71 132/81/71 131/82/71
f 131/82/72 132/81/72 134/83/72 133/84/72
f 133/84/73 134/83/73 136/85/73 135/86/73
f 135/86/74 136/85/74 138/87/74 137/88/74
f 137/88/75 138/87/75 140/89/75 139/90/75
f 120/69/65 118/67/65 150/67/65 151/69/65
f 139/90/76 140/89/76 142/91/76 141/92/76
f 141/92/77 142/91/77 104/93/77 103/94/77
f 103/95/78 105/96/78 107/97/78 109/98/78 111/99/78 113/100/78 115/101/78 117/102/78 119/103/78 121/104/78 123/105/78 125/106/78 127/107/78 129/108/78 131/109/78 133/110/78 135/111/78 137/112/78 139/113/78 141/114/78
f 143/55/58 144/54/58 164/54/58 163/55/58
f 106/55/58 104/54/58 144/54/58 143/55/58
f 130/79/70 128/77/70 155/77/70 156/79/70
f 140/89/75 138/87/75 160/87/75 161/89/75
f 116/65/63 114/63/63 148/63/63 149/65/63
f 126/75/68 124/73/68 153/73/68 154/75/68
f 136/85/73 134/83/73 158/83/73 159/85/73
f 112/61/61 110/59/61 146/59/61 147/61/61
f 122/71/66 120/69/66 151/69/66 152/71/66
f 132/81/71 130/79/71 156/79/71 157/81/71
f 142/91/76 140/89/76 161/89/76 162/91/76
f 108/57/59 106/55/59 143/55/59 145/57/59
f 118/67/64 116/65/64 149/65/64 150/67/64
f 128/77/69 126/75/69 154/75/69 155/77/69
f 138/87/74 136/85/74 159/85/74 160/87/74
f 114/63/62 112/61/62 147/61/62 148/63/62
f 124/73/67 122/71/67 152/71/67 153/73/67
f 134/83/72 132/81/72 157/81/72 158/83/72
f 104/93/77 142/91/77 162/91/77 144/93/77
f 110/59/60 108/57/60 145/57/60 146/59/60
f 163/115/79 164/116/79 182/117/79 181/118/79 180/119/79 179/120/79 178/121/79 177/122/79 176/123/79 175/124/79 174/125/79 173/126/79 172/127/79 171/128/79 170/129/79 169/130/79 168/131/79 167/132/79 166/133/79 165/134/79
f 159/85/73 158/83/73 178/83/73 179/85/73
f 152/71/66 151/69/66 171/69/66 172/71/66
f 145/57/59 143/55/59 163/55/59 165/57/59
f 160/87/74 159/85/74 179/85/74 180/87/74
f 153/73/67 152/71/67 172/71/67 173/73/67
f 146/59/60 145/57/60 165/57/60 166/59/60
f 161/89/75 160/87/75 180/87/75 181/89/75
f 154/75/68 153/73/68 173/73/68 174/75/68
f 147/61/61 146/59/61 166/59/61 167/61/61
f 162/91/76 161/89/76 181/89/76 182/91/76
f 155/77/69 154/75/69 174/75/69 175/77/69
f 148/63/62 147/61/62 167/61/62 168/63/62
f 144/93/77 162/91/77 182/91/77 164/93/77
f 156/79/70 155/77/70 175/77/70 176/79/70
f 149/65/63 148/63/63 168/63/63 169/65/63
f 157/81/71 156/79/71 176/79/71 177/81/71
f 150/67/64 149/65/64 169/65/64 170/67/64
f 158/83/72 157/81/72 177/81/72 178/83/72
f 151/69/65 150/67/65 170/67/65 171/69/65
o Cylinder
v -1.545688 2.864768 -0.100000
v 0.092501 2.864768 -0.100000
v -1.545688 2.805989 -0.080902
v 0.092501 2.805989 -0.080902
v -1.545688 2.769662 -0.030902
v 0.092501 2.769662 -0.030902
v -1.545688 2.769662 0.030902
v 0.092501 2.769662 0.030902
v -1.545688 2.805989 0.080902
v 0.092501 2.805989 0.080902
v -1.545688 2.864768 0.100000
v 0.092501 2.864768 0.100000
v -1.545688 2.923546 0.080902
v 0.092501 2.923546 0.080902
v -1.545688 2.959873 0.030902
v 0.092501 2.959873 0.030902
v -1.545688 2.959873 -0.030902
v 0.092501 2.959873 -0.030902
v -1.545688 2.923546 -0.080902
v 0.092501 2.923546 -0.080902
v -1.545688 2.864768 -0.129870
v -1.545688 2.788433 -0.105067
v -1.545688 2.741255 -0.040132
v -1.545688 2.741255 0.040132
v -1.545688 2.788433 0.105067
v -1.545688 2.864768 0.129870
v -1.545688 2.941103 0.105067
v -1.545688 2.988281 0.040132
v -1.545688 2.988281 -0.040132
v -1.545688 2.941103 -0.105067
v -1.244156 2.864768 -0.129870
v -1.244156 2.788433 -0.105067
v -1.244156 2.741255 -0.040132
v -1.244156 2.741255 0.040132
v -1.244156 2.788433 0.105067
v -1.244156 2.864768 0.129870
v -1.244156 2.941103 0.105067
v -1.244156 2.988281 0.040132
v -1.244156 2.988281 -0.040132
v -1.244156 2.941103 -0.105067
vn -0.0000 -0.3090 -0.9511
vn -0.0000 -0.8090 -0.5878
vn -0.0000 -1.0000 -0.0000
vn -0.0000 -0.8090 0.5878
vn -0.0000 -0.3090 0.9511
vn -0.0000 0.3090 0.9511
vn -0.0000 0.8090 0.5878
vn -0.0000 1.0000 -0.0000
vn 1.0000 -0.0000 -0.0000
vn -0.0000 0.8090 -0.5878
vn -0.0000 0.3090 -0.9511
vn -1.0000 -0.0000 -0.0000
vt 1.000000 0.500000
vt 1.000000 1.000000
vt 0.900000 1.000000
vt 0.900000 0.500000
vt 0.800000 1.000000
vt 0.800000 0.500000
vt 0.700000 1.000000
vt 0.700000 0.500000
vt 0.600000 1.000000
vt 0.600000 0.500000
vt 0.500000 1.000000
vt 0.500000 0.500000
vt 0.400000 1.000000
vt 0.400000 0.500000
vt 0.300000 1.000000
vt 0.300000 0.500000
vt 0.200000 1.000000
vt 0.200000 0.500000
vt 0.391068 0.444164
vt 0.250000 0.490000
vt 0.108932 0.444164
vt 0.021746 0.324164
vt 0.021746 0.175836
vt 0.108932 0.055836
vt 0.250000 0.010000
vt 0.391068 0.055836
vt 0.478254 0.175836
vt 0.478254 0.324164
vt 0.100000 1.000000
vt 0.100000 0.500000
vt -0.000000 1.000000
vt -0.000000 0.500000
vt 0.750000 0.490000
vt 0.891068 0.444164
vt 0.978254 0.324164
vt 0.978254 0.175836
vt 0.891068 0.055836
vt 0.750000 0.010000
vt 0.608932 0.055836
vt 0.521746 0.175836
vt 0.521746 0.324164
vt 0.608932 0.444164
s 0
usemtl Material
f 183/135/80 184/136/80 186/137/80 185/138/80
f 185/138/81 186/137/81 188/139/81 187/140/81
f 187/140/82 188/139/82 190/141/82 189/142/82
f 189/142/83 190/141/83 192/143/83 191/144/83
f 191/144/84 192/143/84 194/145/84 193/146/84
f 193/146/85 194/145/85 196/147/85 195/148/85
f 195/148/86 196/147/86 198/149/86 197/150/86
f 197/150/87 198/149/87 200/151/87 199/152/87
f 186/153/88 184/154/88 202/155/88 200/156/88 198/157/88 196/158/88 194/159/88 192/160/88 190/161/88 188/162/88
f 199/152/89 200/151/89 202/163/89 201/164/89
f 201/164/90 202/163/90 184/165/90 183/166/90
f 185/138/88 187/140/88 205/140/88 204/138/88
f 211/152/83 212/164/83 222/164/83 221/152/83
f 201/164/88 183/166/88 203/166/88 212/164/88
f 199/152/88 201/164/88 212/164/88 211/152/88
f 197/150/88 199/152/88 211/152/88 210/150/88
f 195/148/88 197/150/88 210/150/88 209/148/88
f 193/146/88 195/148/88 209/148/88 208/146/88
f 191/144/88 193/146/88 208/146/88 207/144/88
f 189/142/88 191/144/88 207/144/88 206/142/88
f 183/135/88 185/138/88 204/138/88 203/135/88
f 187/140/88 189/142/88 206/142/88 205/140/88
f 213/167/91 214/168/91 215/169/91 216/170/91 217/171/91 218/172/91 219/173/91 220/174/91 221/175/91 222/176/91
f 208/146/80 209/148/80 219/148/80 218/146/80
f 205/140/87 206/142/87 216/142/87 215/140/87
f 212/164/84 203/166/84 213/166/84 222/164/84
f 209/148/81 210/150/81 220/150/81 219/148/81
f 206/142/89 207/144/89 217/144/89 216/142/89
f 203/135/85 204/138/85 214/138/85 213/135/85
f 210/150/82 211/152/82 221/152/82 220/150/82
f 207/144/90 208/146/90 218/146/90 217/144/90
f 204/138/86 205/140/86 215/140/86 214/138/86
o Cylinder.003
v -2.060711 3.223755 -0.100000
v 0.112444 3.223755 -0.100000
v -2.060711 3.164977 -0.080902
v 0.112444 3.164977 -0.080902
v -2.060711 3.128650 -0.030902
v 0.112444 3.128650 -0.030902
v -2.060711 3.128650 0.030902
v 0.112444 3.128650 0.030902
v -2.060711 3.164977 0.080902
v 0.112444 3.164977 0.080902
v -2.060711 3.223755 0.100000
v 0.112444 3.223755 0.100000
v -2.060711 3.282534 0.080902
v 0.112444 3.282534 0.080902
v -2.060711 3.318861 0.030902
v 0.112444 3.318861 0.030902
v -2.060711 3.318861 -0.030902
v 0.112444 3.318861 -0.030902
v -2.060711 3.282534 -0.080902
v 0.112444 3.282534 -0.080902
v -2.060711 3.223755 -0.137700
v -2.060711 3.142817 -0.111402
v -2.060711 3.092795 -0.042552
v -2.060711 3.092795 0.042552
v -2.060711 3.142817 0.111402
v -2.060711 3.223755 0.137700
v -2.060711 3.304693 0.111402
v -2.060711 3.354716 0.042552
v -2.060711 3.354716 -0.042552
v -2.060711 3.304693 -0.111402
v -2.060711 3.223755 -0.137700
v -2.060711 3.142817 -0.111402
v -2.060711 3.092795 -0.042552
v -2.060711 3.092795 0.042552
v -2.060711 3.142817 0.111402
v -2.060711 3.223755 0.137700
v -2.060711 3.304693 0.111402
v -2.060711 3.354716 0.042552
v -2.060711 3.354716 -0.042552
v -2.060711 3.304693 -0.111402
v -2.060711 3.223755 -0.137700
v -2.060711 3.142817 -0.111402
v -2.060711 3.092795 -0.042552
v -2.060711 3.092795 0.042552
v -2.060711 3.142817 0.111402
v -2.060711 3.223755 0.137700
v -2.060711 3.304693 0.111402
v -2.060711 3.354716 0.042552
v -2.060711 3.354716 -0.042552
v -2.060711 3.304693 -0.111402
v -1.660711 3.223755 -0.137700
v -1.660711 3.142817 -0.111402
v -1.660711 3.092795 -0.042552
v -1.660711 3.092795 0.042552
v -1.660711 3.142817 0.111402
v -1.660711 3.223755 0.137700
v -1.660711 3.304693 0.111402
v -1.660711 3.354716 0.042552
v -1.660711 3.354716 -0.042552
v -1.660711 3.304693 -0.111402
vn -0.0000 -0.3090 -0.9511
vn -0.0000 -0.8090 -0.5878
vn -0.0000 -1.0000 -0.0000
vn -0.0000 -0.8090 0.5878
vn -0.0000 -0.3090 0.9511
vn -0.0000 0.3090 0.9511
vn -0.0000 0.8090 0.5878
vn -0.0000 1.0000 -0.0000
vn 1.0000 -0.0000 -0.0000
vn -0.0000 0.8090 -0.5878
vn -0.0000 0.3090 -0.9511
vn -1.0000 -0.0000 -0.0000
vt 1.000000 0.500000
vt 1.000000 1.000000
vt 0.900000 1.000000
vt 0.900000 0.500000
vt 0.800000 1.000000
vt 0.800000 0.500000
vt 0.700000 1.000000
vt 0.700000 0.500000
vt 0.600000 1.000000
vt 0.600000 0.500000
vt 0.500000 1.000000
vt 0.500000 0.500000
vt 0.400000 1.000000
vt 0.400000 0.500000
vt 0.300000 1.000000
vt 0.300000 0.500000
vt 0.200000 1.000000
vt 0.200000 0.500000
vt 0.391068 0.444164
vt 0.250000 0.490000
vt 0.108932 0.444164
vt 0.021746 0.324164
vt 0.021746 0.175836
vt 0.108932 0.055836
vt 0.250000 0.010000
vt 0.391068 0.055836
vt 0.478254 0.175836
vt 0.478254 0.324164
vt 0.100000 1.000000
vt 0.100000 0.500000
vt -0.000000 1.000000
vt -0.000000 0.500000
vt 0.750000 0.490000
vt 0.891068 0.444164
vt 0.978254 0.324164
vt 0.978254 0.175836
vt 0.891068 0.055836
vt 0.750000 0.010000
vt 0.608932 0.055836
vt 0.521746 0.175836
vt 0.521746 0.324164
vt 0.608932 0.444164
s 0
usemtl Material
f 223/177/92 224/178/92 226/179/92 225/180/92
f 225/180/93 226/179/93 228/181/93 227/182/93
f 227/182/94 228/181/94 230/183/94 229/184/94
f 229/184/95 230/183/95 232/185/95 231/186/95
f 231/186/96 232/185/96 234/187/96 233/188/96
f 233/188/97 234/187/97 236/189/97 235/190/97
f 235/190/98 236/189/98 238/191/98 237/192/98
f 237/192/99 238/191/99 240/193/99 239/194/99
f 226/195/100 224/196/100 242/197/100 240/198/100 238/199/100 236/200/100 234/201/100 232/202/100 230/203/100 228/204/100
f 239/194/101 240/193/101 242/205/101 241/206/101
f 241/206/102 242/205/102 224/207/102 223/208/102
f 233/188/100 235/190/100 249/190/100 248/188/100
f 246/184/100 247/186/100 257/186/100 256/184/100
f 231/186/100 233/188/100 248/188/100 247/186/100
f 229/184/100 231/186/100 247/186/100 246/184/100
f 223/177/100 225/180/100 244/180/100 243/177/100
f 227/182/100 229/184/100 246/184/100 245/182/100
f 225/180/100 227/182/100 245/182/100 244/180/100
f 241/206/100 223/208/100 243/208/100 252/206/100
f 239/194/100 241/206/100 252/206/100 251/194/100
f 237/192/100 239/194/100 251/194/100 250/192/100
f 235/190/100 237/192/100 250/192/100 249/190/100
f 253/177/100 254/180/100 264/180/100 263/177/100
f 243/177/100 244/180/100 254/180/100 253/177/100
f 250/192/100 251/194/100 261/194/100 260/192/100
f 247/186/100 248/188/100 258/188/100 257/186/100
f 244/180/100 245/182/100 255/182/100 254/180/100
f 251/194/100 252/206/100 262/206/100 261/194/100
f 248/188/100 249/190/100 259/190/100 258/188/100
f 245/182/100 246/184/100 256/184/100 255/182/100
f 252/206/100 243/208/100 253/208/100 262/206/100
f 249/190/100 250/192/100 260/192/100 259/190/100
f 267/186/102 268/188/102 278/188/102 277/186/102
f 260/192/100 261/194/100 271/194/100 270/192/100
f 257/186/100 258/188/100 268/188/100 267/186/100
f 254/180/100 255/182/100 265/182/100 264/180/100
f 261/194/100 262/206/100 272/206/100 271/194/100
f 258/188/100 259/190/100 269/190/100 268/188/100
f 255/182/100 256/184/100 266/184/100 265/182/100
f 262/206/100 253/208/100 263/208/100 272/206/100
f 259/190/100 260/192/100 270/192/100 269/190/100
f 256/184/100 257/186/100 267/186/100 266/184/100
f 273/209/103 274/210/103 275/211/103 276/212/103 277/213/103 278/214/103 279/215/103 280/216/103 281/217/103 282/218/103
f 264/180/98 265/182/98 275/182/98 274/180/98
f 271/194/95 272/206/95 282/206/95 281/194/95
f 268/188/92 269/190/92 279/190/92 278/188/92
f 265/182/99 266/184/99 276/184/99 275/182/99
f 272/206/96 263/208/96 273/208/96 282/206/96
f 269/190/93 270/192/93 280/192/93 279/190/93
f 266/184/101 267/186/101 277/186/101 276/184/101
f 263/177/97 264/180/97 274/180/97 273/177/97
f 270/192/94 271/194/94 281/194/94 280/192/94
o Cube.001
v -0.528092 2.592745 0.500000
v -0.528092 3.592745 0.500000
v -0.528092 2.592745 -0.500000
v -0.528092 3.592745 -0.500000
v 0.471908 2.592745 0.500000
v 0.471908 3.592745 0.500000
v 0.471908 2.592745 -0.500000
v 0.471908 3.592745 -0.500000
v -0.033092 3.692745 0.005000
v -0.033092 3.692745 -0.005000
v -0.023092 3.692745 -0.005000
v -0.023092 3.692745 0.005000
v -0.033092 3.087745 0.600000
v -0.033092 3.097745 0.600000
v -0.023092 3.097745 0.600000
v -0.023092 3.087745 0.600000
v 0.571908 3.097745 -0.005000
v 0.571908 3.087745 -0.005000
v 0.571908 3.087745 0.005000
v 0.571908 3.097745 0.005000
v -0.033092 3.097745 -0.600000
v -0.033092 3.087745 -0.600000
v -0.023092 3.087745 -0.600000
v -0.023092 3.097745 -0.600000
v -0.620409 2.764558 -0.328187
v -0.620409 2.764558 0.328187
v -0.620409 3.420932 0.328187
v -0.620409 3.420932 -0.328187
v -0.515486 2.764558 -0.328187
v -0.515486 2.764558 0.328187
v -0.515486 3.420932 0.328187
v -0.515486 3.420932 -0.328187
vn -0.8809 0.4733 -0.0000
vn -0.0000 0.1980 -0.9802
vn 0.9802 0.1980 -0.0000
vn -0.1980 -0.0000 0.9802
vn -0.0000 -1.0000 -0.0000
vn -0.0000 0.9802 -0.1980
vn -0.0000 1.0000 -0.0000
vn 0.1980 0.9802 -0.0000
vn -0.1980 0.9802 -0.0000
vn -0.0000 0.9802 0.1980
vn -0.0000 -0.0000 1.0000
vn -0.0000 -0.1980 0.9802
vn -0.0000 0.1980 0.9802
vn 0.1980 -0.0000 0.9802
vn 1.0000 -0.0000 -0.0000
vn 0.9802 -0.0000 -0.1980
vn 0.9802 -0.0000 0.1980
vn 0.9802 -0.1980 -0.0000
vn -0.0000 -0.0000 -1.0000
vn -0.1980 -0.0000 -0.9802
vn 0.1980 -0.0000 -0.9802
vn -0.0000 -0.1980 -0.9802
vn -0.8809 -0.4733 -0.0000
vn -0.8809 -0.0000 -0.4733
vn -0.8809 -0.0000 0.4733
vn -1.0000 -0.0000 -0.0000
vt 0.625000 0.000000
vt 0.625000 0.250000
vt 0.625000 0.500000
vt 0.625000 0.750000
vt 0.375000 0.000000
vt 0.125000 0.500000
vt 0.375000 0.500000
vt 0.375000 0.750000
vt 0.125000 0.750000
vt 0.875000 0.500000
vt 0.875000 0.750000
vt 0.625000 1.000000
vt 0.375000 1.000000
vt 0.375000 0.250000
s 0
usemtl Material
f 285/224/108 289/225/108 287/226/108 283/227/108
f 309/219/108 310/220/108 314/220/108 313/219/108
f 312/223/129 313/219/129 314/220/129 311/232/129
f 307/224/110 308/227/110 312/227/110 311/224/110
f 310/220/114 307/232/114 311/232/114 314/220/114
f 308/223/122 309/219/122 313/219/122 312/223/122
usemtl Material.001
f 300/225/118 299/221/118 302/222/118 301/226/118
f 304/232/122 303/220/122 306/221/122 305/225/122
usemtl Material.003
f 284/219/104 286/220/104 310/220/104 309/219/104
f 286/220/105 290/221/105 306/221/105 303/220/105
f 290/221/106 288/222/106 302/222/106 299/221/106
f 284/219/107 283/223/107 295/223/107 296/219/107
f 290/221/109 286/220/109 292/220/109 293/221/109
f 293/221/110 292/228/110 291/229/110 294/222/110
f 288/222/111 290/221/111 293/221/111 294/222/111
f 286/220/112 284/219/112 291/219/112 292/220/112
f 284/230/113 288/222/113 294/222/113 291/230/113
f 298/226/114 297/222/114 296/230/114 295/231/114
f 283/227/115 287/226/115 298/226/115 295/227/115
f 288/222/116 284/230/116 296/230/116 297/222/116
f 287/226/117 288/222/117 297/222/117 298/226/117
f 289/225/119 290/221/119 299/221/119 300/225/119
f 288/222/120 287/226/120 301/226/120 302/222/120
f 287/226/121 289/225/121 300/225/121 301/226/121
f 285/232/123 286/220/123 303/220/123 304/232/123
f 290/221/124 289/225/124 305/225/124 306/221/124
f 289/225/125 285/224/125 304/224/125 305/225/125
f 285/224/126 283/227/126 308/227/126 307/224/126
f 286/220/127 285/232/127 307/232/127 310/220/127
f 283/223/128 284/219/128 309/219/128 308/223/128
